%TF.GenerationSoftware,KiCad,Pcbnew,(6.0.8-1)-1*%
%TF.CreationDate,2022-11-03T22:23:08+08:00*%
%TF.ProjectId,PCB,5043422e-6b69-4636-9164-5f7063625858,rev?*%
%TF.SameCoordinates,Original*%
%TF.FileFunction,Legend,Top*%
%TF.FilePolarity,Positive*%
%FSLAX46Y46*%
G04 Gerber Fmt 4.6, Leading zero omitted, Abs format (unit mm)*
G04 Created by KiCad (PCBNEW (6.0.8-1)-1) date 2022-11-03 22:23:08*
%MOMM*%
%LPD*%
G01*
G04 APERTURE LIST*
%ADD10C,0.150000*%
%ADD11C,0.100000*%
%ADD12C,0.200000*%
%ADD13C,0.300000*%
%ADD14C,0.120000*%
%ADD15R,2.200000X2.200000*%
%ADD16O,2.200000X2.200000*%
%ADD17O,1.500000X1.500000*%
%ADD18O,1.800000X1.800000*%
%ADD19R,3.500000X1.700000*%
%ADD20O,1.700000X1.700000*%
%ADD21R,1.700000X1.700000*%
%ADD22R,1.600000X1.600000*%
%ADD23O,1.600000X1.600000*%
%ADD24C,1.600000*%
G04 APERTURE END LIST*
D10*
X96345952Y-85812380D02*
X96345952Y-86526666D01*
X96298333Y-86669523D01*
X96203095Y-86764761D01*
X96060238Y-86812380D01*
X95965000Y-86812380D01*
X97298333Y-86812380D02*
X96822142Y-86812380D01*
X96822142Y-85812380D01*
X98203095Y-86717142D02*
X98155476Y-86764761D01*
X98012619Y-86812380D01*
X97917380Y-86812380D01*
X97774523Y-86764761D01*
X97679285Y-86669523D01*
X97631666Y-86574285D01*
X97584047Y-86383809D01*
X97584047Y-86240952D01*
X97631666Y-86050476D01*
X97679285Y-85955238D01*
X97774523Y-85860000D01*
X97917380Y-85812380D01*
X98012619Y-85812380D01*
X98155476Y-85860000D01*
X98203095Y-85907619D01*
X98917380Y-85812380D02*
X98917380Y-86526666D01*
X98869761Y-86669523D01*
X98774523Y-86764761D01*
X98631666Y-86812380D01*
X98536428Y-86812380D01*
X99869761Y-86812380D02*
X99393571Y-86812380D01*
X99393571Y-85812380D01*
X100774523Y-86717142D02*
X100726904Y-86764761D01*
X100584047Y-86812380D01*
X100488809Y-86812380D01*
X100345952Y-86764761D01*
X100250714Y-86669523D01*
X100203095Y-86574285D01*
X100155476Y-86383809D01*
X100155476Y-86240952D01*
X100203095Y-86050476D01*
X100250714Y-85955238D01*
X100345952Y-85860000D01*
X100488809Y-85812380D01*
X100584047Y-85812380D01*
X100726904Y-85860000D01*
X100774523Y-85907619D01*
X101488809Y-85812380D02*
X101488809Y-86526666D01*
X101441190Y-86669523D01*
X101345952Y-86764761D01*
X101203095Y-86812380D01*
X101107857Y-86812380D01*
X102441190Y-86812380D02*
X101965000Y-86812380D01*
X101965000Y-85812380D01*
X103345952Y-86717142D02*
X103298333Y-86764761D01*
X103155476Y-86812380D01*
X103060238Y-86812380D01*
X102917380Y-86764761D01*
X102822142Y-86669523D01*
X102774523Y-86574285D01*
X102726904Y-86383809D01*
X102726904Y-86240952D01*
X102774523Y-86050476D01*
X102822142Y-85955238D01*
X102917380Y-85860000D01*
X103060238Y-85812380D01*
X103155476Y-85812380D01*
X103298333Y-85860000D01*
X103345952Y-85907619D01*
X104060238Y-85812380D02*
X104060238Y-86526666D01*
X104012619Y-86669523D01*
X103917380Y-86764761D01*
X103774523Y-86812380D01*
X103679285Y-86812380D01*
X105012619Y-86812380D02*
X104536428Y-86812380D01*
X104536428Y-85812380D01*
X105917380Y-86717142D02*
X105869761Y-86764761D01*
X105726904Y-86812380D01*
X105631666Y-86812380D01*
X105488809Y-86764761D01*
X105393571Y-86669523D01*
X105345952Y-86574285D01*
X105298333Y-86383809D01*
X105298333Y-86240952D01*
X105345952Y-86050476D01*
X105393571Y-85955238D01*
X105488809Y-85860000D01*
X105631666Y-85812380D01*
X105726904Y-85812380D01*
X105869761Y-85860000D01*
X105917380Y-85907619D01*
D11*
X51689047Y-66425000D02*
X51641428Y-66401190D01*
X51570000Y-66401190D01*
X51498571Y-66425000D01*
X51450952Y-66472619D01*
X51427142Y-66520238D01*
X51403333Y-66615476D01*
X51403333Y-66686904D01*
X51427142Y-66782142D01*
X51450952Y-66829761D01*
X51498571Y-66877380D01*
X51570000Y-66901190D01*
X51617619Y-66901190D01*
X51689047Y-66877380D01*
X51712857Y-66853571D01*
X51712857Y-66686904D01*
X51617619Y-66686904D01*
X51927142Y-66901190D02*
X51927142Y-66401190D01*
X52212857Y-66901190D01*
X52212857Y-66401190D01*
X52450952Y-66901190D02*
X52450952Y-66401190D01*
X52570000Y-66401190D01*
X52641428Y-66425000D01*
X52689047Y-66472619D01*
X52712857Y-66520238D01*
X52736666Y-66615476D01*
X52736666Y-66686904D01*
X52712857Y-66782142D01*
X52689047Y-66829761D01*
X52641428Y-66877380D01*
X52570000Y-66901190D01*
X52450952Y-66901190D01*
X51236666Y-118780714D02*
X51617619Y-118780714D01*
X51427142Y-118971190D02*
X51427142Y-118590238D01*
X52093809Y-118471190D02*
X51855714Y-118471190D01*
X51831904Y-118709285D01*
X51855714Y-118685476D01*
X51903333Y-118661666D01*
X52022380Y-118661666D01*
X52070000Y-118685476D01*
X52093809Y-118709285D01*
X52117619Y-118756904D01*
X52117619Y-118875952D01*
X52093809Y-118923571D01*
X52070000Y-118947380D01*
X52022380Y-118971190D01*
X51903333Y-118971190D01*
X51855714Y-118947380D01*
X51831904Y-118923571D01*
X52641428Y-118471190D02*
X52808095Y-118971190D01*
X52974761Y-118471190D01*
D12*
X57270952Y-118274714D02*
X57687619Y-118274714D01*
X57866190Y-118929476D02*
X57270952Y-118929476D01*
X57270952Y-117679476D01*
X57866190Y-117679476D01*
X58580476Y-118929476D02*
X58461428Y-118869952D01*
X58401904Y-118750904D01*
X58401904Y-117679476D01*
X59056666Y-118929476D02*
X59056666Y-118096142D01*
X59056666Y-117679476D02*
X58997142Y-117739000D01*
X59056666Y-117798523D01*
X59116190Y-117739000D01*
X59056666Y-117679476D01*
X59056666Y-117798523D01*
X61199523Y-118929476D02*
X60604285Y-118929476D01*
X60604285Y-117679476D01*
X61616190Y-118929476D02*
X61616190Y-118096142D01*
X61616190Y-117679476D02*
X61556666Y-117739000D01*
X61616190Y-117798523D01*
X61675714Y-117739000D01*
X61616190Y-117679476D01*
X61616190Y-117798523D01*
X62211428Y-118096142D02*
X62211428Y-119346142D01*
X62211428Y-118155666D02*
X62330476Y-118096142D01*
X62568571Y-118096142D01*
X62687619Y-118155666D01*
X62747142Y-118215190D01*
X62806666Y-118334238D01*
X62806666Y-118691380D01*
X62747142Y-118810428D01*
X62687619Y-118869952D01*
X62568571Y-118929476D01*
X62330476Y-118929476D01*
X62211428Y-118869952D01*
X63282857Y-118869952D02*
X63401904Y-118929476D01*
X63639999Y-118929476D01*
X63759047Y-118869952D01*
X63818571Y-118750904D01*
X63818571Y-118691380D01*
X63759047Y-118572333D01*
X63639999Y-118512809D01*
X63461428Y-118512809D01*
X63342380Y-118453285D01*
X63282857Y-118334238D01*
X63282857Y-118274714D01*
X63342380Y-118155666D01*
X63461428Y-118096142D01*
X63639999Y-118096142D01*
X63759047Y-118155666D01*
X64354285Y-118929476D02*
X64354285Y-118096142D01*
X64354285Y-117679476D02*
X64294761Y-117739000D01*
X64354285Y-117798523D01*
X64413809Y-117739000D01*
X64354285Y-117679476D01*
X64354285Y-117798523D01*
X64770952Y-118096142D02*
X65247142Y-118096142D01*
X64949523Y-117679476D02*
X64949523Y-118750904D01*
X65009047Y-118869952D01*
X65128095Y-118929476D01*
X65247142Y-118929476D01*
X65544761Y-118096142D02*
X66199523Y-118096142D01*
X65544761Y-118929476D01*
X66199523Y-118929476D01*
X67628095Y-118453285D02*
X68580476Y-118453285D01*
X70842380Y-118929476D02*
X70425714Y-118334238D01*
X70128095Y-118929476D02*
X70128095Y-117679476D01*
X70604285Y-117679476D01*
X70723333Y-117739000D01*
X70782857Y-117798523D01*
X70842380Y-117917571D01*
X70842380Y-118096142D01*
X70782857Y-118215190D01*
X70723333Y-118274714D01*
X70604285Y-118334238D01*
X70128095Y-118334238D01*
X71854285Y-118869952D02*
X71735238Y-118929476D01*
X71497142Y-118929476D01*
X71378095Y-118869952D01*
X71318571Y-118750904D01*
X71318571Y-118274714D01*
X71378095Y-118155666D01*
X71497142Y-118096142D01*
X71735238Y-118096142D01*
X71854285Y-118155666D01*
X71913809Y-118274714D01*
X71913809Y-118393761D01*
X71318571Y-118512809D01*
X72330476Y-118096142D02*
X72628095Y-118929476D01*
X72925714Y-118096142D01*
X74294761Y-117798523D02*
X74354285Y-117739000D01*
X74473333Y-117679476D01*
X74770952Y-117679476D01*
X74889999Y-117739000D01*
X74949523Y-117798523D01*
X75009047Y-117917571D01*
X75009047Y-118036619D01*
X74949523Y-118215190D01*
X74235238Y-118929476D01*
X75009047Y-118929476D01*
X76497142Y-118453285D02*
X77449523Y-118453285D01*
X78997142Y-118929476D02*
X78997142Y-117679476D01*
X79711428Y-118929476D01*
X79711428Y-117679476D01*
X80485238Y-118929476D02*
X80366190Y-118869952D01*
X80306666Y-118810428D01*
X80247142Y-118691380D01*
X80247142Y-118334238D01*
X80306666Y-118215190D01*
X80366190Y-118155666D01*
X80485238Y-118096142D01*
X80663809Y-118096142D01*
X80782857Y-118155666D01*
X80842380Y-118215190D01*
X80901904Y-118334238D01*
X80901904Y-118691380D01*
X80842380Y-118810428D01*
X80782857Y-118869952D01*
X80663809Y-118929476D01*
X80485238Y-118929476D01*
X81318571Y-118096142D02*
X81616190Y-118929476D01*
X81913809Y-118096142D01*
X83282857Y-117798523D02*
X83342380Y-117739000D01*
X83461428Y-117679476D01*
X83759047Y-117679476D01*
X83878095Y-117739000D01*
X83937619Y-117798523D01*
X83997142Y-117917571D01*
X83997142Y-118036619D01*
X83937619Y-118215190D01*
X83223333Y-118929476D01*
X83997142Y-118929476D01*
X84770952Y-117679476D02*
X84889999Y-117679476D01*
X85009047Y-117739000D01*
X85068571Y-117798523D01*
X85128095Y-117917571D01*
X85187619Y-118155666D01*
X85187619Y-118453285D01*
X85128095Y-118691380D01*
X85068571Y-118810428D01*
X85009047Y-118869952D01*
X84889999Y-118929476D01*
X84770952Y-118929476D01*
X84651904Y-118869952D01*
X84592380Y-118810428D01*
X84532857Y-118691380D01*
X84473333Y-118453285D01*
X84473333Y-118155666D01*
X84532857Y-117917571D01*
X84592380Y-117798523D01*
X84651904Y-117739000D01*
X84770952Y-117679476D01*
X85663809Y-117798523D02*
X85723333Y-117739000D01*
X85842380Y-117679476D01*
X86139999Y-117679476D01*
X86259047Y-117739000D01*
X86318571Y-117798523D01*
X86378095Y-117917571D01*
X86378095Y-118036619D01*
X86318571Y-118215190D01*
X85604285Y-118929476D01*
X86378095Y-118929476D01*
X86854285Y-117798523D02*
X86913809Y-117739000D01*
X87032857Y-117679476D01*
X87330476Y-117679476D01*
X87449523Y-117739000D01*
X87509047Y-117798523D01*
X87568571Y-117917571D01*
X87568571Y-118036619D01*
X87509047Y-118215190D01*
X86794761Y-118929476D01*
X87568571Y-118929476D01*
D13*
X46422571Y-107003571D02*
X47922571Y-106646428D01*
X46851142Y-106360714D01*
X47922571Y-106075000D01*
X46422571Y-105717857D01*
X47922571Y-105146428D02*
X46922571Y-105146428D01*
X46422571Y-105146428D02*
X46494000Y-105217857D01*
X46565428Y-105146428D01*
X46494000Y-105075000D01*
X46422571Y-105146428D01*
X46565428Y-105146428D01*
X47922571Y-104217857D02*
X47851142Y-104360714D01*
X47708285Y-104432142D01*
X46422571Y-104432142D01*
X47922571Y-103432142D02*
X47851142Y-103575000D01*
X47708285Y-103646428D01*
X46422571Y-103646428D01*
X47922571Y-102860714D02*
X46922571Y-102860714D01*
X46422571Y-102860714D02*
X46494000Y-102932142D01*
X46565428Y-102860714D01*
X46494000Y-102789285D01*
X46422571Y-102860714D01*
X46565428Y-102860714D01*
X47922571Y-101503571D02*
X47136857Y-101503571D01*
X46994000Y-101575000D01*
X46922571Y-101717857D01*
X46922571Y-102003571D01*
X46994000Y-102146428D01*
X47851142Y-101503571D02*
X47922571Y-101646428D01*
X47922571Y-102003571D01*
X47851142Y-102146428D01*
X47708285Y-102217857D01*
X47565428Y-102217857D01*
X47422571Y-102146428D01*
X47351142Y-102003571D01*
X47351142Y-101646428D01*
X47279714Y-101503571D01*
X47922571Y-100789285D02*
X46922571Y-100789285D01*
X47065428Y-100789285D02*
X46994000Y-100717857D01*
X46922571Y-100575000D01*
X46922571Y-100360714D01*
X46994000Y-100217857D01*
X47136857Y-100146428D01*
X47922571Y-100146428D01*
X47136857Y-100146428D02*
X46994000Y-100075000D01*
X46922571Y-99932142D01*
X46922571Y-99717857D01*
X46994000Y-99575000D01*
X47136857Y-99503571D01*
X47922571Y-99503571D01*
X47851142Y-98860714D02*
X47922571Y-98717857D01*
X47922571Y-98432142D01*
X47851142Y-98289285D01*
X47708285Y-98217857D01*
X47636857Y-98217857D01*
X47494000Y-98289285D01*
X47422571Y-98432142D01*
X47422571Y-98646428D01*
X47351142Y-98789285D01*
X47208285Y-98860714D01*
X47136857Y-98860714D01*
X46994000Y-98789285D01*
X46922571Y-98646428D01*
X46922571Y-98432142D01*
X46994000Y-98289285D01*
X47851142Y-96503571D02*
X47922571Y-96289285D01*
X47922571Y-95932142D01*
X47851142Y-95789285D01*
X47779714Y-95717857D01*
X47636857Y-95646428D01*
X47494000Y-95646428D01*
X47351142Y-95717857D01*
X47279714Y-95789285D01*
X47208285Y-95932142D01*
X47136857Y-96217857D01*
X47065428Y-96360714D01*
X46994000Y-96432142D01*
X46851142Y-96503571D01*
X46708285Y-96503571D01*
X46565428Y-96432142D01*
X46494000Y-96360714D01*
X46422571Y-96217857D01*
X46422571Y-95860714D01*
X46494000Y-95646428D01*
X46922571Y-95146428D02*
X47922571Y-94789285D01*
X46922571Y-94432142D02*
X47922571Y-94789285D01*
X48279714Y-94932142D01*
X48351142Y-95003571D01*
X48422571Y-95146428D01*
X47851142Y-93932142D02*
X47922571Y-93789285D01*
X47922571Y-93503571D01*
X47851142Y-93360714D01*
X47708285Y-93289285D01*
X47636857Y-93289285D01*
X47494000Y-93360714D01*
X47422571Y-93503571D01*
X47422571Y-93717857D01*
X47351142Y-93860714D01*
X47208285Y-93932142D01*
X47136857Y-93932142D01*
X46994000Y-93860714D01*
X46922571Y-93717857D01*
X46922571Y-93503571D01*
X46994000Y-93360714D01*
X46422571Y-92789285D02*
X46422571Y-91789285D01*
X47922571Y-92432142D01*
X47136857Y-89575000D02*
X47208285Y-89360714D01*
X47279714Y-89289285D01*
X47422571Y-89217857D01*
X47636857Y-89217857D01*
X47779714Y-89289285D01*
X47851142Y-89360714D01*
X47922571Y-89503571D01*
X47922571Y-90075000D01*
X46422571Y-90075000D01*
X46422571Y-89575000D01*
X46494000Y-89432142D01*
X46565428Y-89360714D01*
X46708285Y-89289285D01*
X46851142Y-89289285D01*
X46994000Y-89360714D01*
X47065428Y-89432142D01*
X47136857Y-89575000D01*
X47136857Y-90075000D01*
X46922571Y-87932142D02*
X47922571Y-87932142D01*
X46922571Y-88575000D02*
X47708285Y-88575000D01*
X47851142Y-88503571D01*
X47922571Y-88360714D01*
X47922571Y-88146428D01*
X47851142Y-88003571D01*
X47779714Y-87932142D01*
X47851142Y-87289285D02*
X47922571Y-87146428D01*
X47922571Y-86860714D01*
X47851142Y-86717857D01*
X47708285Y-86646428D01*
X47636857Y-86646428D01*
X47494000Y-86717857D01*
X47422571Y-86860714D01*
X47422571Y-87075000D01*
X47351142Y-87217857D01*
X47208285Y-87289285D01*
X47136857Y-87289285D01*
X46994000Y-87217857D01*
X46922571Y-87075000D01*
X46922571Y-86860714D01*
X46994000Y-86717857D01*
X47922571Y-84860714D02*
X46422571Y-84860714D01*
X47494000Y-84360714D01*
X46422571Y-83860714D01*
X47922571Y-83860714D01*
X47922571Y-82932142D02*
X47851142Y-83075000D01*
X47779714Y-83146428D01*
X47636857Y-83217857D01*
X47208285Y-83217857D01*
X47065428Y-83146428D01*
X46994000Y-83075000D01*
X46922571Y-82932142D01*
X46922571Y-82717857D01*
X46994000Y-82575000D01*
X47065428Y-82503571D01*
X47208285Y-82432142D01*
X47636857Y-82432142D01*
X47779714Y-82503571D01*
X47851142Y-82575000D01*
X47922571Y-82717857D01*
X47922571Y-82932142D01*
X46922571Y-81789285D02*
X47922571Y-81789285D01*
X47065428Y-81789285D02*
X46994000Y-81717857D01*
X46922571Y-81575000D01*
X46922571Y-81360714D01*
X46994000Y-81217857D01*
X47136857Y-81146428D01*
X47922571Y-81146428D01*
X47922571Y-80432142D02*
X46922571Y-80432142D01*
X46422571Y-80432142D02*
X46494000Y-80503571D01*
X46565428Y-80432142D01*
X46494000Y-80360714D01*
X46422571Y-80432142D01*
X46565428Y-80432142D01*
X46922571Y-79932142D02*
X46922571Y-79360714D01*
X46422571Y-79717857D02*
X47708285Y-79717857D01*
X47851142Y-79646428D01*
X47922571Y-79503571D01*
X47922571Y-79360714D01*
X47922571Y-78646428D02*
X47851142Y-78789285D01*
X47779714Y-78860714D01*
X47636857Y-78932142D01*
X47208285Y-78932142D01*
X47065428Y-78860714D01*
X46994000Y-78789285D01*
X46922571Y-78646428D01*
X46922571Y-78432142D01*
X46994000Y-78289285D01*
X47065428Y-78217857D01*
X47208285Y-78146428D01*
X47636857Y-78146428D01*
X47779714Y-78217857D01*
X47851142Y-78289285D01*
X47922571Y-78432142D01*
X47922571Y-78646428D01*
X47922571Y-77503571D02*
X46922571Y-77503571D01*
X47208285Y-77503571D02*
X47065428Y-77432142D01*
X46994000Y-77360714D01*
X46922571Y-77217857D01*
X46922571Y-77075000D01*
D10*
X85621904Y-83637380D02*
X85621904Y-82637380D01*
X85860000Y-82637380D01*
X86002857Y-82685000D01*
X86098095Y-82780238D01*
X86145714Y-82875476D01*
X86193333Y-83065952D01*
X86193333Y-83208809D01*
X86145714Y-83399285D01*
X86098095Y-83494523D01*
X86002857Y-83589761D01*
X85860000Y-83637380D01*
X85621904Y-83637380D01*
X87145714Y-83637380D02*
X86574285Y-83637380D01*
X86860000Y-83637380D02*
X86860000Y-82637380D01*
X86764761Y-82780238D01*
X86669523Y-82875476D01*
X86574285Y-82923095D01*
X83558095Y-81097380D02*
X83558095Y-80097380D01*
X84129523Y-81097380D02*
X83700952Y-80525952D01*
X84129523Y-80097380D02*
X83558095Y-80668809D01*
X100203095Y-92162380D02*
X100203095Y-92971904D01*
X100250714Y-93067142D01*
X100298333Y-93114761D01*
X100393571Y-93162380D01*
X100584047Y-93162380D01*
X100679285Y-93114761D01*
X100726904Y-93067142D01*
X100774523Y-92971904D01*
X100774523Y-92162380D01*
X101679285Y-92495714D02*
X101679285Y-93162380D01*
X101441190Y-92114761D02*
X101203095Y-92829047D01*
X101822142Y-92829047D01*
X98155476Y-100533809D02*
X98269761Y-100571904D01*
X98460238Y-100571904D01*
X98536428Y-100533809D01*
X98574523Y-100495714D01*
X98612619Y-100419523D01*
X98612619Y-100343333D01*
X98574523Y-100267142D01*
X98536428Y-100229047D01*
X98460238Y-100190952D01*
X98307857Y-100152857D01*
X98231666Y-100114761D01*
X98193571Y-100076666D01*
X98155476Y-100000476D01*
X98155476Y-99924285D01*
X98193571Y-99848095D01*
X98231666Y-99810000D01*
X98307857Y-99771904D01*
X98498333Y-99771904D01*
X98612619Y-99810000D01*
X98879285Y-99771904D02*
X99069761Y-100571904D01*
X99222142Y-100000476D01*
X99374523Y-100571904D01*
X99565000Y-99771904D01*
X100326904Y-100495714D02*
X100288809Y-100533809D01*
X100174523Y-100571904D01*
X100098333Y-100571904D01*
X99984047Y-100533809D01*
X99907857Y-100457619D01*
X99869761Y-100381428D01*
X99831666Y-100229047D01*
X99831666Y-100114761D01*
X99869761Y-99962380D01*
X99907857Y-99886190D01*
X99984047Y-99810000D01*
X100098333Y-99771904D01*
X100174523Y-99771904D01*
X100288809Y-99810000D01*
X100326904Y-99848095D01*
X101050714Y-100571904D02*
X100669761Y-100571904D01*
X100669761Y-99771904D01*
X101317380Y-100571904D02*
X101317380Y-99771904D01*
X101774523Y-100571904D02*
X101431666Y-100114761D01*
X101774523Y-99771904D02*
X101317380Y-100229047D01*
X104769761Y-101033809D02*
X104884047Y-101071904D01*
X105074523Y-101071904D01*
X105150714Y-101033809D01*
X105188809Y-100995714D01*
X105226904Y-100919523D01*
X105226904Y-100843333D01*
X105188809Y-100767142D01*
X105150714Y-100729047D01*
X105074523Y-100690952D01*
X104922142Y-100652857D01*
X104845952Y-100614761D01*
X104807857Y-100576666D01*
X104769761Y-100500476D01*
X104769761Y-100424285D01*
X104807857Y-100348095D01*
X104845952Y-100310000D01*
X104922142Y-100271904D01*
X105112619Y-100271904D01*
X105226904Y-100310000D01*
X105493571Y-100271904D02*
X105684047Y-101071904D01*
X105836428Y-100500476D01*
X105988809Y-101071904D01*
X106179285Y-100271904D01*
X106484047Y-101071904D02*
X106484047Y-100271904D01*
X106674523Y-100271904D01*
X106788809Y-100310000D01*
X106865000Y-100386190D01*
X106903095Y-100462380D01*
X106941190Y-100614761D01*
X106941190Y-100729047D01*
X106903095Y-100881428D01*
X106865000Y-100957619D01*
X106788809Y-101033809D01*
X106674523Y-101071904D01*
X106484047Y-101071904D01*
X107284047Y-101071904D02*
X107284047Y-100271904D01*
X107817380Y-100271904D02*
X107969761Y-100271904D01*
X108045952Y-100310000D01*
X108122142Y-100386190D01*
X108160238Y-100538571D01*
X108160238Y-100805238D01*
X108122142Y-100957619D01*
X108045952Y-101033809D01*
X107969761Y-101071904D01*
X107817380Y-101071904D01*
X107741190Y-101033809D01*
X107665000Y-100957619D01*
X107626904Y-100805238D01*
X107626904Y-100538571D01*
X107665000Y-100386190D01*
X107741190Y-100310000D01*
X107817380Y-100271904D01*
X86233095Y-111202380D02*
X86233095Y-112011904D01*
X86280714Y-112107142D01*
X86328333Y-112154761D01*
X86423571Y-112202380D01*
X86614047Y-112202380D01*
X86709285Y-112154761D01*
X86756904Y-112107142D01*
X86804523Y-112011904D01*
X86804523Y-111202380D01*
X87233095Y-111297619D02*
X87280714Y-111250000D01*
X87375952Y-111202380D01*
X87614047Y-111202380D01*
X87709285Y-111250000D01*
X87756904Y-111297619D01*
X87804523Y-111392857D01*
X87804523Y-111488095D01*
X87756904Y-111630952D01*
X87185476Y-112202380D01*
X87804523Y-112202380D01*
X86233095Y-71588380D02*
X86233095Y-72397904D01*
X86280714Y-72493142D01*
X86328333Y-72540761D01*
X86423571Y-72588380D01*
X86614047Y-72588380D01*
X86709285Y-72540761D01*
X86756904Y-72493142D01*
X86804523Y-72397904D01*
X86804523Y-71588380D01*
X87185476Y-71588380D02*
X87804523Y-71588380D01*
X87471190Y-71969333D01*
X87614047Y-71969333D01*
X87709285Y-72016952D01*
X87756904Y-72064571D01*
X87804523Y-72159809D01*
X87804523Y-72397904D01*
X87756904Y-72493142D01*
X87709285Y-72540761D01*
X87614047Y-72588380D01*
X87328333Y-72588380D01*
X87233095Y-72540761D01*
X87185476Y-72493142D01*
X57618333Y-73382142D02*
X57570714Y-73429761D01*
X57427857Y-73477380D01*
X57332619Y-73477380D01*
X57189761Y-73429761D01*
X57094523Y-73334523D01*
X57046904Y-73239285D01*
X56999285Y-73048809D01*
X56999285Y-72905952D01*
X57046904Y-72715476D01*
X57094523Y-72620238D01*
X57189761Y-72525000D01*
X57332619Y-72477380D01*
X57427857Y-72477380D01*
X57570714Y-72525000D01*
X57618333Y-72572619D01*
X58475476Y-72810714D02*
X58475476Y-73477380D01*
X58237380Y-72429761D02*
X57999285Y-73144047D01*
X58618333Y-73144047D01*
X60793333Y-84177142D02*
X60745714Y-84224761D01*
X60602857Y-84272380D01*
X60507619Y-84272380D01*
X60364761Y-84224761D01*
X60269523Y-84129523D01*
X60221904Y-84034285D01*
X60174285Y-83843809D01*
X60174285Y-83700952D01*
X60221904Y-83510476D01*
X60269523Y-83415238D01*
X60364761Y-83320000D01*
X60507619Y-83272380D01*
X60602857Y-83272380D01*
X60745714Y-83320000D01*
X60793333Y-83367619D01*
X61174285Y-83367619D02*
X61221904Y-83320000D01*
X61317142Y-83272380D01*
X61555238Y-83272380D01*
X61650476Y-83320000D01*
X61698095Y-83367619D01*
X61745714Y-83462857D01*
X61745714Y-83558095D01*
X61698095Y-83700952D01*
X61126666Y-84272380D01*
X61745714Y-84272380D01*
X60178333Y-103213142D02*
X60130714Y-103260761D01*
X59987857Y-103308380D01*
X59892619Y-103308380D01*
X59749761Y-103260761D01*
X59654523Y-103165523D01*
X59606904Y-103070285D01*
X59559285Y-102879809D01*
X59559285Y-102736952D01*
X59606904Y-102546476D01*
X59654523Y-102451238D01*
X59749761Y-102356000D01*
X59892619Y-102308380D01*
X59987857Y-102308380D01*
X60130714Y-102356000D01*
X60178333Y-102403619D01*
X60511666Y-102308380D02*
X61130714Y-102308380D01*
X60797380Y-102689333D01*
X60940238Y-102689333D01*
X61035476Y-102736952D01*
X61083095Y-102784571D01*
X61130714Y-102879809D01*
X61130714Y-103117904D01*
X61083095Y-103213142D01*
X61035476Y-103260761D01*
X60940238Y-103308380D01*
X60654523Y-103308380D01*
X60559285Y-103260761D01*
X60511666Y-103213142D01*
X86193333Y-87447380D02*
X85860000Y-86971190D01*
X85621904Y-87447380D02*
X85621904Y-86447380D01*
X86002857Y-86447380D01*
X86098095Y-86495000D01*
X86145714Y-86542619D01*
X86193333Y-86637857D01*
X86193333Y-86780714D01*
X86145714Y-86875952D01*
X86098095Y-86923571D01*
X86002857Y-86971190D01*
X85621904Y-86971190D01*
X87145714Y-87447380D02*
X86574285Y-87447380D01*
X86860000Y-87447380D02*
X86860000Y-86447380D01*
X86764761Y-86590238D01*
X86669523Y-86685476D01*
X86574285Y-86733095D01*
X86233095Y-92797380D02*
X86233095Y-93606904D01*
X86280714Y-93702142D01*
X86328333Y-93749761D01*
X86423571Y-93797380D01*
X86614047Y-93797380D01*
X86709285Y-93749761D01*
X86756904Y-93702142D01*
X86804523Y-93606904D01*
X86804523Y-92797380D01*
X87804523Y-93797380D02*
X87233095Y-93797380D01*
X87518809Y-93797380D02*
X87518809Y-92797380D01*
X87423571Y-92940238D01*
X87328333Y-93035476D01*
X87233095Y-93083095D01*
X63968333Y-84177142D02*
X63920714Y-84224761D01*
X63777857Y-84272380D01*
X63682619Y-84272380D01*
X63539761Y-84224761D01*
X63444523Y-84129523D01*
X63396904Y-84034285D01*
X63349285Y-83843809D01*
X63349285Y-83700952D01*
X63396904Y-83510476D01*
X63444523Y-83415238D01*
X63539761Y-83320000D01*
X63682619Y-83272380D01*
X63777857Y-83272380D01*
X63920714Y-83320000D01*
X63968333Y-83367619D01*
X64920714Y-84272380D02*
X64349285Y-84272380D01*
X64635000Y-84272380D02*
X64635000Y-83272380D01*
X64539761Y-83415238D01*
X64444523Y-83510476D01*
X64349285Y-83558095D01*
D14*
X80560000Y-84655000D02*
X80560000Y-81715000D01*
X80440000Y-84655000D02*
X80440000Y-81715000D01*
X81460000Y-81715000D02*
X76020000Y-81715000D01*
X75000000Y-83185000D02*
X76020000Y-83185000D01*
X81460000Y-84655000D02*
X81460000Y-81715000D01*
X80680000Y-84655000D02*
X80680000Y-81715000D01*
X76020000Y-81715000D02*
X76020000Y-84655000D01*
X82480000Y-83185000D02*
X81460000Y-83185000D01*
X76020000Y-84655000D02*
X81460000Y-84655000D01*
X111465000Y-67210000D02*
X111465000Y-67510000D01*
X90465000Y-95010000D02*
X90465000Y-95410000D01*
X90465000Y-72210000D02*
X90465000Y-72610000D01*
X111465000Y-92510000D02*
X111465000Y-92910000D01*
X90465000Y-107810000D02*
X90465000Y-108210000D01*
X90465000Y-77310000D02*
X90465000Y-77710000D01*
X90465000Y-97610000D02*
X90465000Y-98010000D01*
X90465000Y-82310000D02*
X90465000Y-82710000D01*
X111465000Y-72210000D02*
X111465000Y-72610000D01*
X90465000Y-105210000D02*
X90465000Y-105610000D01*
X111465000Y-112810000D02*
X111465000Y-113210000D01*
X90465000Y-69877000D02*
X93472000Y-69877000D01*
X111465000Y-74710000D02*
X111465000Y-75110000D01*
X111465000Y-90010000D02*
X111465000Y-90410000D01*
X90465000Y-84910000D02*
X90465000Y-85310000D01*
X111465000Y-87410000D02*
X111465000Y-87810000D01*
X90465000Y-87410000D02*
X90465000Y-87810000D01*
X90465000Y-100110000D02*
X90465000Y-100510000D01*
X90465000Y-102710000D02*
X90465000Y-103110000D01*
X111465000Y-105210000D02*
X111465000Y-105610000D01*
X111465000Y-115410000D02*
X111465000Y-115810000D01*
X111465000Y-102710000D02*
X111465000Y-103110000D01*
X111465000Y-95010000D02*
X111465000Y-95410000D01*
X111465000Y-97610000D02*
X111465000Y-98010000D01*
X90465000Y-115410000D02*
X90465000Y-115810000D01*
X111465000Y-77310000D02*
X111465000Y-77710000D01*
X111465000Y-118210000D02*
X109093000Y-118210000D01*
X93472000Y-69877000D02*
X93472000Y-67210000D01*
X111465000Y-84910000D02*
X111465000Y-85310000D01*
X90465000Y-67210000D02*
X111465000Y-67210000D01*
X111465000Y-100110000D02*
X111465000Y-100510000D01*
X92837000Y-118210000D02*
X90465000Y-118210000D01*
X111465000Y-82310000D02*
X111465000Y-82710000D01*
X111465000Y-69610000D02*
X111465000Y-70010000D01*
X90465000Y-92510000D02*
X90465000Y-92910000D01*
X90465000Y-90010000D02*
X90465000Y-90410000D01*
X111465000Y-107810000D02*
X111465000Y-108210000D01*
X90465000Y-79810000D02*
X90465000Y-80210000D01*
X111465000Y-79810000D02*
X111465000Y-80210000D01*
X111465000Y-110310000D02*
X111465000Y-110710000D01*
X90465000Y-67210000D02*
X90465000Y-67510000D01*
X90465000Y-112810000D02*
X90465000Y-113210000D01*
X90465000Y-74710000D02*
X90465000Y-75110000D01*
X90465000Y-110310000D02*
X90465000Y-110710000D01*
X90465000Y-69610000D02*
X90465000Y-70010000D01*
X85150000Y-114400000D02*
X85150000Y-109100000D01*
X59630000Y-114400000D02*
X85150000Y-114400000D01*
X85150000Y-109100000D02*
X59630000Y-109100000D01*
X59630000Y-109100000D02*
X59630000Y-110750000D01*
X59630000Y-112750000D02*
X59630000Y-114400000D01*
X59630000Y-112750000D02*
G75*
G03*
X59630000Y-110750000I0J1000000D01*
G01*
X85150000Y-69740000D02*
X59630000Y-69740000D01*
X59630000Y-75040000D02*
X85150000Y-75040000D01*
X85150000Y-75040000D02*
X85150000Y-69740000D01*
X59630000Y-73390000D02*
X59630000Y-75040000D01*
X59630000Y-69740000D02*
X59630000Y-71390000D01*
X59630000Y-73390000D02*
G75*
G03*
X59630000Y-71390000I0J1000000D01*
G01*
X56875000Y-68010000D02*
X56630000Y-68010000D01*
X58970000Y-71650000D02*
X58725000Y-71650000D01*
X56875000Y-71650000D02*
X56630000Y-71650000D01*
X58970000Y-68010000D02*
X58725000Y-68010000D01*
X56630000Y-68010000D02*
X56630000Y-71650000D01*
X58970000Y-68010000D02*
X58970000Y-71650000D01*
X61885000Y-85155000D02*
X62130000Y-85155000D01*
X62130000Y-88795000D02*
X62130000Y-85155000D01*
X61885000Y-88795000D02*
X62130000Y-88795000D01*
X59790000Y-85155000D02*
X60035000Y-85155000D01*
X59790000Y-88795000D02*
X60035000Y-88795000D01*
X59790000Y-88795000D02*
X59790000Y-85155000D01*
X62165000Y-103986000D02*
X62165000Y-104231000D01*
X58525000Y-103986000D02*
X62165000Y-103986000D01*
X58525000Y-106326000D02*
X62165000Y-106326000D01*
X58525000Y-103986000D02*
X58525000Y-104231000D01*
X58525000Y-106081000D02*
X58525000Y-106326000D01*
X62165000Y-106081000D02*
X62165000Y-106326000D01*
X82010000Y-88365000D02*
X82010000Y-85625000D01*
X74700000Y-86995000D02*
X75470000Y-86995000D01*
X75470000Y-88365000D02*
X82010000Y-88365000D01*
X82780000Y-86995000D02*
X82010000Y-86995000D01*
X82010000Y-85625000D02*
X75470000Y-85625000D01*
X75470000Y-85625000D02*
X75470000Y-88365000D01*
X59635000Y-97890000D02*
X85155000Y-97890000D01*
X85155000Y-97890000D02*
X85155000Y-92590000D01*
X59575000Y-90100000D02*
X59575000Y-100380000D01*
X59635000Y-92590000D02*
X59635000Y-94240000D01*
X59575000Y-100380000D02*
X85215000Y-100380000D01*
X85155000Y-92590000D02*
X59635000Y-92590000D01*
X59635000Y-96240000D02*
X59635000Y-97890000D01*
X85215000Y-90100000D02*
X59575000Y-90100000D01*
X85215000Y-100380000D02*
X85215000Y-90100000D01*
X59635000Y-96240000D02*
G75*
G03*
X59635000Y-94240000I0J1000000D01*
G01*
X65305000Y-88795000D02*
X65305000Y-85155000D01*
X62965000Y-88795000D02*
X62965000Y-85155000D01*
X65060000Y-85155000D02*
X65305000Y-85155000D01*
X62965000Y-88795000D02*
X63210000Y-88795000D01*
X65060000Y-88795000D02*
X65305000Y-88795000D01*
X62965000Y-85155000D02*
X63210000Y-85155000D01*
%LPC*%
D15*
X83820000Y-83185000D03*
D16*
X73660000Y-83185000D03*
D17*
X103390000Y-71740000D03*
D18*
X103690000Y-68710000D03*
D17*
X98540000Y-71740000D03*
D18*
X98240000Y-68710000D03*
D19*
X91175000Y-68580000D03*
D20*
X92075000Y-68580000D03*
X92075000Y-71120000D03*
D19*
X91175000Y-71120000D03*
X91175000Y-73660000D03*
D21*
X92075000Y-73660000D03*
D20*
X92075000Y-76200000D03*
D19*
X91175000Y-76200000D03*
D20*
X92075000Y-78740000D03*
D19*
X91175000Y-78740000D03*
X91175000Y-81280000D03*
D20*
X92075000Y-81280000D03*
X92075000Y-83820000D03*
D19*
X91175000Y-83820000D03*
D21*
X92075000Y-86360000D03*
D19*
X91175000Y-86360000D03*
X91175000Y-88900000D03*
D20*
X92075000Y-88900000D03*
D19*
X91175000Y-91440000D03*
D20*
X92075000Y-91440000D03*
D19*
X91175000Y-93980000D03*
D20*
X92075000Y-93980000D03*
D19*
X91175000Y-96520000D03*
D20*
X92075000Y-96520000D03*
D19*
X91175000Y-99060000D03*
D21*
X92075000Y-99060000D03*
D19*
X91175000Y-101600000D03*
D20*
X92075000Y-101600000D03*
X92075000Y-104140000D03*
D19*
X91175000Y-104140000D03*
D20*
X92075000Y-106680000D03*
D19*
X91175000Y-106680000D03*
X91175000Y-109220000D03*
D20*
X92075000Y-109220000D03*
D19*
X91175000Y-111760000D03*
D21*
X92075000Y-111760000D03*
D19*
X91175000Y-114300000D03*
D20*
X92075000Y-114300000D03*
D19*
X91175000Y-116840000D03*
D20*
X92075000Y-116840000D03*
D19*
X110755000Y-116840000D03*
D20*
X109855000Y-116840000D03*
D19*
X110755000Y-114300000D03*
D20*
X109855000Y-114300000D03*
D19*
X110755000Y-111760000D03*
D21*
X109855000Y-111760000D03*
D20*
X109855000Y-109220000D03*
D19*
X110755000Y-109220000D03*
D20*
X109855000Y-106680000D03*
D19*
X110755000Y-106680000D03*
D20*
X109855000Y-104140000D03*
D19*
X110755000Y-104140000D03*
X110755000Y-101600000D03*
D20*
X109855000Y-101600000D03*
D21*
X109855000Y-99060000D03*
D19*
X110755000Y-99060000D03*
X110755000Y-96520000D03*
D20*
X109855000Y-96520000D03*
D19*
X110755000Y-93980000D03*
D20*
X109855000Y-93980000D03*
X109855000Y-91440000D03*
D19*
X110755000Y-91440000D03*
D20*
X109855000Y-88900000D03*
D19*
X110755000Y-88900000D03*
D21*
X109855000Y-86360000D03*
D19*
X110755000Y-86360000D03*
X110755000Y-83820000D03*
D20*
X109855000Y-83820000D03*
D19*
X110755000Y-81280000D03*
D20*
X109855000Y-81280000D03*
X109855000Y-78740000D03*
D19*
X110755000Y-78740000D03*
X110755000Y-76200000D03*
D20*
X109855000Y-76200000D03*
D21*
X109855000Y-73660000D03*
D19*
X110755000Y-73660000D03*
X110755000Y-71120000D03*
D20*
X109855000Y-71120000D03*
D19*
X110755000Y-68580000D03*
D20*
X109855000Y-68580000D03*
X101549100Y-98310000D03*
D21*
X104089100Y-98310000D03*
D20*
X106629100Y-98310000D03*
D22*
X60960000Y-115560000D03*
D23*
X63500000Y-115560000D03*
X66040000Y-115560000D03*
X68580000Y-115560000D03*
X71120000Y-115560000D03*
X73660000Y-115560000D03*
X76200000Y-115560000D03*
X78740000Y-115560000D03*
X81280000Y-115560000D03*
X83820000Y-115560000D03*
X83820000Y-107940000D03*
X81280000Y-107940000D03*
X78740000Y-107940000D03*
X76200000Y-107940000D03*
X73660000Y-107940000D03*
X71120000Y-107940000D03*
X68580000Y-107940000D03*
X66040000Y-107940000D03*
X63500000Y-107940000D03*
X60960000Y-107940000D03*
D22*
X60960000Y-76200000D03*
D23*
X63500000Y-76200000D03*
X66040000Y-76200000D03*
X68580000Y-76200000D03*
X71120000Y-76200000D03*
X73660000Y-76200000D03*
X76200000Y-76200000D03*
X78740000Y-76200000D03*
X81280000Y-76200000D03*
X83820000Y-76200000D03*
X83820000Y-68580000D03*
X81280000Y-68580000D03*
X78740000Y-68580000D03*
X76200000Y-68580000D03*
X73660000Y-68580000D03*
X71120000Y-68580000D03*
X68580000Y-68580000D03*
X66040000Y-68580000D03*
X63500000Y-68580000D03*
X60960000Y-68580000D03*
D24*
X57800000Y-68580000D03*
X57800000Y-71080000D03*
X60960000Y-88225000D03*
X60960000Y-85725000D03*
X59095000Y-105156000D03*
X61595000Y-105156000D03*
X83820000Y-86995000D03*
D23*
X73660000Y-86995000D03*
D22*
X60965000Y-99050000D03*
D23*
X63505000Y-99050000D03*
X66045000Y-99050000D03*
X68585000Y-99050000D03*
X71125000Y-99050000D03*
X73665000Y-99050000D03*
X76205000Y-99050000D03*
X78745000Y-99050000D03*
X81285000Y-99050000D03*
X83825000Y-99050000D03*
X83825000Y-91430000D03*
X81285000Y-91430000D03*
X78745000Y-91430000D03*
X76205000Y-91430000D03*
X73665000Y-91430000D03*
X71125000Y-91430000D03*
X68585000Y-91430000D03*
X66045000Y-91430000D03*
X63505000Y-91430000D03*
X60965000Y-91430000D03*
D24*
X64135000Y-88225000D03*
X64135000Y-85725000D03*
D21*
X53340000Y-116840000D03*
D20*
X50800000Y-116840000D03*
X53340000Y-114300000D03*
X50800000Y-114300000D03*
X53340000Y-111760000D03*
X50800000Y-111760000D03*
X53340000Y-109220000D03*
X50800000Y-109220000D03*
X53340000Y-106680000D03*
X50800000Y-106680000D03*
X53340000Y-104140000D03*
X50800000Y-104140000D03*
X53340000Y-101600000D03*
X50800000Y-101600000D03*
X53340000Y-99060000D03*
X50800000Y-99060000D03*
X53340000Y-96520000D03*
X50800000Y-96520000D03*
X53340000Y-93980000D03*
X50800000Y-93980000D03*
X53340000Y-91440000D03*
X50800000Y-91440000D03*
X53340000Y-88900000D03*
X50800000Y-88900000D03*
X53340000Y-86360000D03*
X50800000Y-86360000D03*
X53340000Y-83820000D03*
X50800000Y-83820000D03*
X53340000Y-81280000D03*
X50800000Y-81280000D03*
X53340000Y-78740000D03*
X50800000Y-78740000D03*
X53340000Y-76200000D03*
X50800000Y-76200000D03*
X53340000Y-73660000D03*
X50800000Y-73660000D03*
X53340000Y-71120000D03*
X50800000Y-71120000D03*
X53340000Y-68580000D03*
X50800000Y-68580000D03*
M02*
