%TF.GenerationSoftware,KiCad,Pcbnew,(6.0.8-1)-1*%
%TF.CreationDate,2022-11-03T22:23:09+08:00*%
%TF.ProjectId,PCB,5043422e-6b69-4636-9164-5f7063625858,rev?*%
%TF.SameCoordinates,Original*%
%TF.FileFunction,Soldermask,Top*%
%TF.FilePolarity,Negative*%
%FSLAX46Y46*%
G04 Gerber Fmt 4.6, Leading zero omitted, Abs format (unit mm)*
G04 Created by KiCad (PCBNEW (6.0.8-1)-1) date 2022-11-03 22:23:09*
%MOMM*%
%LPD*%
G01*
G04 APERTURE LIST*
%ADD10R,2.200000X2.200000*%
%ADD11O,2.200000X2.200000*%
%ADD12O,1.500000X1.500000*%
%ADD13O,1.800000X1.800000*%
%ADD14R,3.500000X1.700000*%
%ADD15O,1.700000X1.700000*%
%ADD16R,1.700000X1.700000*%
%ADD17R,1.600000X1.600000*%
%ADD18O,1.600000X1.600000*%
%ADD19C,1.600000*%
G04 APERTURE END LIST*
D10*
X83820000Y-83185000D03*
D11*
X73660000Y-83185000D03*
D12*
X103390000Y-71740000D03*
D13*
X103690000Y-68710000D03*
D12*
X98540000Y-71740000D03*
D13*
X98240000Y-68710000D03*
D14*
X91175000Y-68580000D03*
D15*
X92075000Y-68580000D03*
X92075000Y-71120000D03*
D14*
X91175000Y-71120000D03*
X91175000Y-73660000D03*
D16*
X92075000Y-73660000D03*
D15*
X92075000Y-76200000D03*
D14*
X91175000Y-76200000D03*
D15*
X92075000Y-78740000D03*
D14*
X91175000Y-78740000D03*
X91175000Y-81280000D03*
D15*
X92075000Y-81280000D03*
X92075000Y-83820000D03*
D14*
X91175000Y-83820000D03*
D16*
X92075000Y-86360000D03*
D14*
X91175000Y-86360000D03*
X91175000Y-88900000D03*
D15*
X92075000Y-88900000D03*
D14*
X91175000Y-91440000D03*
D15*
X92075000Y-91440000D03*
D14*
X91175000Y-93980000D03*
D15*
X92075000Y-93980000D03*
D14*
X91175000Y-96520000D03*
D15*
X92075000Y-96520000D03*
D14*
X91175000Y-99060000D03*
D16*
X92075000Y-99060000D03*
D14*
X91175000Y-101600000D03*
D15*
X92075000Y-101600000D03*
X92075000Y-104140000D03*
D14*
X91175000Y-104140000D03*
D15*
X92075000Y-106680000D03*
D14*
X91175000Y-106680000D03*
X91175000Y-109220000D03*
D15*
X92075000Y-109220000D03*
D14*
X91175000Y-111760000D03*
D16*
X92075000Y-111760000D03*
D14*
X91175000Y-114300000D03*
D15*
X92075000Y-114300000D03*
D14*
X91175000Y-116840000D03*
D15*
X92075000Y-116840000D03*
D14*
X110755000Y-116840000D03*
D15*
X109855000Y-116840000D03*
D14*
X110755000Y-114300000D03*
D15*
X109855000Y-114300000D03*
D14*
X110755000Y-111760000D03*
D16*
X109855000Y-111760000D03*
D15*
X109855000Y-109220000D03*
D14*
X110755000Y-109220000D03*
D15*
X109855000Y-106680000D03*
D14*
X110755000Y-106680000D03*
D15*
X109855000Y-104140000D03*
D14*
X110755000Y-104140000D03*
X110755000Y-101600000D03*
D15*
X109855000Y-101600000D03*
D16*
X109855000Y-99060000D03*
D14*
X110755000Y-99060000D03*
X110755000Y-96520000D03*
D15*
X109855000Y-96520000D03*
D14*
X110755000Y-93980000D03*
D15*
X109855000Y-93980000D03*
X109855000Y-91440000D03*
D14*
X110755000Y-91440000D03*
D15*
X109855000Y-88900000D03*
D14*
X110755000Y-88900000D03*
D16*
X109855000Y-86360000D03*
D14*
X110755000Y-86360000D03*
X110755000Y-83820000D03*
D15*
X109855000Y-83820000D03*
D14*
X110755000Y-81280000D03*
D15*
X109855000Y-81280000D03*
X109855000Y-78740000D03*
D14*
X110755000Y-78740000D03*
X110755000Y-76200000D03*
D15*
X109855000Y-76200000D03*
D16*
X109855000Y-73660000D03*
D14*
X110755000Y-73660000D03*
X110755000Y-71120000D03*
D15*
X109855000Y-71120000D03*
D14*
X110755000Y-68580000D03*
D15*
X109855000Y-68580000D03*
X101549100Y-98310000D03*
D16*
X104089100Y-98310000D03*
D15*
X106629100Y-98310000D03*
D17*
X60960000Y-115560000D03*
D18*
X63500000Y-115560000D03*
X66040000Y-115560000D03*
X68580000Y-115560000D03*
X71120000Y-115560000D03*
X73660000Y-115560000D03*
X76200000Y-115560000D03*
X78740000Y-115560000D03*
X81280000Y-115560000D03*
X83820000Y-115560000D03*
X83820000Y-107940000D03*
X81280000Y-107940000D03*
X78740000Y-107940000D03*
X76200000Y-107940000D03*
X73660000Y-107940000D03*
X71120000Y-107940000D03*
X68580000Y-107940000D03*
X66040000Y-107940000D03*
X63500000Y-107940000D03*
X60960000Y-107940000D03*
D17*
X60960000Y-76200000D03*
D18*
X63500000Y-76200000D03*
X66040000Y-76200000D03*
X68580000Y-76200000D03*
X71120000Y-76200000D03*
X73660000Y-76200000D03*
X76200000Y-76200000D03*
X78740000Y-76200000D03*
X81280000Y-76200000D03*
X83820000Y-76200000D03*
X83820000Y-68580000D03*
X81280000Y-68580000D03*
X78740000Y-68580000D03*
X76200000Y-68580000D03*
X73660000Y-68580000D03*
X71120000Y-68580000D03*
X68580000Y-68580000D03*
X66040000Y-68580000D03*
X63500000Y-68580000D03*
X60960000Y-68580000D03*
D19*
X57800000Y-68580000D03*
X57800000Y-71080000D03*
X60960000Y-88225000D03*
X60960000Y-85725000D03*
X59095000Y-105156000D03*
X61595000Y-105156000D03*
X83820000Y-86995000D03*
D18*
X73660000Y-86995000D03*
D17*
X60965000Y-99050000D03*
D18*
X63505000Y-99050000D03*
X66045000Y-99050000D03*
X68585000Y-99050000D03*
X71125000Y-99050000D03*
X73665000Y-99050000D03*
X76205000Y-99050000D03*
X78745000Y-99050000D03*
X81285000Y-99050000D03*
X83825000Y-99050000D03*
X83825000Y-91430000D03*
X81285000Y-91430000D03*
X78745000Y-91430000D03*
X76205000Y-91430000D03*
X73665000Y-91430000D03*
X71125000Y-91430000D03*
X68585000Y-91430000D03*
X66045000Y-91430000D03*
X63505000Y-91430000D03*
X60965000Y-91430000D03*
D19*
X64135000Y-88225000D03*
X64135000Y-85725000D03*
D16*
X53340000Y-116840000D03*
D15*
X50800000Y-116840000D03*
X53340000Y-114300000D03*
X50800000Y-114300000D03*
X53340000Y-111760000D03*
X50800000Y-111760000D03*
X53340000Y-109220000D03*
X50800000Y-109220000D03*
X53340000Y-106680000D03*
X50800000Y-106680000D03*
X53340000Y-104140000D03*
X50800000Y-104140000D03*
X53340000Y-101600000D03*
X50800000Y-101600000D03*
X53340000Y-99060000D03*
X50800000Y-99060000D03*
X53340000Y-96520000D03*
X50800000Y-96520000D03*
X53340000Y-93980000D03*
X50800000Y-93980000D03*
X53340000Y-91440000D03*
X50800000Y-91440000D03*
X53340000Y-88900000D03*
X50800000Y-88900000D03*
X53340000Y-86360000D03*
X50800000Y-86360000D03*
X53340000Y-83820000D03*
X50800000Y-83820000D03*
X53340000Y-81280000D03*
X50800000Y-81280000D03*
X53340000Y-78740000D03*
X50800000Y-78740000D03*
X53340000Y-76200000D03*
X50800000Y-76200000D03*
X53340000Y-73660000D03*
X50800000Y-73660000D03*
X53340000Y-71120000D03*
X50800000Y-71120000D03*
X53340000Y-68580000D03*
X50800000Y-68580000D03*
M02*
