%TF.GenerationSoftware,KiCad,Pcbnew,(6.0.8-1)-1*%
%TF.CreationDate,2022-10-09T21:52:32-07:00*%
%TF.ProjectId,PCB,5043422e-6b69-4636-9164-5f7063625858,rev?*%
%TF.SameCoordinates,Original*%
%TF.FileFunction,Drillmap*%
%TF.FilePolarity,Positive*%
%FSLAX45Y45*%
G04 Gerber Fmt 4.5, Leading zero omitted, Abs format (unit mm)*
G04 Created by KiCad (PCBNEW (6.0.8-1)-1) date 2022-10-09 21:52:32*
%MOMM*%
%LPD*%
G01*
G04 APERTURE LIST*
%ADD10C,0.100000*%
%ADD11C,0.200000*%
%ADD12C,0.030000*%
%ADD13C,0.076200*%
%ADD14C,0.080000*%
G04 APERTURE END LIST*
D10*
X4470400Y-6502400D02*
X12623800Y-6502400D01*
X12623800Y-6502400D02*
X12623800Y-12014200D01*
X12623800Y-12014200D02*
X4470400Y-12014200D01*
X4470400Y-12014200D02*
X4470400Y-6502400D01*
D11*
D12*
X5725400Y-8824200D02*
X5755400Y-8854200D01*
X5755400Y-8824200D02*
X5725400Y-8854200D01*
X6487400Y-7481750D02*
X6517400Y-7511750D01*
X6517400Y-7481750D02*
X6487400Y-7511750D01*
X8367000Y-9357600D02*
X8397000Y-9387600D01*
X8397000Y-9357600D02*
X8367000Y-9387600D01*
X8938500Y-9510000D02*
X8968500Y-9540000D01*
X8968500Y-9510000D02*
X8938500Y-9540000D01*
X9059050Y-8875000D02*
X9089050Y-8905000D01*
X9089050Y-8875000D02*
X9059050Y-8905000D01*
X9059050Y-9129000D02*
X9089050Y-9159000D01*
X9089050Y-9129000D02*
X9059050Y-9159000D01*
X9059050Y-9383000D02*
X9089050Y-9413000D01*
X9089050Y-9383000D02*
X9059050Y-9413000D01*
X9059050Y-9637000D02*
X9089050Y-9667000D01*
X9089050Y-9637000D02*
X9059050Y-9667000D01*
X9065500Y-9891000D02*
X9095500Y-9921000D01*
X9095500Y-9891000D02*
X9065500Y-9921000D01*
X9319500Y-10145000D02*
X9349500Y-10175000D01*
X9349500Y-10145000D02*
X9319500Y-10175000D01*
X9700500Y-10145000D02*
X9730500Y-10175000D01*
X9730500Y-10145000D02*
X9700500Y-10175000D01*
X9738600Y-8367000D02*
X9768600Y-8397000D01*
X9768600Y-8367000D02*
X9738600Y-8397000D01*
X9840200Y-9891000D02*
X9870200Y-9921000D01*
X9870200Y-9891000D02*
X9840200Y-9921000D01*
X9954500Y-9637000D02*
X9984500Y-9667000D01*
X9984500Y-9637000D02*
X9954500Y-9667000D01*
X10043400Y-8875000D02*
X10073400Y-8905000D01*
X10073400Y-8875000D02*
X10043400Y-8905000D01*
X10043400Y-9129000D02*
X10073400Y-9159000D01*
X10073400Y-9129000D02*
X10043400Y-9159000D01*
X10043400Y-9383000D02*
X10073400Y-9413000D01*
X10073400Y-9383000D02*
X10043400Y-9413000D01*
X10602200Y-9738600D02*
X10632200Y-9768600D01*
X10632200Y-9738600D02*
X10602200Y-9768600D01*
X10907000Y-9992600D02*
X10937000Y-10022600D01*
X10937000Y-9992600D02*
X10907000Y-10022600D01*
X11059400Y-9738600D02*
X11089400Y-9768600D01*
X11089400Y-9738600D02*
X11059400Y-9768600D01*
X11313400Y-9992600D02*
X11343400Y-10022600D01*
X11343400Y-9992600D02*
X11313400Y-10022600D01*
X11415000Y-10551400D02*
X11445000Y-10581400D01*
X11445000Y-10551400D02*
X11415000Y-10581400D01*
D13*
X9626600Y-7749500D02*
G75*
G03*
X9626600Y-7749500I-38100J0D01*
G01*
X9626600Y-8003500D02*
G75*
G03*
X9626600Y-8003500I-38100J0D01*
G01*
X9626600Y-8257500D02*
G75*
G03*
X9626600Y-8257500I-38100J0D01*
G01*
X9626600Y-8511500D02*
G75*
G03*
X9626600Y-8511500I-38100J0D01*
G01*
X9626600Y-8765500D02*
G75*
G03*
X9626600Y-8765500I-38100J0D01*
G01*
X9626600Y-9019500D02*
G75*
G03*
X9626600Y-9019500I-38100J0D01*
G01*
X9626600Y-9273500D02*
G75*
G03*
X9626600Y-9273500I-38100J0D01*
G01*
X9626600Y-9527500D02*
G75*
G03*
X9626600Y-9527500I-38100J0D01*
G01*
X9626600Y-9781500D02*
G75*
G03*
X9626600Y-9781500I-38100J0D01*
G01*
X9626600Y-10035500D02*
G75*
G03*
X9626600Y-10035500I-38100J0D01*
G01*
X9626600Y-10289500D02*
G75*
G03*
X9626600Y-10289500I-38100J0D01*
G01*
X9626600Y-10543500D02*
G75*
G03*
X9626600Y-10543500I-38100J0D01*
G01*
X9626600Y-10797500D02*
G75*
G03*
X9626600Y-10797500I-38100J0D01*
G01*
X9626600Y-11051500D02*
G75*
G03*
X9626600Y-11051500I-38100J0D01*
G01*
X9626600Y-11305500D02*
G75*
G03*
X9626600Y-11305500I-38100J0D01*
G01*
X12166600Y-7749500D02*
G75*
G03*
X12166600Y-7749500I-38100J0D01*
G01*
X12166600Y-8003500D02*
G75*
G03*
X12166600Y-8003500I-38100J0D01*
G01*
X12166600Y-8257500D02*
G75*
G03*
X12166600Y-8257500I-38100J0D01*
G01*
X12166600Y-8511500D02*
G75*
G03*
X12166600Y-8511500I-38100J0D01*
G01*
X12166600Y-8765500D02*
G75*
G03*
X12166600Y-8765500I-38100J0D01*
G01*
X12166600Y-9019500D02*
G75*
G03*
X12166600Y-9019500I-38100J0D01*
G01*
X12166600Y-9273500D02*
G75*
G03*
X12166600Y-9273500I-38100J0D01*
G01*
X12166600Y-9527500D02*
G75*
G03*
X12166600Y-9527500I-38100J0D01*
G01*
X12166600Y-9781500D02*
G75*
G03*
X12166600Y-9781500I-38100J0D01*
G01*
X12166600Y-10035500D02*
G75*
G03*
X12166600Y-10035500I-38100J0D01*
G01*
X12166600Y-10289500D02*
G75*
G03*
X12166600Y-10289500I-38100J0D01*
G01*
X12166600Y-10543500D02*
G75*
G03*
X12166600Y-10543500I-38100J0D01*
G01*
X12166600Y-10797500D02*
G75*
G03*
X12166600Y-10797500I-38100J0D01*
G01*
X12166600Y-11051500D02*
G75*
G03*
X12166600Y-11051500I-38100J0D01*
G01*
X12166600Y-11305500D02*
G75*
G03*
X12166600Y-11305500I-38100J0D01*
G01*
D14*
X5780000Y-6818000D02*
X5780000Y-6898000D01*
X5740000Y-6858000D02*
X5820000Y-6858000D01*
X5780000Y-7318000D02*
X5780000Y-7398000D01*
X5740000Y-7358000D02*
X5820000Y-7358000D01*
X5909500Y-10475600D02*
X5909500Y-10555600D01*
X5869500Y-10515600D02*
X5949500Y-10515600D01*
X6096000Y-6818000D02*
X6096000Y-6898000D01*
X6056000Y-6858000D02*
X6136000Y-6858000D01*
X6096000Y-7580000D02*
X6096000Y-7660000D01*
X6056000Y-7620000D02*
X6136000Y-7620000D01*
X6096000Y-8282500D02*
X6096000Y-8362500D01*
X6056000Y-8322500D02*
X6136000Y-8322500D01*
X6096000Y-8782500D02*
X6096000Y-8862500D01*
X6056000Y-8822500D02*
X6136000Y-8822500D01*
X6096000Y-10754000D02*
X6096000Y-10834000D01*
X6056000Y-10794000D02*
X6136000Y-10794000D01*
X6096000Y-11516000D02*
X6096000Y-11596000D01*
X6056000Y-11556000D02*
X6136000Y-11556000D01*
X6096500Y-9103000D02*
X6096500Y-9183000D01*
X6056500Y-9143000D02*
X6136500Y-9143000D01*
X6096500Y-9865000D02*
X6096500Y-9945000D01*
X6056500Y-9905000D02*
X6136500Y-9905000D01*
X6350000Y-6818000D02*
X6350000Y-6898000D01*
X6310000Y-6858000D02*
X6390000Y-6858000D01*
X6350000Y-7580000D02*
X6350000Y-7660000D01*
X6310000Y-7620000D02*
X6390000Y-7620000D01*
X6350000Y-10754000D02*
X6350000Y-10834000D01*
X6310000Y-10794000D02*
X6390000Y-10794000D01*
X6350000Y-11516000D02*
X6350000Y-11596000D01*
X6310000Y-11556000D02*
X6390000Y-11556000D01*
X6350500Y-9103000D02*
X6350500Y-9183000D01*
X6310500Y-9143000D02*
X6390500Y-9143000D01*
X6350500Y-9865000D02*
X6350500Y-9945000D01*
X6310500Y-9905000D02*
X6390500Y-9905000D01*
X6409500Y-10475600D02*
X6409500Y-10555600D01*
X6369500Y-10515600D02*
X6449500Y-10515600D01*
X6413500Y-8282500D02*
X6413500Y-8362500D01*
X6373500Y-8322500D02*
X6453500Y-8322500D01*
X6413500Y-8782500D02*
X6413500Y-8862500D01*
X6373500Y-8822500D02*
X6453500Y-8822500D01*
X6604000Y-6818000D02*
X6604000Y-6898000D01*
X6564000Y-6858000D02*
X6644000Y-6858000D01*
X6604000Y-7580000D02*
X6604000Y-7660000D01*
X6564000Y-7620000D02*
X6644000Y-7620000D01*
X6604000Y-10754000D02*
X6604000Y-10834000D01*
X6564000Y-10794000D02*
X6644000Y-10794000D01*
X6604000Y-11516000D02*
X6604000Y-11596000D01*
X6564000Y-11556000D02*
X6644000Y-11556000D01*
X6604500Y-9103000D02*
X6604500Y-9183000D01*
X6564500Y-9143000D02*
X6644500Y-9143000D01*
X6604500Y-9865000D02*
X6604500Y-9945000D01*
X6564500Y-9905000D02*
X6644500Y-9905000D01*
X6731000Y-8278500D02*
X6731000Y-8358500D01*
X6691000Y-8318500D02*
X6771000Y-8318500D01*
X6731000Y-8596000D02*
X6731000Y-8676000D01*
X6691000Y-8636000D02*
X6771000Y-8636000D01*
X6858000Y-6818000D02*
X6858000Y-6898000D01*
X6818000Y-6858000D02*
X6898000Y-6858000D01*
X6858000Y-7580000D02*
X6858000Y-7660000D01*
X6818000Y-7620000D02*
X6898000Y-7620000D01*
X6858000Y-10754000D02*
X6858000Y-10834000D01*
X6818000Y-10794000D02*
X6898000Y-10794000D01*
X6858000Y-11516000D02*
X6858000Y-11596000D01*
X6818000Y-11556000D02*
X6898000Y-11556000D01*
X6858500Y-9103000D02*
X6858500Y-9183000D01*
X6818500Y-9143000D02*
X6898500Y-9143000D01*
X6858500Y-9865000D02*
X6858500Y-9945000D01*
X6818500Y-9905000D02*
X6898500Y-9905000D01*
X7112000Y-6818000D02*
X7112000Y-6898000D01*
X7072000Y-6858000D02*
X7152000Y-6858000D01*
X7112000Y-7580000D02*
X7112000Y-7660000D01*
X7072000Y-7620000D02*
X7152000Y-7620000D01*
X7112000Y-10754000D02*
X7112000Y-10834000D01*
X7072000Y-10794000D02*
X7152000Y-10794000D01*
X7112000Y-11516000D02*
X7112000Y-11596000D01*
X7072000Y-11556000D02*
X7152000Y-11556000D01*
X7112500Y-9103000D02*
X7112500Y-9183000D01*
X7072500Y-9143000D02*
X7152500Y-9143000D01*
X7112500Y-9865000D02*
X7112500Y-9945000D01*
X7072500Y-9905000D02*
X7152500Y-9905000D01*
X7366000Y-6818000D02*
X7366000Y-6898000D01*
X7326000Y-6858000D02*
X7406000Y-6858000D01*
X7366000Y-7580000D02*
X7366000Y-7660000D01*
X7326000Y-7620000D02*
X7406000Y-7620000D01*
X7366000Y-10754000D02*
X7366000Y-10834000D01*
X7326000Y-10794000D02*
X7406000Y-10794000D01*
X7366000Y-11516000D02*
X7366000Y-11596000D01*
X7326000Y-11556000D02*
X7406000Y-11556000D01*
X7366500Y-9103000D02*
X7366500Y-9183000D01*
X7326500Y-9143000D02*
X7406500Y-9143000D01*
X7366500Y-9865000D02*
X7366500Y-9945000D01*
X7326500Y-9905000D02*
X7406500Y-9905000D01*
X7620000Y-6818000D02*
X7620000Y-6898000D01*
X7580000Y-6858000D02*
X7660000Y-6858000D01*
X7620000Y-7580000D02*
X7620000Y-7660000D01*
X7580000Y-7620000D02*
X7660000Y-7620000D01*
X7620000Y-10754000D02*
X7620000Y-10834000D01*
X7580000Y-10794000D02*
X7660000Y-10794000D01*
X7620000Y-11516000D02*
X7620000Y-11596000D01*
X7580000Y-11556000D02*
X7660000Y-11556000D01*
X7620500Y-9103000D02*
X7620500Y-9183000D01*
X7580500Y-9143000D02*
X7660500Y-9143000D01*
X7620500Y-9865000D02*
X7620500Y-9945000D01*
X7580500Y-9905000D02*
X7660500Y-9905000D01*
X7747000Y-8278500D02*
X7747000Y-8358500D01*
X7707000Y-8318500D02*
X7787000Y-8318500D01*
X7747000Y-8596000D02*
X7747000Y-8676000D01*
X7707000Y-8636000D02*
X7787000Y-8636000D01*
X7874000Y-6818000D02*
X7874000Y-6898000D01*
X7834000Y-6858000D02*
X7914000Y-6858000D01*
X7874000Y-7580000D02*
X7874000Y-7660000D01*
X7834000Y-7620000D02*
X7914000Y-7620000D01*
X7874000Y-10754000D02*
X7874000Y-10834000D01*
X7834000Y-10794000D02*
X7914000Y-10794000D01*
X7874000Y-11516000D02*
X7874000Y-11596000D01*
X7834000Y-11556000D02*
X7914000Y-11556000D01*
X7874500Y-9103000D02*
X7874500Y-9183000D01*
X7834500Y-9143000D02*
X7914500Y-9143000D01*
X7874500Y-9865000D02*
X7874500Y-9945000D01*
X7834500Y-9905000D02*
X7914500Y-9905000D01*
X8128000Y-6818000D02*
X8128000Y-6898000D01*
X8088000Y-6858000D02*
X8168000Y-6858000D01*
X8128000Y-7580000D02*
X8128000Y-7660000D01*
X8088000Y-7620000D02*
X8168000Y-7620000D01*
X8128000Y-10754000D02*
X8128000Y-10834000D01*
X8088000Y-10794000D02*
X8168000Y-10794000D01*
X8128000Y-11516000D02*
X8128000Y-11596000D01*
X8088000Y-11556000D02*
X8168000Y-11556000D01*
X8128500Y-9103000D02*
X8128500Y-9183000D01*
X8088500Y-9143000D02*
X8168500Y-9143000D01*
X8128500Y-9865000D02*
X8128500Y-9945000D01*
X8088500Y-9905000D02*
X8168500Y-9905000D01*
X8382000Y-6818000D02*
X8382000Y-6898000D01*
X8342000Y-6858000D02*
X8422000Y-6858000D01*
X8382000Y-7580000D02*
X8382000Y-7660000D01*
X8342000Y-7620000D02*
X8422000Y-7620000D01*
X8382000Y-10754000D02*
X8382000Y-10834000D01*
X8342000Y-10794000D02*
X8422000Y-10794000D01*
X8382000Y-11516000D02*
X8382000Y-11596000D01*
X8342000Y-11556000D02*
X8422000Y-11556000D01*
X8382500Y-9103000D02*
X8382500Y-9183000D01*
X8342500Y-9143000D02*
X8422500Y-9143000D01*
X8382500Y-9865000D02*
X8382500Y-9945000D01*
X8342500Y-9905000D02*
X8422500Y-9905000D01*
X8699500Y-7707000D02*
X8699500Y-7787000D01*
X8659500Y-7747000D02*
X8739500Y-7747000D01*
X8699500Y-8723000D02*
X8699500Y-8803000D01*
X8659500Y-8763000D02*
X8739500Y-8763000D01*
D10*
X5115356Y-6893356D02*
X5115356Y-6822644D01*
X5044644Y-6822644D01*
X5044644Y-6893356D01*
X5115356Y-6893356D01*
X5115356Y-7147356D02*
X5115356Y-7076644D01*
X5044644Y-7076644D01*
X5044644Y-7147356D01*
X5115356Y-7147356D01*
X5115356Y-7401356D02*
X5115356Y-7330644D01*
X5044644Y-7330644D01*
X5044644Y-7401356D01*
X5115356Y-7401356D01*
X5115356Y-7655356D02*
X5115356Y-7584644D01*
X5044644Y-7584644D01*
X5044644Y-7655356D01*
X5115356Y-7655356D01*
X5115356Y-7909356D02*
X5115356Y-7838644D01*
X5044644Y-7838644D01*
X5044644Y-7909356D01*
X5115356Y-7909356D01*
X5115356Y-8163356D02*
X5115356Y-8092644D01*
X5044644Y-8092644D01*
X5044644Y-8163356D01*
X5115356Y-8163356D01*
X5115356Y-8417356D02*
X5115356Y-8346644D01*
X5044644Y-8346644D01*
X5044644Y-8417356D01*
X5115356Y-8417356D01*
X5115356Y-8671356D02*
X5115356Y-8600644D01*
X5044644Y-8600644D01*
X5044644Y-8671356D01*
X5115356Y-8671356D01*
X5115356Y-8925356D02*
X5115356Y-8854644D01*
X5044644Y-8854644D01*
X5044644Y-8925356D01*
X5115356Y-8925356D01*
X5115356Y-9179356D02*
X5115356Y-9108644D01*
X5044644Y-9108644D01*
X5044644Y-9179356D01*
X5115356Y-9179356D01*
X5115356Y-9433356D02*
X5115356Y-9362644D01*
X5044644Y-9362644D01*
X5044644Y-9433356D01*
X5115356Y-9433356D01*
X5115356Y-9687356D02*
X5115356Y-9616644D01*
X5044644Y-9616644D01*
X5044644Y-9687356D01*
X5115356Y-9687356D01*
X5115356Y-9941356D02*
X5115356Y-9870644D01*
X5044644Y-9870644D01*
X5044644Y-9941356D01*
X5115356Y-9941356D01*
X5115356Y-10195356D02*
X5115356Y-10124644D01*
X5044644Y-10124644D01*
X5044644Y-10195356D01*
X5115356Y-10195356D01*
X5115356Y-10449356D02*
X5115356Y-10378644D01*
X5044644Y-10378644D01*
X5044644Y-10449356D01*
X5115356Y-10449356D01*
X5115356Y-10703356D02*
X5115356Y-10632644D01*
X5044644Y-10632644D01*
X5044644Y-10703356D01*
X5115356Y-10703356D01*
X5115356Y-10957356D02*
X5115356Y-10886644D01*
X5044644Y-10886644D01*
X5044644Y-10957356D01*
X5115356Y-10957356D01*
X5115356Y-11211356D02*
X5115356Y-11140644D01*
X5044644Y-11140644D01*
X5044644Y-11211356D01*
X5115356Y-11211356D01*
X5115356Y-11465356D02*
X5115356Y-11394644D01*
X5044644Y-11394644D01*
X5044644Y-11465356D01*
X5115356Y-11465356D01*
X5115356Y-11719356D02*
X5115356Y-11648644D01*
X5044644Y-11648644D01*
X5044644Y-11719356D01*
X5115356Y-11719356D01*
X5369356Y-6893356D02*
X5369356Y-6822644D01*
X5298644Y-6822644D01*
X5298644Y-6893356D01*
X5369356Y-6893356D01*
X5369356Y-7147356D02*
X5369356Y-7076644D01*
X5298644Y-7076644D01*
X5298644Y-7147356D01*
X5369356Y-7147356D01*
X5369356Y-7401356D02*
X5369356Y-7330644D01*
X5298644Y-7330644D01*
X5298644Y-7401356D01*
X5369356Y-7401356D01*
X5369356Y-7655356D02*
X5369356Y-7584644D01*
X5298644Y-7584644D01*
X5298644Y-7655356D01*
X5369356Y-7655356D01*
X5369356Y-7909356D02*
X5369356Y-7838644D01*
X5298644Y-7838644D01*
X5298644Y-7909356D01*
X5369356Y-7909356D01*
X5369356Y-8163356D02*
X5369356Y-8092644D01*
X5298644Y-8092644D01*
X5298644Y-8163356D01*
X5369356Y-8163356D01*
X5369356Y-8417356D02*
X5369356Y-8346644D01*
X5298644Y-8346644D01*
X5298644Y-8417356D01*
X5369356Y-8417356D01*
X5369356Y-8671356D02*
X5369356Y-8600644D01*
X5298644Y-8600644D01*
X5298644Y-8671356D01*
X5369356Y-8671356D01*
X5369356Y-8925356D02*
X5369356Y-8854644D01*
X5298644Y-8854644D01*
X5298644Y-8925356D01*
X5369356Y-8925356D01*
X5369356Y-9179356D02*
X5369356Y-9108644D01*
X5298644Y-9108644D01*
X5298644Y-9179356D01*
X5369356Y-9179356D01*
X5369356Y-9433356D02*
X5369356Y-9362644D01*
X5298644Y-9362644D01*
X5298644Y-9433356D01*
X5369356Y-9433356D01*
X5369356Y-9687356D02*
X5369356Y-9616644D01*
X5298644Y-9616644D01*
X5298644Y-9687356D01*
X5369356Y-9687356D01*
X5369356Y-9941356D02*
X5369356Y-9870644D01*
X5298644Y-9870644D01*
X5298644Y-9941356D01*
X5369356Y-9941356D01*
X5369356Y-10195356D02*
X5369356Y-10124644D01*
X5298644Y-10124644D01*
X5298644Y-10195356D01*
X5369356Y-10195356D01*
X5369356Y-10449356D02*
X5369356Y-10378644D01*
X5298644Y-10378644D01*
X5298644Y-10449356D01*
X5369356Y-10449356D01*
X5369356Y-10703356D02*
X5369356Y-10632644D01*
X5298644Y-10632644D01*
X5298644Y-10703356D01*
X5369356Y-10703356D01*
X5369356Y-10957356D02*
X5369356Y-10886644D01*
X5298644Y-10886644D01*
X5298644Y-10957356D01*
X5369356Y-10957356D01*
X5369356Y-11211356D02*
X5369356Y-11140644D01*
X5298644Y-11140644D01*
X5298644Y-11211356D01*
X5369356Y-11211356D01*
X5369356Y-11465356D02*
X5369356Y-11394644D01*
X5298644Y-11394644D01*
X5298644Y-11465356D01*
X5369356Y-11465356D01*
X5369356Y-11719356D02*
X5369356Y-11648644D01*
X5298644Y-11648644D01*
X5298644Y-11719356D01*
X5369356Y-11719356D01*
X8099356Y-8353856D02*
X8099356Y-8283144D01*
X8028644Y-8283144D01*
X8028644Y-8353856D01*
X8099356Y-8353856D01*
X8353356Y-8353856D02*
X8353356Y-8283144D01*
X8282644Y-8283144D01*
X8282644Y-8353856D01*
X8353356Y-8353856D01*
X8925356Y-6893356D02*
X8925356Y-6822644D01*
X8854644Y-6822644D01*
X8854644Y-6893356D01*
X8925356Y-6893356D01*
X9179356Y-6893356D02*
X9179356Y-6822644D01*
X9108644Y-6822644D01*
X9108644Y-6893356D01*
X9179356Y-6893356D01*
D11*
X4723019Y-12329676D02*
X4723019Y-12129676D01*
X4770638Y-12129676D01*
X4799210Y-12139200D01*
X4818257Y-12158248D01*
X4827781Y-12177295D01*
X4837305Y-12215390D01*
X4837305Y-12243962D01*
X4827781Y-12282057D01*
X4818257Y-12301105D01*
X4799210Y-12320152D01*
X4770638Y-12329676D01*
X4723019Y-12329676D01*
X4923019Y-12329676D02*
X4923019Y-12196343D01*
X4923019Y-12234438D02*
X4932543Y-12215390D01*
X4942067Y-12205867D01*
X4961114Y-12196343D01*
X4980162Y-12196343D01*
X5046829Y-12329676D02*
X5046829Y-12196343D01*
X5046829Y-12129676D02*
X5037305Y-12139200D01*
X5046829Y-12148724D01*
X5056352Y-12139200D01*
X5046829Y-12129676D01*
X5046829Y-12148724D01*
X5170638Y-12329676D02*
X5151590Y-12320152D01*
X5142067Y-12301105D01*
X5142067Y-12129676D01*
X5275400Y-12329676D02*
X5256352Y-12320152D01*
X5246829Y-12301105D01*
X5246829Y-12129676D01*
X5503971Y-12329676D02*
X5503971Y-12129676D01*
X5570638Y-12272533D01*
X5637305Y-12129676D01*
X5637305Y-12329676D01*
X5818257Y-12329676D02*
X5818257Y-12224914D01*
X5808733Y-12205867D01*
X5789686Y-12196343D01*
X5751590Y-12196343D01*
X5732543Y-12205867D01*
X5818257Y-12320152D02*
X5799209Y-12329676D01*
X5751590Y-12329676D01*
X5732543Y-12320152D01*
X5723019Y-12301105D01*
X5723019Y-12282057D01*
X5732543Y-12263009D01*
X5751590Y-12253486D01*
X5799209Y-12253486D01*
X5818257Y-12243962D01*
X5913495Y-12196343D02*
X5913495Y-12396343D01*
X5913495Y-12205867D02*
X5932543Y-12196343D01*
X5970638Y-12196343D01*
X5989686Y-12205867D01*
X5999209Y-12215390D01*
X6008733Y-12234438D01*
X6008733Y-12291581D01*
X5999209Y-12310628D01*
X5989686Y-12320152D01*
X5970638Y-12329676D01*
X5932543Y-12329676D01*
X5913495Y-12320152D01*
X6094448Y-12310628D02*
X6103971Y-12320152D01*
X6094448Y-12329676D01*
X6084924Y-12320152D01*
X6094448Y-12310628D01*
X6094448Y-12329676D01*
X6094448Y-12205867D02*
X6103971Y-12215390D01*
X6094448Y-12224914D01*
X6084924Y-12215390D01*
X6094448Y-12205867D01*
X6094448Y-12224914D01*
D12*
X4435400Y-12644200D02*
X4465400Y-12674200D01*
X4465400Y-12644200D02*
X4435400Y-12674200D01*
D11*
X4761114Y-12549676D02*
X4780162Y-12549676D01*
X4799210Y-12559200D01*
X4808733Y-12568724D01*
X4818257Y-12587771D01*
X4827781Y-12625867D01*
X4827781Y-12673486D01*
X4818257Y-12711581D01*
X4808733Y-12730628D01*
X4799210Y-12740152D01*
X4780162Y-12749676D01*
X4761114Y-12749676D01*
X4742067Y-12740152D01*
X4732543Y-12730628D01*
X4723019Y-12711581D01*
X4713495Y-12673486D01*
X4713495Y-12625867D01*
X4723019Y-12587771D01*
X4732543Y-12568724D01*
X4742067Y-12559200D01*
X4761114Y-12549676D01*
X4913495Y-12730628D02*
X4923019Y-12740152D01*
X4913495Y-12749676D01*
X4903971Y-12740152D01*
X4913495Y-12730628D01*
X4913495Y-12749676D01*
X4989686Y-12549676D02*
X5113495Y-12549676D01*
X5046829Y-12625867D01*
X5075400Y-12625867D01*
X5094448Y-12635390D01*
X5103971Y-12644914D01*
X5113495Y-12663962D01*
X5113495Y-12711581D01*
X5103971Y-12730628D01*
X5094448Y-12740152D01*
X5075400Y-12749676D01*
X5018257Y-12749676D01*
X4999210Y-12740152D01*
X4989686Y-12730628D01*
X5237305Y-12549676D02*
X5256352Y-12549676D01*
X5275400Y-12559200D01*
X5284924Y-12568724D01*
X5294448Y-12587771D01*
X5303971Y-12625867D01*
X5303971Y-12673486D01*
X5294448Y-12711581D01*
X5284924Y-12730628D01*
X5275400Y-12740152D01*
X5256352Y-12749676D01*
X5237305Y-12749676D01*
X5218257Y-12740152D01*
X5208733Y-12730628D01*
X5199210Y-12711581D01*
X5189686Y-12673486D01*
X5189686Y-12625867D01*
X5199210Y-12587771D01*
X5208733Y-12568724D01*
X5218257Y-12559200D01*
X5237305Y-12549676D01*
X5427781Y-12549676D02*
X5446829Y-12549676D01*
X5465876Y-12559200D01*
X5475400Y-12568724D01*
X5484924Y-12587771D01*
X5494448Y-12625867D01*
X5494448Y-12673486D01*
X5484924Y-12711581D01*
X5475400Y-12730628D01*
X5465876Y-12740152D01*
X5446829Y-12749676D01*
X5427781Y-12749676D01*
X5408733Y-12740152D01*
X5399210Y-12730628D01*
X5389686Y-12711581D01*
X5380162Y-12673486D01*
X5380162Y-12625867D01*
X5389686Y-12587771D01*
X5399210Y-12568724D01*
X5408733Y-12559200D01*
X5427781Y-12549676D01*
X5580162Y-12749676D02*
X5580162Y-12616343D01*
X5580162Y-12635390D02*
X5589686Y-12625867D01*
X5608733Y-12616343D01*
X5637305Y-12616343D01*
X5656352Y-12625867D01*
X5665876Y-12644914D01*
X5665876Y-12749676D01*
X5665876Y-12644914D02*
X5675400Y-12625867D01*
X5694448Y-12616343D01*
X5723019Y-12616343D01*
X5742067Y-12625867D01*
X5751590Y-12644914D01*
X5751590Y-12749676D01*
X5846828Y-12749676D02*
X5846828Y-12616343D01*
X5846828Y-12635390D02*
X5856352Y-12625867D01*
X5875400Y-12616343D01*
X5903971Y-12616343D01*
X5923019Y-12625867D01*
X5932543Y-12644914D01*
X5932543Y-12749676D01*
X5932543Y-12644914D02*
X5942067Y-12625867D01*
X5961114Y-12616343D01*
X5989686Y-12616343D01*
X6008733Y-12625867D01*
X6018257Y-12644914D01*
X6018257Y-12749676D01*
X6408733Y-12540152D02*
X6237305Y-12797295D01*
X6665876Y-12549676D02*
X6684924Y-12549676D01*
X6703971Y-12559200D01*
X6713495Y-12568724D01*
X6723019Y-12587771D01*
X6732543Y-12625867D01*
X6732543Y-12673486D01*
X6723019Y-12711581D01*
X6713495Y-12730628D01*
X6703971Y-12740152D01*
X6684924Y-12749676D01*
X6665876Y-12749676D01*
X6646828Y-12740152D01*
X6637305Y-12730628D01*
X6627781Y-12711581D01*
X6618257Y-12673486D01*
X6618257Y-12625867D01*
X6627781Y-12587771D01*
X6637305Y-12568724D01*
X6646828Y-12559200D01*
X6665876Y-12549676D01*
X6818257Y-12730628D02*
X6827781Y-12740152D01*
X6818257Y-12749676D01*
X6808733Y-12740152D01*
X6818257Y-12730628D01*
X6818257Y-12749676D01*
X6951590Y-12549676D02*
X6970638Y-12549676D01*
X6989686Y-12559200D01*
X6999209Y-12568724D01*
X7008733Y-12587771D01*
X7018257Y-12625867D01*
X7018257Y-12673486D01*
X7008733Y-12711581D01*
X6999209Y-12730628D01*
X6989686Y-12740152D01*
X6970638Y-12749676D01*
X6951590Y-12749676D01*
X6932543Y-12740152D01*
X6923019Y-12730628D01*
X6913495Y-12711581D01*
X6903971Y-12673486D01*
X6903971Y-12625867D01*
X6913495Y-12587771D01*
X6923019Y-12568724D01*
X6932543Y-12559200D01*
X6951590Y-12549676D01*
X7208733Y-12749676D02*
X7094448Y-12749676D01*
X7151590Y-12749676D02*
X7151590Y-12549676D01*
X7132543Y-12578248D01*
X7113495Y-12597295D01*
X7094448Y-12606819D01*
X7399209Y-12749676D02*
X7284924Y-12749676D01*
X7342067Y-12749676D02*
X7342067Y-12549676D01*
X7323019Y-12578248D01*
X7303971Y-12597295D01*
X7284924Y-12606819D01*
X7513495Y-12635390D02*
X7494448Y-12625867D01*
X7484924Y-12616343D01*
X7475400Y-12597295D01*
X7475400Y-12587771D01*
X7484924Y-12568724D01*
X7494448Y-12559200D01*
X7513495Y-12549676D01*
X7551590Y-12549676D01*
X7570638Y-12559200D01*
X7580162Y-12568724D01*
X7589686Y-12587771D01*
X7589686Y-12597295D01*
X7580162Y-12616343D01*
X7570638Y-12625867D01*
X7551590Y-12635390D01*
X7513495Y-12635390D01*
X7494448Y-12644914D01*
X7484924Y-12654438D01*
X7475400Y-12673486D01*
X7475400Y-12711581D01*
X7484924Y-12730628D01*
X7494448Y-12740152D01*
X7513495Y-12749676D01*
X7551590Y-12749676D01*
X7570638Y-12740152D01*
X7580162Y-12730628D01*
X7589686Y-12711581D01*
X7589686Y-12673486D01*
X7580162Y-12654438D01*
X7570638Y-12644914D01*
X7551590Y-12635390D01*
X7665876Y-12549676D02*
X7665876Y-12587771D01*
X7742067Y-12549676D02*
X7742067Y-12587771D01*
X8037305Y-12825867D02*
X8027781Y-12816343D01*
X8008733Y-12787771D01*
X7999209Y-12768724D01*
X7989686Y-12740152D01*
X7980162Y-12692533D01*
X7980162Y-12654438D01*
X7989686Y-12606819D01*
X7999209Y-12578248D01*
X8008733Y-12559200D01*
X8027781Y-12530628D01*
X8037305Y-12521105D01*
X8103971Y-12568724D02*
X8113495Y-12559200D01*
X8132543Y-12549676D01*
X8180162Y-12549676D01*
X8199209Y-12559200D01*
X8208733Y-12568724D01*
X8218257Y-12587771D01*
X8218257Y-12606819D01*
X8208733Y-12635390D01*
X8094448Y-12749676D01*
X8218257Y-12749676D01*
X8294448Y-12568724D02*
X8303971Y-12559200D01*
X8323019Y-12549676D01*
X8370638Y-12549676D01*
X8389686Y-12559200D01*
X8399210Y-12568724D01*
X8408733Y-12587771D01*
X8408733Y-12606819D01*
X8399210Y-12635390D01*
X8284924Y-12749676D01*
X8408733Y-12749676D01*
X8646829Y-12749676D02*
X8646829Y-12549676D01*
X8732543Y-12749676D02*
X8732543Y-12644914D01*
X8723019Y-12625867D01*
X8703971Y-12616343D01*
X8675400Y-12616343D01*
X8656352Y-12625867D01*
X8646829Y-12635390D01*
X8856352Y-12749676D02*
X8837305Y-12740152D01*
X8827781Y-12730628D01*
X8818257Y-12711581D01*
X8818257Y-12654438D01*
X8827781Y-12635390D01*
X8837305Y-12625867D01*
X8856352Y-12616343D01*
X8884924Y-12616343D01*
X8903971Y-12625867D01*
X8913495Y-12635390D01*
X8923019Y-12654438D01*
X8923019Y-12711581D01*
X8913495Y-12730628D01*
X8903971Y-12740152D01*
X8884924Y-12749676D01*
X8856352Y-12749676D01*
X9037305Y-12749676D02*
X9018257Y-12740152D01*
X9008733Y-12721105D01*
X9008733Y-12549676D01*
X9189686Y-12740152D02*
X9170638Y-12749676D01*
X9132543Y-12749676D01*
X9113495Y-12740152D01*
X9103971Y-12721105D01*
X9103971Y-12644914D01*
X9113495Y-12625867D01*
X9132543Y-12616343D01*
X9170638Y-12616343D01*
X9189686Y-12625867D01*
X9199210Y-12644914D01*
X9199210Y-12663962D01*
X9103971Y-12683009D01*
X9275400Y-12740152D02*
X9294448Y-12749676D01*
X9332543Y-12749676D01*
X9351590Y-12740152D01*
X9361114Y-12721105D01*
X9361114Y-12711581D01*
X9351590Y-12692533D01*
X9332543Y-12683009D01*
X9303971Y-12683009D01*
X9284924Y-12673486D01*
X9275400Y-12654438D01*
X9275400Y-12644914D01*
X9284924Y-12625867D01*
X9303971Y-12616343D01*
X9332543Y-12616343D01*
X9351590Y-12625867D01*
X9427781Y-12825867D02*
X9437305Y-12816343D01*
X9456352Y-12787771D01*
X9465876Y-12768724D01*
X9475400Y-12740152D01*
X9484924Y-12692533D01*
X9484924Y-12654438D01*
X9475400Y-12606819D01*
X9465876Y-12578248D01*
X9456352Y-12559200D01*
X9437305Y-12530628D01*
X9427781Y-12521105D01*
D13*
X4465400Y-12923200D02*
G75*
G03*
X4465400Y-12923200I-38100J0D01*
G01*
D11*
X4761114Y-12813676D02*
X4780162Y-12813676D01*
X4799210Y-12823200D01*
X4808733Y-12832724D01*
X4818257Y-12851771D01*
X4827781Y-12889867D01*
X4827781Y-12937486D01*
X4818257Y-12975581D01*
X4808733Y-12994628D01*
X4799210Y-13004152D01*
X4780162Y-13013676D01*
X4761114Y-13013676D01*
X4742067Y-13004152D01*
X4732543Y-12994628D01*
X4723019Y-12975581D01*
X4713495Y-12937486D01*
X4713495Y-12889867D01*
X4723019Y-12851771D01*
X4732543Y-12832724D01*
X4742067Y-12823200D01*
X4761114Y-12813676D01*
X4913495Y-12994628D02*
X4923019Y-13004152D01*
X4913495Y-13013676D01*
X4903971Y-13004152D01*
X4913495Y-12994628D01*
X4913495Y-13013676D01*
X4989686Y-12813676D02*
X5123019Y-12813676D01*
X5037305Y-13013676D01*
X5284924Y-12813676D02*
X5246829Y-12813676D01*
X5227781Y-12823200D01*
X5218257Y-12832724D01*
X5199210Y-12861295D01*
X5189686Y-12899390D01*
X5189686Y-12975581D01*
X5199210Y-12994628D01*
X5208733Y-13004152D01*
X5227781Y-13013676D01*
X5265876Y-13013676D01*
X5284924Y-13004152D01*
X5294448Y-12994628D01*
X5303971Y-12975581D01*
X5303971Y-12927962D01*
X5294448Y-12908914D01*
X5284924Y-12899390D01*
X5265876Y-12889867D01*
X5227781Y-12889867D01*
X5208733Y-12899390D01*
X5199210Y-12908914D01*
X5189686Y-12927962D01*
X5380162Y-12832724D02*
X5389686Y-12823200D01*
X5408733Y-12813676D01*
X5456352Y-12813676D01*
X5475400Y-12823200D01*
X5484924Y-12832724D01*
X5494448Y-12851771D01*
X5494448Y-12870819D01*
X5484924Y-12899390D01*
X5370638Y-13013676D01*
X5494448Y-13013676D01*
X5580162Y-13013676D02*
X5580162Y-12880343D01*
X5580162Y-12899390D02*
X5589686Y-12889867D01*
X5608733Y-12880343D01*
X5637305Y-12880343D01*
X5656352Y-12889867D01*
X5665876Y-12908914D01*
X5665876Y-13013676D01*
X5665876Y-12908914D02*
X5675400Y-12889867D01*
X5694448Y-12880343D01*
X5723019Y-12880343D01*
X5742067Y-12889867D01*
X5751590Y-12908914D01*
X5751590Y-13013676D01*
X5846828Y-13013676D02*
X5846828Y-12880343D01*
X5846828Y-12899390D02*
X5856352Y-12889867D01*
X5875400Y-12880343D01*
X5903971Y-12880343D01*
X5923019Y-12889867D01*
X5932543Y-12908914D01*
X5932543Y-13013676D01*
X5932543Y-12908914D02*
X5942067Y-12889867D01*
X5961114Y-12880343D01*
X5989686Y-12880343D01*
X6008733Y-12889867D01*
X6018257Y-12908914D01*
X6018257Y-13013676D01*
X6408733Y-12804152D02*
X6237305Y-13061295D01*
X6665876Y-12813676D02*
X6684924Y-12813676D01*
X6703971Y-12823200D01*
X6713495Y-12832724D01*
X6723019Y-12851771D01*
X6732543Y-12889867D01*
X6732543Y-12937486D01*
X6723019Y-12975581D01*
X6713495Y-12994628D01*
X6703971Y-13004152D01*
X6684924Y-13013676D01*
X6665876Y-13013676D01*
X6646828Y-13004152D01*
X6637305Y-12994628D01*
X6627781Y-12975581D01*
X6618257Y-12937486D01*
X6618257Y-12889867D01*
X6627781Y-12851771D01*
X6637305Y-12832724D01*
X6646828Y-12823200D01*
X6665876Y-12813676D01*
X6818257Y-12994628D02*
X6827781Y-13004152D01*
X6818257Y-13013676D01*
X6808733Y-13004152D01*
X6818257Y-12994628D01*
X6818257Y-13013676D01*
X6951590Y-12813676D02*
X6970638Y-12813676D01*
X6989686Y-12823200D01*
X6999209Y-12832724D01*
X7008733Y-12851771D01*
X7018257Y-12889867D01*
X7018257Y-12937486D01*
X7008733Y-12975581D01*
X6999209Y-12994628D01*
X6989686Y-13004152D01*
X6970638Y-13013676D01*
X6951590Y-13013676D01*
X6932543Y-13004152D01*
X6923019Y-12994628D01*
X6913495Y-12975581D01*
X6903971Y-12937486D01*
X6903971Y-12889867D01*
X6913495Y-12851771D01*
X6923019Y-12832724D01*
X6932543Y-12823200D01*
X6951590Y-12813676D01*
X7084924Y-12813676D02*
X7208733Y-12813676D01*
X7142067Y-12889867D01*
X7170638Y-12889867D01*
X7189686Y-12899390D01*
X7199209Y-12908914D01*
X7208733Y-12927962D01*
X7208733Y-12975581D01*
X7199209Y-12994628D01*
X7189686Y-13004152D01*
X7170638Y-13013676D01*
X7113495Y-13013676D01*
X7094448Y-13004152D01*
X7084924Y-12994628D01*
X7332543Y-12813676D02*
X7351590Y-12813676D01*
X7370638Y-12823200D01*
X7380162Y-12832724D01*
X7389686Y-12851771D01*
X7399209Y-12889867D01*
X7399209Y-12937486D01*
X7389686Y-12975581D01*
X7380162Y-12994628D01*
X7370638Y-13004152D01*
X7351590Y-13013676D01*
X7332543Y-13013676D01*
X7313495Y-13004152D01*
X7303971Y-12994628D01*
X7294448Y-12975581D01*
X7284924Y-12937486D01*
X7284924Y-12889867D01*
X7294448Y-12851771D01*
X7303971Y-12832724D01*
X7313495Y-12823200D01*
X7332543Y-12813676D01*
X7523019Y-12813676D02*
X7542067Y-12813676D01*
X7561114Y-12823200D01*
X7570638Y-12832724D01*
X7580162Y-12851771D01*
X7589686Y-12889867D01*
X7589686Y-12937486D01*
X7580162Y-12975581D01*
X7570638Y-12994628D01*
X7561114Y-13004152D01*
X7542067Y-13013676D01*
X7523019Y-13013676D01*
X7503971Y-13004152D01*
X7494448Y-12994628D01*
X7484924Y-12975581D01*
X7475400Y-12937486D01*
X7475400Y-12889867D01*
X7484924Y-12851771D01*
X7494448Y-12832724D01*
X7503971Y-12823200D01*
X7523019Y-12813676D01*
X7665876Y-12813676D02*
X7665876Y-12851771D01*
X7742067Y-12813676D02*
X7742067Y-12851771D01*
X8037305Y-13089867D02*
X8027781Y-13080343D01*
X8008733Y-13051771D01*
X7999209Y-13032724D01*
X7989686Y-13004152D01*
X7980162Y-12956533D01*
X7980162Y-12918438D01*
X7989686Y-12870819D01*
X7999209Y-12842248D01*
X8008733Y-12823200D01*
X8027781Y-12794628D01*
X8037305Y-12785105D01*
X8094448Y-12813676D02*
X8218257Y-12813676D01*
X8151590Y-12889867D01*
X8180162Y-12889867D01*
X8199209Y-12899390D01*
X8208733Y-12908914D01*
X8218257Y-12927962D01*
X8218257Y-12975581D01*
X8208733Y-12994628D01*
X8199209Y-13004152D01*
X8180162Y-13013676D01*
X8123019Y-13013676D01*
X8103971Y-13004152D01*
X8094448Y-12994628D01*
X8342067Y-12813676D02*
X8361114Y-12813676D01*
X8380162Y-12823200D01*
X8389686Y-12832724D01*
X8399210Y-12851771D01*
X8408733Y-12889867D01*
X8408733Y-12937486D01*
X8399210Y-12975581D01*
X8389686Y-12994628D01*
X8380162Y-13004152D01*
X8361114Y-13013676D01*
X8342067Y-13013676D01*
X8323019Y-13004152D01*
X8313495Y-12994628D01*
X8303971Y-12975581D01*
X8294448Y-12937486D01*
X8294448Y-12889867D01*
X8303971Y-12851771D01*
X8313495Y-12832724D01*
X8323019Y-12823200D01*
X8342067Y-12813676D01*
X8646829Y-13013676D02*
X8646829Y-12813676D01*
X8732543Y-13013676D02*
X8732543Y-12908914D01*
X8723019Y-12889867D01*
X8703971Y-12880343D01*
X8675400Y-12880343D01*
X8656352Y-12889867D01*
X8646829Y-12899390D01*
X8856352Y-13013676D02*
X8837305Y-13004152D01*
X8827781Y-12994628D01*
X8818257Y-12975581D01*
X8818257Y-12918438D01*
X8827781Y-12899390D01*
X8837305Y-12889867D01*
X8856352Y-12880343D01*
X8884924Y-12880343D01*
X8903971Y-12889867D01*
X8913495Y-12899390D01*
X8923019Y-12918438D01*
X8923019Y-12975581D01*
X8913495Y-12994628D01*
X8903971Y-13004152D01*
X8884924Y-13013676D01*
X8856352Y-13013676D01*
X9037305Y-13013676D02*
X9018257Y-13004152D01*
X9008733Y-12985105D01*
X9008733Y-12813676D01*
X9189686Y-13004152D02*
X9170638Y-13013676D01*
X9132543Y-13013676D01*
X9113495Y-13004152D01*
X9103971Y-12985105D01*
X9103971Y-12908914D01*
X9113495Y-12889867D01*
X9132543Y-12880343D01*
X9170638Y-12880343D01*
X9189686Y-12889867D01*
X9199210Y-12908914D01*
X9199210Y-12927962D01*
X9103971Y-12947009D01*
X9275400Y-13004152D02*
X9294448Y-13013676D01*
X9332543Y-13013676D01*
X9351590Y-13004152D01*
X9361114Y-12985105D01*
X9361114Y-12975581D01*
X9351590Y-12956533D01*
X9332543Y-12947009D01*
X9303971Y-12947009D01*
X9284924Y-12937486D01*
X9275400Y-12918438D01*
X9275400Y-12908914D01*
X9284924Y-12889867D01*
X9303971Y-12880343D01*
X9332543Y-12880343D01*
X9351590Y-12889867D01*
X9427781Y-13089867D02*
X9437305Y-13080343D01*
X9456352Y-13051771D01*
X9465876Y-13032724D01*
X9475400Y-13004152D01*
X9484924Y-12956533D01*
X9484924Y-12918438D01*
X9475400Y-12870819D01*
X9465876Y-12842248D01*
X9456352Y-12823200D01*
X9437305Y-12794628D01*
X9427781Y-12785105D01*
D14*
X4425400Y-13147200D02*
X4425400Y-13227200D01*
X4385400Y-13187200D02*
X4465400Y-13187200D01*
D11*
X4761114Y-13077676D02*
X4780162Y-13077676D01*
X4799210Y-13087200D01*
X4808733Y-13096724D01*
X4818257Y-13115771D01*
X4827781Y-13153867D01*
X4827781Y-13201486D01*
X4818257Y-13239581D01*
X4808733Y-13258628D01*
X4799210Y-13268152D01*
X4780162Y-13277676D01*
X4761114Y-13277676D01*
X4742067Y-13268152D01*
X4732543Y-13258628D01*
X4723019Y-13239581D01*
X4713495Y-13201486D01*
X4713495Y-13153867D01*
X4723019Y-13115771D01*
X4732543Y-13096724D01*
X4742067Y-13087200D01*
X4761114Y-13077676D01*
X4913495Y-13258628D02*
X4923019Y-13268152D01*
X4913495Y-13277676D01*
X4903971Y-13268152D01*
X4913495Y-13258628D01*
X4913495Y-13277676D01*
X5037305Y-13163390D02*
X5018257Y-13153867D01*
X5008733Y-13144343D01*
X4999210Y-13125295D01*
X4999210Y-13115771D01*
X5008733Y-13096724D01*
X5018257Y-13087200D01*
X5037305Y-13077676D01*
X5075400Y-13077676D01*
X5094448Y-13087200D01*
X5103971Y-13096724D01*
X5113495Y-13115771D01*
X5113495Y-13125295D01*
X5103971Y-13144343D01*
X5094448Y-13153867D01*
X5075400Y-13163390D01*
X5037305Y-13163390D01*
X5018257Y-13172914D01*
X5008733Y-13182438D01*
X4999210Y-13201486D01*
X4999210Y-13239581D01*
X5008733Y-13258628D01*
X5018257Y-13268152D01*
X5037305Y-13277676D01*
X5075400Y-13277676D01*
X5094448Y-13268152D01*
X5103971Y-13258628D01*
X5113495Y-13239581D01*
X5113495Y-13201486D01*
X5103971Y-13182438D01*
X5094448Y-13172914D01*
X5075400Y-13163390D01*
X5237305Y-13077676D02*
X5256352Y-13077676D01*
X5275400Y-13087200D01*
X5284924Y-13096724D01*
X5294448Y-13115771D01*
X5303971Y-13153867D01*
X5303971Y-13201486D01*
X5294448Y-13239581D01*
X5284924Y-13258628D01*
X5275400Y-13268152D01*
X5256352Y-13277676D01*
X5237305Y-13277676D01*
X5218257Y-13268152D01*
X5208733Y-13258628D01*
X5199210Y-13239581D01*
X5189686Y-13201486D01*
X5189686Y-13153867D01*
X5199210Y-13115771D01*
X5208733Y-13096724D01*
X5218257Y-13087200D01*
X5237305Y-13077676D01*
X5427781Y-13077676D02*
X5446829Y-13077676D01*
X5465876Y-13087200D01*
X5475400Y-13096724D01*
X5484924Y-13115771D01*
X5494448Y-13153867D01*
X5494448Y-13201486D01*
X5484924Y-13239581D01*
X5475400Y-13258628D01*
X5465876Y-13268152D01*
X5446829Y-13277676D01*
X5427781Y-13277676D01*
X5408733Y-13268152D01*
X5399210Y-13258628D01*
X5389686Y-13239581D01*
X5380162Y-13201486D01*
X5380162Y-13153867D01*
X5389686Y-13115771D01*
X5399210Y-13096724D01*
X5408733Y-13087200D01*
X5427781Y-13077676D01*
X5580162Y-13277676D02*
X5580162Y-13144343D01*
X5580162Y-13163390D02*
X5589686Y-13153867D01*
X5608733Y-13144343D01*
X5637305Y-13144343D01*
X5656352Y-13153867D01*
X5665876Y-13172914D01*
X5665876Y-13277676D01*
X5665876Y-13172914D02*
X5675400Y-13153867D01*
X5694448Y-13144343D01*
X5723019Y-13144343D01*
X5742067Y-13153867D01*
X5751590Y-13172914D01*
X5751590Y-13277676D01*
X5846828Y-13277676D02*
X5846828Y-13144343D01*
X5846828Y-13163390D02*
X5856352Y-13153867D01*
X5875400Y-13144343D01*
X5903971Y-13144343D01*
X5923019Y-13153867D01*
X5932543Y-13172914D01*
X5932543Y-13277676D01*
X5932543Y-13172914D02*
X5942067Y-13153867D01*
X5961114Y-13144343D01*
X5989686Y-13144343D01*
X6008733Y-13153867D01*
X6018257Y-13172914D01*
X6018257Y-13277676D01*
X6408733Y-13068152D02*
X6237305Y-13325295D01*
X6665876Y-13077676D02*
X6684924Y-13077676D01*
X6703971Y-13087200D01*
X6713495Y-13096724D01*
X6723019Y-13115771D01*
X6732543Y-13153867D01*
X6732543Y-13201486D01*
X6723019Y-13239581D01*
X6713495Y-13258628D01*
X6703971Y-13268152D01*
X6684924Y-13277676D01*
X6665876Y-13277676D01*
X6646828Y-13268152D01*
X6637305Y-13258628D01*
X6627781Y-13239581D01*
X6618257Y-13201486D01*
X6618257Y-13153867D01*
X6627781Y-13115771D01*
X6637305Y-13096724D01*
X6646828Y-13087200D01*
X6665876Y-13077676D01*
X6818257Y-13258628D02*
X6827781Y-13268152D01*
X6818257Y-13277676D01*
X6808733Y-13268152D01*
X6818257Y-13258628D01*
X6818257Y-13277676D01*
X6951590Y-13077676D02*
X6970638Y-13077676D01*
X6989686Y-13087200D01*
X6999209Y-13096724D01*
X7008733Y-13115771D01*
X7018257Y-13153867D01*
X7018257Y-13201486D01*
X7008733Y-13239581D01*
X6999209Y-13258628D01*
X6989686Y-13268152D01*
X6970638Y-13277676D01*
X6951590Y-13277676D01*
X6932543Y-13268152D01*
X6923019Y-13258628D01*
X6913495Y-13239581D01*
X6903971Y-13201486D01*
X6903971Y-13153867D01*
X6913495Y-13115771D01*
X6923019Y-13096724D01*
X6932543Y-13087200D01*
X6951590Y-13077676D01*
X7084924Y-13077676D02*
X7208733Y-13077676D01*
X7142067Y-13153867D01*
X7170638Y-13153867D01*
X7189686Y-13163390D01*
X7199209Y-13172914D01*
X7208733Y-13191962D01*
X7208733Y-13239581D01*
X7199209Y-13258628D01*
X7189686Y-13268152D01*
X7170638Y-13277676D01*
X7113495Y-13277676D01*
X7094448Y-13268152D01*
X7084924Y-13258628D01*
X7399209Y-13277676D02*
X7284924Y-13277676D01*
X7342067Y-13277676D02*
X7342067Y-13077676D01*
X7323019Y-13106248D01*
X7303971Y-13125295D01*
X7284924Y-13134819D01*
X7580162Y-13077676D02*
X7484924Y-13077676D01*
X7475400Y-13172914D01*
X7484924Y-13163390D01*
X7503971Y-13153867D01*
X7551590Y-13153867D01*
X7570638Y-13163390D01*
X7580162Y-13172914D01*
X7589686Y-13191962D01*
X7589686Y-13239581D01*
X7580162Y-13258628D01*
X7570638Y-13268152D01*
X7551590Y-13277676D01*
X7503971Y-13277676D01*
X7484924Y-13268152D01*
X7475400Y-13258628D01*
X7665876Y-13077676D02*
X7665876Y-13115771D01*
X7742067Y-13077676D02*
X7742067Y-13115771D01*
X8037305Y-13353867D02*
X8027781Y-13344343D01*
X8008733Y-13315771D01*
X7999209Y-13296724D01*
X7989686Y-13268152D01*
X7980162Y-13220533D01*
X7980162Y-13182438D01*
X7989686Y-13134819D01*
X7999209Y-13106248D01*
X8008733Y-13087200D01*
X8027781Y-13058628D01*
X8037305Y-13049105D01*
X8094448Y-13077676D02*
X8227781Y-13077676D01*
X8142067Y-13277676D01*
X8389686Y-13144343D02*
X8389686Y-13277676D01*
X8342067Y-13068152D02*
X8294448Y-13211009D01*
X8418257Y-13211009D01*
X8646829Y-13277676D02*
X8646829Y-13077676D01*
X8732543Y-13277676D02*
X8732543Y-13172914D01*
X8723019Y-13153867D01*
X8703971Y-13144343D01*
X8675400Y-13144343D01*
X8656352Y-13153867D01*
X8646829Y-13163390D01*
X8856352Y-13277676D02*
X8837305Y-13268152D01*
X8827781Y-13258628D01*
X8818257Y-13239581D01*
X8818257Y-13182438D01*
X8827781Y-13163390D01*
X8837305Y-13153867D01*
X8856352Y-13144343D01*
X8884924Y-13144343D01*
X8903971Y-13153867D01*
X8913495Y-13163390D01*
X8923019Y-13182438D01*
X8923019Y-13239581D01*
X8913495Y-13258628D01*
X8903971Y-13268152D01*
X8884924Y-13277676D01*
X8856352Y-13277676D01*
X9037305Y-13277676D02*
X9018257Y-13268152D01*
X9008733Y-13249105D01*
X9008733Y-13077676D01*
X9189686Y-13268152D02*
X9170638Y-13277676D01*
X9132543Y-13277676D01*
X9113495Y-13268152D01*
X9103971Y-13249105D01*
X9103971Y-13172914D01*
X9113495Y-13153867D01*
X9132543Y-13144343D01*
X9170638Y-13144343D01*
X9189686Y-13153867D01*
X9199210Y-13172914D01*
X9199210Y-13191962D01*
X9103971Y-13211009D01*
X9275400Y-13268152D02*
X9294448Y-13277676D01*
X9332543Y-13277676D01*
X9351590Y-13268152D01*
X9361114Y-13249105D01*
X9361114Y-13239581D01*
X9351590Y-13220533D01*
X9332543Y-13211009D01*
X9303971Y-13211009D01*
X9284924Y-13201486D01*
X9275400Y-13182438D01*
X9275400Y-13172914D01*
X9284924Y-13153867D01*
X9303971Y-13144343D01*
X9332543Y-13144343D01*
X9351590Y-13153867D01*
X9427781Y-13353867D02*
X9437305Y-13344343D01*
X9456352Y-13315771D01*
X9465876Y-13296724D01*
X9475400Y-13268152D01*
X9484924Y-13220533D01*
X9484924Y-13182438D01*
X9475400Y-13134819D01*
X9465876Y-13106248D01*
X9456352Y-13087200D01*
X9437305Y-13058628D01*
X9427781Y-13049105D01*
D10*
X4450756Y-13486556D02*
X4450756Y-13415844D01*
X4380044Y-13415844D01*
X4380044Y-13486556D01*
X4450756Y-13486556D01*
D11*
X4827781Y-13541676D02*
X4713495Y-13541676D01*
X4770638Y-13541676D02*
X4770638Y-13341676D01*
X4751590Y-13370248D01*
X4732543Y-13389295D01*
X4713495Y-13398819D01*
X4913495Y-13522628D02*
X4923019Y-13532152D01*
X4913495Y-13541676D01*
X4903971Y-13532152D01*
X4913495Y-13522628D01*
X4913495Y-13541676D01*
X5046829Y-13341676D02*
X5065876Y-13341676D01*
X5084924Y-13351200D01*
X5094448Y-13360724D01*
X5103971Y-13379771D01*
X5113495Y-13417867D01*
X5113495Y-13465486D01*
X5103971Y-13503581D01*
X5094448Y-13522628D01*
X5084924Y-13532152D01*
X5065876Y-13541676D01*
X5046829Y-13541676D01*
X5027781Y-13532152D01*
X5018257Y-13522628D01*
X5008733Y-13503581D01*
X4999210Y-13465486D01*
X4999210Y-13417867D01*
X5008733Y-13379771D01*
X5018257Y-13360724D01*
X5027781Y-13351200D01*
X5046829Y-13341676D01*
X5237305Y-13341676D02*
X5256352Y-13341676D01*
X5275400Y-13351200D01*
X5284924Y-13360724D01*
X5294448Y-13379771D01*
X5303971Y-13417867D01*
X5303971Y-13465486D01*
X5294448Y-13503581D01*
X5284924Y-13522628D01*
X5275400Y-13532152D01*
X5256352Y-13541676D01*
X5237305Y-13541676D01*
X5218257Y-13532152D01*
X5208733Y-13522628D01*
X5199210Y-13503581D01*
X5189686Y-13465486D01*
X5189686Y-13417867D01*
X5199210Y-13379771D01*
X5208733Y-13360724D01*
X5218257Y-13351200D01*
X5237305Y-13341676D01*
X5427781Y-13341676D02*
X5446829Y-13341676D01*
X5465876Y-13351200D01*
X5475400Y-13360724D01*
X5484924Y-13379771D01*
X5494448Y-13417867D01*
X5494448Y-13465486D01*
X5484924Y-13503581D01*
X5475400Y-13522628D01*
X5465876Y-13532152D01*
X5446829Y-13541676D01*
X5427781Y-13541676D01*
X5408733Y-13532152D01*
X5399210Y-13522628D01*
X5389686Y-13503581D01*
X5380162Y-13465486D01*
X5380162Y-13417867D01*
X5389686Y-13379771D01*
X5399210Y-13360724D01*
X5408733Y-13351200D01*
X5427781Y-13341676D01*
X5580162Y-13541676D02*
X5580162Y-13408343D01*
X5580162Y-13427390D02*
X5589686Y-13417867D01*
X5608733Y-13408343D01*
X5637305Y-13408343D01*
X5656352Y-13417867D01*
X5665876Y-13436914D01*
X5665876Y-13541676D01*
X5665876Y-13436914D02*
X5675400Y-13417867D01*
X5694448Y-13408343D01*
X5723019Y-13408343D01*
X5742067Y-13417867D01*
X5751590Y-13436914D01*
X5751590Y-13541676D01*
X5846828Y-13541676D02*
X5846828Y-13408343D01*
X5846828Y-13427390D02*
X5856352Y-13417867D01*
X5875400Y-13408343D01*
X5903971Y-13408343D01*
X5923019Y-13417867D01*
X5932543Y-13436914D01*
X5932543Y-13541676D01*
X5932543Y-13436914D02*
X5942067Y-13417867D01*
X5961114Y-13408343D01*
X5989686Y-13408343D01*
X6008733Y-13417867D01*
X6018257Y-13436914D01*
X6018257Y-13541676D01*
X6408733Y-13332152D02*
X6237305Y-13589295D01*
X6665876Y-13341676D02*
X6684924Y-13341676D01*
X6703971Y-13351200D01*
X6713495Y-13360724D01*
X6723019Y-13379771D01*
X6732543Y-13417867D01*
X6732543Y-13465486D01*
X6723019Y-13503581D01*
X6713495Y-13522628D01*
X6703971Y-13532152D01*
X6684924Y-13541676D01*
X6665876Y-13541676D01*
X6646828Y-13532152D01*
X6637305Y-13522628D01*
X6627781Y-13503581D01*
X6618257Y-13465486D01*
X6618257Y-13417867D01*
X6627781Y-13379771D01*
X6637305Y-13360724D01*
X6646828Y-13351200D01*
X6665876Y-13341676D01*
X6818257Y-13522628D02*
X6827781Y-13532152D01*
X6818257Y-13541676D01*
X6808733Y-13532152D01*
X6818257Y-13522628D01*
X6818257Y-13541676D01*
X6951590Y-13341676D02*
X6970638Y-13341676D01*
X6989686Y-13351200D01*
X6999209Y-13360724D01*
X7008733Y-13379771D01*
X7018257Y-13417867D01*
X7018257Y-13465486D01*
X7008733Y-13503581D01*
X6999209Y-13522628D01*
X6989686Y-13532152D01*
X6970638Y-13541676D01*
X6951590Y-13541676D01*
X6932543Y-13532152D01*
X6923019Y-13522628D01*
X6913495Y-13503581D01*
X6903971Y-13465486D01*
X6903971Y-13417867D01*
X6913495Y-13379771D01*
X6923019Y-13360724D01*
X6932543Y-13351200D01*
X6951590Y-13341676D01*
X7084924Y-13341676D02*
X7208733Y-13341676D01*
X7142067Y-13417867D01*
X7170638Y-13417867D01*
X7189686Y-13427390D01*
X7199209Y-13436914D01*
X7208733Y-13455962D01*
X7208733Y-13503581D01*
X7199209Y-13522628D01*
X7189686Y-13532152D01*
X7170638Y-13541676D01*
X7113495Y-13541676D01*
X7094448Y-13532152D01*
X7084924Y-13522628D01*
X7303971Y-13541676D02*
X7342067Y-13541676D01*
X7361114Y-13532152D01*
X7370638Y-13522628D01*
X7389686Y-13494057D01*
X7399209Y-13455962D01*
X7399209Y-13379771D01*
X7389686Y-13360724D01*
X7380162Y-13351200D01*
X7361114Y-13341676D01*
X7323019Y-13341676D01*
X7303971Y-13351200D01*
X7294448Y-13360724D01*
X7284924Y-13379771D01*
X7284924Y-13427390D01*
X7294448Y-13446438D01*
X7303971Y-13455962D01*
X7323019Y-13465486D01*
X7361114Y-13465486D01*
X7380162Y-13455962D01*
X7389686Y-13446438D01*
X7399209Y-13427390D01*
X7570638Y-13408343D02*
X7570638Y-13541676D01*
X7523019Y-13332152D02*
X7475400Y-13475009D01*
X7599209Y-13475009D01*
X7665876Y-13341676D02*
X7665876Y-13379771D01*
X7742067Y-13341676D02*
X7742067Y-13379771D01*
X8037305Y-13617867D02*
X8027781Y-13608343D01*
X8008733Y-13579771D01*
X7999209Y-13560724D01*
X7989686Y-13532152D01*
X7980162Y-13484533D01*
X7980162Y-13446438D01*
X7989686Y-13398819D01*
X7999209Y-13370248D01*
X8008733Y-13351200D01*
X8027781Y-13322628D01*
X8037305Y-13313105D01*
X8199209Y-13408343D02*
X8199209Y-13541676D01*
X8151590Y-13332152D02*
X8103971Y-13475009D01*
X8227781Y-13475009D01*
X8389686Y-13408343D02*
X8389686Y-13541676D01*
X8342067Y-13332152D02*
X8294448Y-13475009D01*
X8418257Y-13475009D01*
X8646829Y-13541676D02*
X8646829Y-13341676D01*
X8732543Y-13541676D02*
X8732543Y-13436914D01*
X8723019Y-13417867D01*
X8703971Y-13408343D01*
X8675400Y-13408343D01*
X8656352Y-13417867D01*
X8646829Y-13427390D01*
X8856352Y-13541676D02*
X8837305Y-13532152D01*
X8827781Y-13522628D01*
X8818257Y-13503581D01*
X8818257Y-13446438D01*
X8827781Y-13427390D01*
X8837305Y-13417867D01*
X8856352Y-13408343D01*
X8884924Y-13408343D01*
X8903971Y-13417867D01*
X8913495Y-13427390D01*
X8923019Y-13446438D01*
X8923019Y-13503581D01*
X8913495Y-13522628D01*
X8903971Y-13532152D01*
X8884924Y-13541676D01*
X8856352Y-13541676D01*
X9037305Y-13541676D02*
X9018257Y-13532152D01*
X9008733Y-13513105D01*
X9008733Y-13341676D01*
X9189686Y-13532152D02*
X9170638Y-13541676D01*
X9132543Y-13541676D01*
X9113495Y-13532152D01*
X9103971Y-13513105D01*
X9103971Y-13436914D01*
X9113495Y-13417867D01*
X9132543Y-13408343D01*
X9170638Y-13408343D01*
X9189686Y-13417867D01*
X9199210Y-13436914D01*
X9199210Y-13455962D01*
X9103971Y-13475009D01*
X9275400Y-13532152D02*
X9294448Y-13541676D01*
X9332543Y-13541676D01*
X9351590Y-13532152D01*
X9361114Y-13513105D01*
X9361114Y-13503581D01*
X9351590Y-13484533D01*
X9332543Y-13475009D01*
X9303971Y-13475009D01*
X9284924Y-13465486D01*
X9275400Y-13446438D01*
X9275400Y-13436914D01*
X9284924Y-13417867D01*
X9303971Y-13408343D01*
X9332543Y-13408343D01*
X9351590Y-13417867D01*
X9427781Y-13617867D02*
X9437305Y-13608343D01*
X9456352Y-13579771D01*
X9465876Y-13560724D01*
X9475400Y-13532152D01*
X9484924Y-13484533D01*
X9484924Y-13446438D01*
X9475400Y-13398819D01*
X9465876Y-13370248D01*
X9456352Y-13351200D01*
X9437305Y-13322628D01*
X9427781Y-13313105D01*
M02*
