M48
; DRILL file {KiCad (6.0.8-1)-1} date Thursday, November 03, 2022 at 10:20:14 PM
; FORMAT={-:-/ absolute / metric / decimal}
; #@! TF.CreationDate,2022-11-03T22:20:14+08:00
; #@! TF.GenerationSoftware,Kicad,Pcbnew,(6.0.8-1)-1
; #@! TF.FileFunction,Plated,1,2,PTH
FMAT,2
METRIC
; #@! TA.AperFunction,Plated,PTH,ViaDrill
T1C0.300
; #@! TA.AperFunction,Plated,PTH,ComponentDrill
T2C0.800
; #@! TA.AperFunction,Plated,PTH,ComponentDrill
T3C1.000
; #@! TA.AperFunction,Plated,PTH,ComponentDrill
T4C1.020
; #@! TA.AperFunction,Plated,PTH,ComponentDrill
T5C1.100
%
G90
G05
T1
X57.404Y-88.392
X67.31Y-73.025
X67.31Y-97.155
X86.995Y-95.25
X86.995Y-96.15
X86.995Y-97.155
X86.995Y-100.965
X93.98Y-74.93
X93.98Y-95.25
X93.98Y-97.79
X93.98Y-100.33
X93.98Y-102.87
X94.05Y-80.08
T2
X57.8Y-68.58
X57.8Y-71.08
X59.095Y-105.156
X60.96Y-68.58
X60.96Y-76.2
X60.96Y-85.725
X60.96Y-88.225
X60.96Y-107.94
X60.96Y-115.56
X60.965Y-91.43
X60.965Y-99.05
X61.595Y-105.156
X63.5Y-68.58
X63.5Y-76.2
X63.5Y-107.94
X63.5Y-115.56
X63.505Y-91.43
X63.505Y-99.05
X64.135Y-85.725
X64.135Y-88.225
X66.04Y-68.58
X66.04Y-76.2
X66.04Y-107.94
X66.04Y-115.56
X66.045Y-91.43
X66.045Y-99.05
X68.58Y-68.58
X68.58Y-76.2
X68.58Y-107.94
X68.58Y-115.56
X68.585Y-91.43
X68.585Y-99.05
X71.12Y-68.58
X71.12Y-76.2
X71.12Y-107.94
X71.12Y-115.56
X71.125Y-91.43
X71.125Y-99.05
X73.66Y-68.58
X73.66Y-76.2
X73.66Y-86.995
X73.66Y-107.94
X73.66Y-115.56
X73.665Y-91.43
X73.665Y-99.05
X76.2Y-68.58
X76.2Y-76.2
X76.2Y-107.94
X76.2Y-115.56
X76.205Y-91.43
X76.205Y-99.05
X78.74Y-68.58
X78.74Y-76.2
X78.74Y-107.94
X78.74Y-115.56
X78.745Y-91.43
X78.745Y-99.05
X81.28Y-68.58
X81.28Y-76.2
X81.28Y-107.94
X81.28Y-115.56
X81.285Y-91.43
X81.285Y-99.05
X83.82Y-68.58
X83.82Y-76.2
X83.82Y-86.995
X83.82Y-107.94
X83.82Y-115.56
X83.825Y-91.43
X83.825Y-99.05
T3
X50.8Y-68.58
X50.8Y-71.12
X50.8Y-73.66
X50.8Y-76.2
X50.8Y-78.74
X50.8Y-81.28
X50.8Y-83.82
X50.8Y-86.36
X50.8Y-88.9
X50.8Y-91.44
X50.8Y-93.98
X50.8Y-96.52
X50.8Y-99.06
X50.8Y-101.6
X50.8Y-104.14
X50.8Y-106.68
X50.8Y-109.22
X50.8Y-111.76
X50.8Y-114.3
X50.8Y-116.84
X53.34Y-68.58
X53.34Y-71.12
X53.34Y-73.66
X53.34Y-76.2
X53.34Y-78.74
X53.34Y-81.28
X53.34Y-83.82
X53.34Y-86.36
X53.34Y-88.9
X53.34Y-91.44
X53.34Y-93.98
X53.34Y-96.52
X53.34Y-99.06
X53.34Y-101.6
X53.34Y-104.14
X53.34Y-106.68
X53.34Y-109.22
X53.34Y-111.76
X53.34Y-114.3
X53.34Y-116.84
T4
X92.075Y-68.58
X92.075Y-71.12
X92.075Y-73.66
X92.075Y-76.2
X92.075Y-78.74
X92.075Y-81.28
X92.075Y-83.82
X92.075Y-86.36
X92.075Y-88.9
X92.075Y-91.44
X92.075Y-93.98
X92.075Y-96.52
X92.075Y-99.06
X92.075Y-101.6
X92.075Y-104.14
X92.075Y-106.68
X92.075Y-109.22
X92.075Y-111.76
X92.075Y-114.3
X92.075Y-116.84
X101.549Y-98.31
X104.089Y-98.31
X106.629Y-98.31
X109.855Y-68.58
X109.855Y-71.12
X109.855Y-73.66
X109.855Y-76.2
X109.855Y-78.74
X109.855Y-81.28
X109.855Y-83.82
X109.855Y-86.36
X109.855Y-88.9
X109.855Y-91.44
X109.855Y-93.98
X109.855Y-96.52
X109.855Y-99.06
X109.855Y-101.6
X109.855Y-104.14
X109.855Y-106.68
X109.855Y-109.22
X109.855Y-111.76
X109.855Y-114.3
X109.855Y-116.84
T5
X73.66Y-83.185
X83.82Y-83.185
T0
M30
