%TF.GenerationSoftware,KiCad,Pcbnew,(6.0.8-1)-1*%
%TF.CreationDate,2022-11-03T22:23:08+08:00*%
%TF.ProjectId,PCB,5043422e-6b69-4636-9164-5f7063625858,rev?*%
%TF.SameCoordinates,Original*%
%TF.FileFunction,Copper,L1,Top*%
%TF.FilePolarity,Positive*%
%FSLAX46Y46*%
G04 Gerber Fmt 4.6, Leading zero omitted, Abs format (unit mm)*
G04 Created by KiCad (PCBNEW (6.0.8-1)-1) date 2022-11-03 22:23:08*
%MOMM*%
%LPD*%
G01*
G04 APERTURE LIST*
%TA.AperFunction,ComponentPad*%
%ADD10R,2.200000X2.200000*%
%TD*%
%TA.AperFunction,ComponentPad*%
%ADD11O,2.200000X2.200000*%
%TD*%
%TA.AperFunction,SMDPad,CuDef*%
%ADD12R,3.500000X1.700000*%
%TD*%
%TA.AperFunction,ComponentPad*%
%ADD13O,1.700000X1.700000*%
%TD*%
%TA.AperFunction,ComponentPad*%
%ADD14R,1.700000X1.700000*%
%TD*%
%TA.AperFunction,ComponentPad*%
%ADD15R,1.600000X1.600000*%
%TD*%
%TA.AperFunction,ComponentPad*%
%ADD16O,1.600000X1.600000*%
%TD*%
%TA.AperFunction,ComponentPad*%
%ADD17C,1.600000*%
%TD*%
%TA.AperFunction,ViaPad*%
%ADD18C,0.700000*%
%TD*%
%TA.AperFunction,Conductor*%
%ADD19C,0.500000*%
%TD*%
%TA.AperFunction,Conductor*%
%ADD20C,0.300000*%
%TD*%
%TA.AperFunction,Conductor*%
%ADD21C,0.250000*%
%TD*%
G04 APERTURE END LIST*
D10*
X83820000Y-83185000D03*
D11*
X73660000Y-83185000D03*
D12*
X91175000Y-68580000D03*
D13*
X92075000Y-68580000D03*
X92075000Y-71120000D03*
D12*
X91175000Y-71120000D03*
X91175000Y-73660000D03*
D14*
X92075000Y-73660000D03*
D13*
X92075000Y-76200000D03*
D12*
X91175000Y-76200000D03*
D13*
X92075000Y-78740000D03*
D12*
X91175000Y-78740000D03*
X91175000Y-81280000D03*
D13*
X92075000Y-81280000D03*
X92075000Y-83820000D03*
D12*
X91175000Y-83820000D03*
D14*
X92075000Y-86360000D03*
D12*
X91175000Y-86360000D03*
X91175000Y-88900000D03*
D13*
X92075000Y-88900000D03*
D12*
X91175000Y-91440000D03*
D13*
X92075000Y-91440000D03*
D12*
X91175000Y-93980000D03*
D13*
X92075000Y-93980000D03*
D12*
X91175000Y-96520000D03*
D13*
X92075000Y-96520000D03*
D12*
X91175000Y-99060000D03*
D14*
X92075000Y-99060000D03*
D12*
X91175000Y-101600000D03*
D13*
X92075000Y-101600000D03*
X92075000Y-104140000D03*
D12*
X91175000Y-104140000D03*
D13*
X92075000Y-106680000D03*
D12*
X91175000Y-106680000D03*
X91175000Y-109220000D03*
D13*
X92075000Y-109220000D03*
D12*
X91175000Y-111760000D03*
D14*
X92075000Y-111760000D03*
D12*
X91175000Y-114300000D03*
D13*
X92075000Y-114300000D03*
D12*
X91175000Y-116840000D03*
D13*
X92075000Y-116840000D03*
D12*
X110755000Y-116840000D03*
D13*
X109855000Y-116840000D03*
D12*
X110755000Y-114300000D03*
D13*
X109855000Y-114300000D03*
D12*
X110755000Y-111760000D03*
D14*
X109855000Y-111760000D03*
D13*
X109855000Y-109220000D03*
D12*
X110755000Y-109220000D03*
D13*
X109855000Y-106680000D03*
D12*
X110755000Y-106680000D03*
D13*
X109855000Y-104140000D03*
D12*
X110755000Y-104140000D03*
X110755000Y-101600000D03*
D13*
X109855000Y-101600000D03*
D14*
X109855000Y-99060000D03*
D12*
X110755000Y-99060000D03*
X110755000Y-96520000D03*
D13*
X109855000Y-96520000D03*
D12*
X110755000Y-93980000D03*
D13*
X109855000Y-93980000D03*
X109855000Y-91440000D03*
D12*
X110755000Y-91440000D03*
D13*
X109855000Y-88900000D03*
D12*
X110755000Y-88900000D03*
D14*
X109855000Y-86360000D03*
D12*
X110755000Y-86360000D03*
X110755000Y-83820000D03*
D13*
X109855000Y-83820000D03*
D12*
X110755000Y-81280000D03*
D13*
X109855000Y-81280000D03*
X109855000Y-78740000D03*
D12*
X110755000Y-78740000D03*
X110755000Y-76200000D03*
D13*
X109855000Y-76200000D03*
D14*
X109855000Y-73660000D03*
D12*
X110755000Y-73660000D03*
X110755000Y-71120000D03*
D13*
X109855000Y-71120000D03*
D12*
X110755000Y-68580000D03*
D13*
X109855000Y-68580000D03*
X101549100Y-98310000D03*
D14*
X104089100Y-98310000D03*
D13*
X106629100Y-98310000D03*
D15*
X60960000Y-115560000D03*
D16*
X63500000Y-115560000D03*
X66040000Y-115560000D03*
X68580000Y-115560000D03*
X71120000Y-115560000D03*
X73660000Y-115560000D03*
X76200000Y-115560000D03*
X78740000Y-115560000D03*
X81280000Y-115560000D03*
X83820000Y-115560000D03*
X83820000Y-107940000D03*
X81280000Y-107940000D03*
X78740000Y-107940000D03*
X76200000Y-107940000D03*
X73660000Y-107940000D03*
X71120000Y-107940000D03*
X68580000Y-107940000D03*
X66040000Y-107940000D03*
X63500000Y-107940000D03*
X60960000Y-107940000D03*
D15*
X60960000Y-76200000D03*
D16*
X63500000Y-76200000D03*
X66040000Y-76200000D03*
X68580000Y-76200000D03*
X71120000Y-76200000D03*
X73660000Y-76200000D03*
X76200000Y-76200000D03*
X78740000Y-76200000D03*
X81280000Y-76200000D03*
X83820000Y-76200000D03*
X83820000Y-68580000D03*
X81280000Y-68580000D03*
X78740000Y-68580000D03*
X76200000Y-68580000D03*
X73660000Y-68580000D03*
X71120000Y-68580000D03*
X68580000Y-68580000D03*
X66040000Y-68580000D03*
X63500000Y-68580000D03*
X60960000Y-68580000D03*
D17*
X57800000Y-68580000D03*
X57800000Y-71080000D03*
X60960000Y-88225000D03*
X60960000Y-85725000D03*
X59095000Y-105156000D03*
X61595000Y-105156000D03*
X83820000Y-86995000D03*
D16*
X73660000Y-86995000D03*
D15*
X60965000Y-99050000D03*
D16*
X63505000Y-99050000D03*
X66045000Y-99050000D03*
X68585000Y-99050000D03*
X71125000Y-99050000D03*
X73665000Y-99050000D03*
X76205000Y-99050000D03*
X78745000Y-99050000D03*
X81285000Y-99050000D03*
X83825000Y-99050000D03*
X83825000Y-91430000D03*
X81285000Y-91430000D03*
X78745000Y-91430000D03*
X76205000Y-91430000D03*
X73665000Y-91430000D03*
X71125000Y-91430000D03*
X68585000Y-91430000D03*
X66045000Y-91430000D03*
X63505000Y-91430000D03*
X60965000Y-91430000D03*
D17*
X64135000Y-88225000D03*
X64135000Y-85725000D03*
D14*
X53340000Y-116840000D03*
D13*
X50800000Y-116840000D03*
X53340000Y-114300000D03*
X50800000Y-114300000D03*
X53340000Y-111760000D03*
X50800000Y-111760000D03*
X53340000Y-109220000D03*
X50800000Y-109220000D03*
X53340000Y-106680000D03*
X50800000Y-106680000D03*
X53340000Y-104140000D03*
X50800000Y-104140000D03*
X53340000Y-101600000D03*
X50800000Y-101600000D03*
X53340000Y-99060000D03*
X50800000Y-99060000D03*
X53340000Y-96520000D03*
X50800000Y-96520000D03*
X53340000Y-93980000D03*
X50800000Y-93980000D03*
X53340000Y-91440000D03*
X50800000Y-91440000D03*
X53340000Y-88900000D03*
X50800000Y-88900000D03*
X53340000Y-86360000D03*
X50800000Y-86360000D03*
X53340000Y-83820000D03*
X50800000Y-83820000D03*
X53340000Y-81280000D03*
X50800000Y-81280000D03*
X53340000Y-78740000D03*
X50800000Y-78740000D03*
X53340000Y-76200000D03*
X50800000Y-76200000D03*
X53340000Y-73660000D03*
X50800000Y-73660000D03*
X53340000Y-71120000D03*
X50800000Y-71120000D03*
X53340000Y-68580000D03*
X50800000Y-68580000D03*
D18*
X93980000Y-100330000D03*
X86995000Y-97155000D03*
X86995000Y-96149503D03*
X93980000Y-97790000D03*
X86995000Y-100965000D03*
X93980000Y-102870000D03*
X57404000Y-88392000D03*
X94050000Y-80080000D03*
X67310000Y-73025000D03*
X67310000Y-97155000D03*
X93980000Y-95250000D03*
X86995000Y-95250000D03*
X93980000Y-74930000D03*
D19*
X64135000Y-88225000D02*
X68620000Y-88225000D01*
X68620000Y-88225000D02*
X73660000Y-83185000D01*
D20*
X103640000Y-108720000D02*
X108085000Y-108720000D01*
X78745000Y-92561370D02*
X83338630Y-97155000D01*
X93980000Y-100330000D02*
X95250000Y-100330000D01*
X95250000Y-100330000D02*
X103640000Y-108720000D01*
X108585000Y-109220000D02*
X108585000Y-113030000D01*
X83338630Y-97155000D02*
X86995000Y-97155000D01*
X108585000Y-113030000D02*
X109855000Y-114300000D01*
X108085000Y-108720000D02*
X108585000Y-109220000D01*
X78745000Y-91430000D02*
X78745000Y-92561370D01*
X76205000Y-91430000D02*
X77355000Y-90280000D01*
X108585000Y-107950000D02*
X109855000Y-109220000D01*
X77355000Y-90280000D02*
X79485000Y-90280000D01*
X80010000Y-92075000D02*
X84084503Y-96149503D01*
X93980000Y-97790000D02*
X104140000Y-107950000D01*
X84084503Y-96149503D02*
X86995000Y-96149503D01*
X104140000Y-107950000D02*
X108585000Y-107950000D01*
X80010000Y-90805000D02*
X80010000Y-92075000D01*
X79485000Y-90280000D02*
X80010000Y-90805000D01*
X88265000Y-116205000D02*
X88900000Y-116840000D01*
X83820000Y-110245000D02*
X88265000Y-114690000D01*
X88265000Y-114690000D02*
X88265000Y-116205000D01*
X83820000Y-107940000D02*
X83820000Y-110245000D01*
X88900000Y-116840000D02*
X92075000Y-116840000D01*
X79890000Y-97655000D02*
X84056346Y-97655000D01*
X93980000Y-102870000D02*
X100330000Y-109220000D01*
X108085000Y-109427106D02*
X108085000Y-115070000D01*
X108085000Y-115070000D02*
X109855000Y-116840000D01*
X100330000Y-109220000D02*
X107877894Y-109220000D01*
X73665000Y-91430000D02*
X79890000Y-97655000D01*
X86995000Y-100593654D02*
X86995000Y-100965000D01*
X107877894Y-109220000D02*
X108085000Y-109427106D01*
X84056346Y-97655000D02*
X86995000Y-100593654D01*
X80500000Y-106180000D02*
X84662106Y-106180000D01*
X84662106Y-106180000D02*
X87702107Y-109220000D01*
X78740000Y-107940000D02*
X80500000Y-106180000D01*
X87702107Y-109220000D02*
X92075000Y-109220000D01*
X85883553Y-108108553D02*
X85883553Y-111601447D01*
X85883553Y-111601447D02*
X88582106Y-114300000D01*
X84455000Y-106680000D02*
X85883553Y-108108553D01*
X88582106Y-114300000D02*
X92075000Y-114300000D01*
X82540000Y-106680000D02*
X84455000Y-106680000D01*
X82540000Y-106680000D02*
X81280000Y-107940000D01*
X71120000Y-107940000D02*
X74380000Y-104680000D01*
X85820000Y-104680000D02*
X88900000Y-101600000D01*
X88900000Y-101600000D02*
X92075000Y-101600000D01*
X74380000Y-104680000D02*
X85820000Y-104680000D01*
X87225000Y-105180000D02*
X88265000Y-104140000D01*
X73660000Y-107940000D02*
X76420000Y-105180000D01*
X76420000Y-105180000D02*
X87225000Y-105180000D01*
X88265000Y-104140000D02*
X92075000Y-104140000D01*
X84869213Y-105680000D02*
X85869213Y-106680000D01*
X85869213Y-106680000D02*
X92075000Y-106680000D01*
X76200000Y-107940000D02*
X78460000Y-105680000D01*
X78460000Y-105680000D02*
X84869213Y-105680000D01*
X87630000Y-69850000D02*
X88900000Y-71120000D01*
X88900000Y-71120000D02*
X92075000Y-71120000D01*
X82550000Y-69850000D02*
X87630000Y-69850000D01*
X81280000Y-68580000D02*
X82550000Y-69850000D01*
X83820000Y-68580000D02*
X92075000Y-68580000D01*
D19*
X60960000Y-88225000D02*
X64135000Y-88225000D01*
X60793000Y-88392000D02*
X60960000Y-88225000D01*
X57404000Y-88392000D02*
X60793000Y-88392000D01*
X60960000Y-88225000D02*
X60960000Y-91425000D01*
X60960000Y-91425000D02*
X60965000Y-91430000D01*
X50800000Y-116840000D02*
X53340000Y-116840000D01*
X60960000Y-74168000D02*
X60960000Y-68580000D01*
X95390000Y-78740000D02*
X94050000Y-80080000D01*
X60960000Y-74168000D02*
X60960000Y-76200000D01*
X59095000Y-106075000D02*
X60960000Y-107940000D01*
X109855000Y-78740000D02*
X95390000Y-78740000D01*
X59095000Y-105156000D02*
X59095000Y-106075000D01*
X57912000Y-68580000D02*
X60960000Y-68580000D01*
D20*
X88900000Y-71827106D02*
X88900000Y-74930000D01*
X80510000Y-70350000D02*
X87422894Y-70350000D01*
X90170000Y-76200000D02*
X92075000Y-76200000D01*
X87422894Y-70350000D02*
X88900000Y-71827106D01*
X88900000Y-74930000D02*
X90170000Y-76200000D01*
X78740000Y-68580000D02*
X80510000Y-70350000D01*
X104635000Y-104140000D02*
X109855000Y-104140000D01*
X83825000Y-91430000D02*
X79390000Y-86995000D01*
X67310000Y-73025000D02*
X67310000Y-72390000D01*
X67310000Y-72390000D02*
X63500000Y-68580000D01*
X72515000Y-91950000D02*
X72515000Y-88140000D01*
X85035000Y-92640000D02*
X93135000Y-92640000D01*
X85035000Y-92640000D02*
X83825000Y-91430000D01*
X72515000Y-88140000D02*
X73660000Y-86995000D01*
X93135000Y-92640000D02*
X104635000Y-104140000D01*
X67310000Y-97155000D02*
X72515000Y-91950000D01*
X79390000Y-86995000D02*
X73660000Y-86995000D01*
X88400000Y-77605000D02*
X89535000Y-78740000D01*
X88400000Y-72034212D02*
X88400000Y-77605000D01*
X76200000Y-68580000D02*
X78470000Y-70850000D01*
X78470000Y-70850000D02*
X87215788Y-70850000D01*
X87215788Y-70850000D02*
X88400000Y-72034212D01*
X87008682Y-71350000D02*
X87900000Y-72241318D01*
X73660000Y-68580000D02*
X76430000Y-71350000D01*
X76430000Y-71350000D02*
X87008682Y-71350000D01*
X87900000Y-72241318D02*
X87900000Y-79645000D01*
X87900000Y-79645000D02*
X89535000Y-81280000D01*
X85105000Y-95250000D02*
X86995000Y-95250000D01*
X103577106Y-106680000D02*
X109855000Y-106680000D01*
X93980000Y-95250000D02*
X95286053Y-96556053D01*
X95286053Y-98388947D02*
X103577106Y-106680000D01*
X81285000Y-91430000D02*
X85105000Y-95250000D01*
X95286053Y-96556053D02*
X95286053Y-98388947D01*
X87400000Y-81685000D02*
X89535000Y-83820000D01*
X74390000Y-71850000D02*
X86801576Y-71850000D01*
X71120000Y-68580000D02*
X74390000Y-71850000D01*
X86801576Y-71850000D02*
X87400000Y-72448424D01*
X87400000Y-72448424D02*
X87400000Y-81685000D01*
X72390000Y-72390000D02*
X86360000Y-72390000D01*
X88900000Y-88265000D02*
X89535000Y-88900000D01*
X68580000Y-68580000D02*
X72390000Y-72390000D01*
X86360000Y-72390000D02*
X86900000Y-72930000D01*
X88900000Y-83892106D02*
X88900000Y-88265000D01*
X89535000Y-88900000D02*
X92075000Y-88900000D01*
X86900000Y-81892106D02*
X88900000Y-83892106D01*
X86900000Y-72930000D02*
X86900000Y-81892106D01*
X89535000Y-91440000D02*
X92075000Y-91440000D01*
X86400000Y-82099212D02*
X88400000Y-84099212D01*
X86400000Y-73137106D02*
X86400000Y-82099212D01*
X86152894Y-72890000D02*
X86400000Y-73137106D01*
X88400000Y-84099212D02*
X88400000Y-90305000D01*
X70350000Y-72890000D02*
X86152894Y-72890000D01*
X88400000Y-90305000D02*
X89535000Y-91440000D01*
X66040000Y-68580000D02*
X70350000Y-72890000D01*
X88900000Y-93980000D02*
X92075000Y-93980000D01*
X87765000Y-95115000D02*
X88900000Y-93980000D01*
X85405788Y-103680000D02*
X87765000Y-101320788D01*
X87765000Y-101320788D02*
X87765000Y-95115000D01*
X66040000Y-107940000D02*
X70300000Y-103680000D01*
X70300000Y-103680000D02*
X85405788Y-103680000D01*
X68580000Y-107940000D02*
X72340000Y-104180000D01*
X72340000Y-104180000D02*
X85612894Y-104180000D01*
X88265000Y-101527894D02*
X88265000Y-97790000D01*
X88265000Y-97790000D02*
X89535000Y-96520000D01*
X85612894Y-104180000D02*
X88265000Y-101527894D01*
X89535000Y-96520000D02*
X92075000Y-96520000D01*
D21*
X64330000Y-113850000D02*
X66040000Y-115560000D01*
X55430000Y-114300000D02*
X55880000Y-113850000D01*
X55880000Y-113850000D02*
X64330000Y-113850000D01*
X53340000Y-114300000D02*
X55430000Y-114300000D01*
X54792118Y-115574278D02*
X56066396Y-114300000D01*
X52074278Y-115574278D02*
X54792118Y-115574278D01*
X62230000Y-114300000D02*
X62240000Y-114300000D01*
X50800000Y-114300000D02*
X52074278Y-115574278D01*
X62240000Y-114300000D02*
X63500000Y-115560000D01*
X56066396Y-114300000D02*
X62230000Y-114300000D01*
X54530000Y-112950000D02*
X53340000Y-111760000D01*
X61040000Y-112950000D02*
X68510000Y-112950000D01*
X68510000Y-112950000D02*
X71120000Y-115560000D01*
X61040000Y-112950000D02*
X54530000Y-112950000D01*
X54101701Y-113400000D02*
X53636701Y-112935000D01*
X51975000Y-112935000D02*
X50800000Y-111760000D01*
X56145000Y-113400000D02*
X66420000Y-113400000D01*
X56145000Y-113400000D02*
X54101701Y-113400000D01*
X53636701Y-112935000D02*
X51975000Y-112935000D01*
X66420000Y-113400000D02*
X68580000Y-115560000D01*
X72690000Y-112050000D02*
X76200000Y-115560000D01*
X56516396Y-109220000D02*
X53340000Y-109220000D01*
X70140000Y-112050000D02*
X72690000Y-112050000D01*
X59346396Y-112050000D02*
X56516396Y-109220000D01*
X70140000Y-112050000D02*
X59346396Y-112050000D01*
X62335000Y-112500000D02*
X59160000Y-112500000D01*
X57055000Y-110395000D02*
X51975000Y-110395000D01*
X51975000Y-110395000D02*
X50800000Y-109220000D01*
X70600000Y-112500000D02*
X73660000Y-115560000D01*
X59160000Y-112500000D02*
X57055000Y-110395000D01*
X62335000Y-112500000D02*
X70600000Y-112500000D01*
X76870000Y-111150000D02*
X81280000Y-115560000D01*
X56515000Y-103505000D02*
X69392363Y-103505000D01*
X53340000Y-106680000D02*
X56515000Y-103505000D01*
X71142362Y-101755000D02*
X78580000Y-101755000D01*
X56066396Y-108320000D02*
X56889188Y-108320000D01*
X59719188Y-111150000D02*
X73635000Y-111150000D01*
X73635000Y-111150000D02*
X76870000Y-111150000D01*
X56889188Y-108320000D02*
X59719188Y-111150000D01*
X54426396Y-106680000D02*
X56066396Y-108320000D01*
X53340000Y-106680000D02*
X54426396Y-106680000D01*
X78580000Y-101755000D02*
X81285000Y-99050000D01*
X69392363Y-103505000D02*
X71142362Y-101755000D01*
X74780000Y-111600000D02*
X78740000Y-115560000D01*
X55880000Y-108770000D02*
X56702792Y-108770000D01*
X72865000Y-111600000D02*
X74780000Y-111600000D01*
X59532792Y-111600000D02*
X72865000Y-111600000D01*
X52165000Y-108045000D02*
X55155000Y-108045000D01*
X50800000Y-106680000D02*
X52165000Y-108045000D01*
X56702792Y-108770000D02*
X59532792Y-111600000D01*
X55155000Y-108045000D02*
X55880000Y-108770000D01*
D20*
X76515000Y-101280000D02*
X78745000Y-99050000D01*
X69195611Y-103030000D02*
X70945610Y-101280000D01*
X55208249Y-104140000D02*
X56318249Y-103030000D01*
X56318249Y-103030000D02*
X69195611Y-103030000D01*
X53340000Y-104140000D02*
X55208249Y-104140000D01*
X70945610Y-101280000D02*
X76515000Y-101280000D01*
D21*
X51975000Y-102965000D02*
X55711497Y-102965000D01*
X70748858Y-100805000D02*
X74450000Y-100805000D01*
X50800000Y-104140000D02*
X51975000Y-102965000D01*
X68998859Y-102555000D02*
X70748858Y-100805000D01*
X74450000Y-100805000D02*
X76205000Y-99050000D01*
X55711497Y-102965000D02*
X56121498Y-102555000D01*
X56121498Y-102555000D02*
X68998859Y-102555000D01*
D20*
X70552106Y-100330000D02*
X73025000Y-100330000D01*
X73665000Y-99690000D02*
X73665000Y-99050000D01*
X73025000Y-100330000D02*
X73665000Y-99690000D01*
X56515000Y-102080000D02*
X68802107Y-102080000D01*
X56035000Y-101600000D02*
X56515000Y-102080000D01*
X53340000Y-101600000D02*
X56035000Y-101600000D01*
X68802107Y-102080000D02*
X70552106Y-100330000D01*
X68595000Y-101580000D02*
X71125000Y-99050000D01*
X55245000Y-100965000D02*
X56107107Y-100965000D01*
X56722107Y-101580000D02*
X68595000Y-101580000D01*
X52140000Y-100260000D02*
X54540000Y-100260000D01*
X54540000Y-100260000D02*
X55245000Y-100965000D01*
X56107107Y-100965000D02*
X56722107Y-101580000D01*
X50800000Y-101600000D02*
X52140000Y-100260000D01*
X56929214Y-101080000D02*
X66555000Y-101080000D01*
X54909214Y-99060000D02*
X56929214Y-101080000D01*
X53340000Y-99060000D02*
X54909214Y-99060000D01*
X66555000Y-101080000D02*
X68585000Y-99050000D01*
D21*
X50800000Y-99060000D02*
X52140000Y-97720000D01*
X57125966Y-100605000D02*
X64490000Y-100605000D01*
X52140000Y-97720000D02*
X54240966Y-97720000D01*
X64490000Y-100605000D02*
X66045000Y-99050000D01*
X54240966Y-97720000D02*
X57125966Y-100605000D01*
D20*
X58435000Y-96520000D02*
X60965000Y-99050000D01*
X53340000Y-96520000D02*
X58435000Y-96520000D01*
X50800000Y-96520000D02*
X52038923Y-95281077D01*
X52038923Y-95281077D02*
X55141077Y-95281077D01*
X60475000Y-96020000D02*
X63505000Y-99050000D01*
X55880000Y-96020000D02*
X60475000Y-96020000D01*
X55141077Y-95281077D02*
X55880000Y-96020000D01*
X68575000Y-93980000D02*
X71125000Y-91430000D01*
X53340000Y-93980000D02*
X68575000Y-93980000D01*
X50800000Y-93980000D02*
X52000000Y-92780000D01*
X66535000Y-93480000D02*
X68585000Y-91430000D01*
X55740000Y-93480000D02*
X66535000Y-93480000D01*
X52000000Y-92780000D02*
X55040000Y-92780000D01*
X55040000Y-92780000D02*
X55740000Y-93480000D01*
X54610000Y-91440000D02*
X56150000Y-92980000D01*
X56150000Y-92980000D02*
X64495000Y-92980000D01*
X53340000Y-91440000D02*
X54610000Y-91440000D01*
X64495000Y-92980000D02*
X66045000Y-91430000D01*
X52038923Y-87661077D02*
X54578923Y-87661077D01*
X59127106Y-81280000D02*
X76200000Y-81280000D01*
X50800000Y-88900000D02*
X52038923Y-87661077D01*
X76200000Y-81280000D02*
X81280000Y-76200000D01*
X55880000Y-84527106D02*
X59127106Y-81280000D01*
X54578923Y-87661077D02*
X55880000Y-86360000D01*
X55880000Y-86360000D02*
X55880000Y-84527106D01*
X52038923Y-85121077D02*
X54578923Y-85121077D01*
X58920000Y-80780000D02*
X74160000Y-80780000D01*
X74160000Y-80780000D02*
X78740000Y-76200000D01*
X54578923Y-85121077D02*
X58920000Y-80780000D01*
X50800000Y-86360000D02*
X52038923Y-85121077D01*
X72120000Y-80280000D02*
X76200000Y-76200000D01*
X50800000Y-83820000D02*
X52038923Y-82581077D01*
X58712894Y-80280000D02*
X72120000Y-80280000D01*
X56411817Y-82581077D02*
X58712894Y-80280000D01*
X52038923Y-82581077D02*
X56411817Y-82581077D01*
X52038923Y-80041077D02*
X58244710Y-80041077D01*
X58505787Y-79780000D02*
X70080000Y-79780000D01*
X58244710Y-80041077D02*
X58505787Y-79780000D01*
X70080000Y-79780000D02*
X73660000Y-76200000D01*
X50800000Y-81280000D02*
X52038923Y-80041077D01*
X55722846Y-79280000D02*
X68040000Y-79280000D01*
X68040000Y-79280000D02*
X71120000Y-76200000D01*
X52038923Y-77501077D02*
X53943923Y-77501077D01*
X50800000Y-78740000D02*
X52038923Y-77501077D01*
X53943923Y-77501077D02*
X55722846Y-79280000D01*
X52070000Y-74930000D02*
X54610000Y-74930000D01*
X50800000Y-76200000D02*
X52070000Y-74930000D01*
X54610000Y-74930000D02*
X55245000Y-75565000D01*
X55245000Y-78095048D02*
X55929952Y-78780000D01*
X55245000Y-75565000D02*
X55245000Y-78095048D01*
X66000000Y-78780000D02*
X68580000Y-76200000D01*
X55929952Y-78780000D02*
X66000000Y-78780000D01*
X63960000Y-78280000D02*
X66040000Y-76200000D01*
X54006077Y-72421077D02*
X55745000Y-74160000D01*
X52038923Y-72421077D02*
X54006077Y-72421077D01*
X50800000Y-73660000D02*
X52038923Y-72421077D01*
X56137058Y-78280000D02*
X63960000Y-78280000D01*
X55745000Y-74160000D02*
X55745000Y-77887942D01*
X55745000Y-77887942D02*
X56137058Y-78280000D01*
X52070000Y-69850000D02*
X54610000Y-69850000D01*
X50800000Y-71120000D02*
X52070000Y-69850000D01*
X56245000Y-71485000D02*
X56245000Y-77680836D01*
X61920000Y-77780000D02*
X63500000Y-76200000D01*
X54610000Y-69850000D02*
X56245000Y-71485000D01*
X56344164Y-77780000D02*
X61920000Y-77780000D01*
X56245000Y-77680836D02*
X56344164Y-77780000D01*
D19*
X106680000Y-74295000D02*
X94615000Y-74295000D01*
X109855000Y-71120000D02*
X106680000Y-74295000D01*
X94615000Y-74295000D02*
X93980000Y-74930000D01*
M02*
