%TF.GenerationSoftware,KiCad,Pcbnew,(6.0.8-1)-1*%
%TF.CreationDate,2022-11-03T22:20:15+08:00*%
%TF.ProjectId,PCB,5043422e-6b69-4636-9164-5f7063625858,rev?*%
%TF.SameCoordinates,Original*%
%TF.FileFunction,Drillmap*%
%TF.FilePolarity,Positive*%
%FSLAX45Y45*%
G04 Gerber Fmt 4.5, Leading zero omitted, Abs format (unit mm)*
G04 Created by KiCad (PCBNEW (6.0.8-1)-1) date 2022-11-03 22:20:15*
%MOMM*%
%LPD*%
G01*
G04 APERTURE LIST*
%ADD10C,0.100000*%
%ADD11C,0.200000*%
%ADD12C,0.150000*%
%ADD13C,0.180000*%
G04 APERTURE END LIST*
D10*
X4470400Y-6514200D02*
X11470400Y-6514200D01*
X11470400Y-6514200D02*
X11470400Y-12014200D01*
X11470400Y-12014200D02*
X10744200Y-12014200D01*
X9385300Y-12014200D02*
X4470400Y-12014200D01*
X10744200Y-10972800D02*
X10744200Y-12014200D01*
X9385300Y-10972800D02*
X10744200Y-10972800D01*
X4470400Y-12014200D02*
X4470400Y-6514200D01*
X9385300Y-12014200D02*
X9385300Y-10972800D01*
D11*
D12*
X9779000Y-7099000D02*
X9929000Y-7249000D01*
X9929000Y-7099000D02*
X9779000Y-7249000D01*
X10264000Y-7099000D02*
X10414000Y-7249000D01*
X10414000Y-7099000D02*
X10264000Y-7249000D01*
D13*
X9914000Y-6871000D02*
G75*
G03*
X9914000Y-6871000I-90000J0D01*
G01*
X10459000Y-6871000D02*
G75*
G03*
X10459000Y-6871000I-90000J0D01*
G01*
D11*
X4723019Y-12329676D02*
X4723019Y-12129676D01*
X4770638Y-12129676D01*
X4799210Y-12139200D01*
X4818257Y-12158248D01*
X4827781Y-12177295D01*
X4837305Y-12215390D01*
X4837305Y-12243962D01*
X4827781Y-12282057D01*
X4818257Y-12301105D01*
X4799210Y-12320152D01*
X4770638Y-12329676D01*
X4723019Y-12329676D01*
X4923019Y-12329676D02*
X4923019Y-12196343D01*
X4923019Y-12234438D02*
X4932543Y-12215390D01*
X4942067Y-12205867D01*
X4961114Y-12196343D01*
X4980162Y-12196343D01*
X5046829Y-12329676D02*
X5046829Y-12196343D01*
X5046829Y-12129676D02*
X5037305Y-12139200D01*
X5046829Y-12148724D01*
X5056352Y-12139200D01*
X5046829Y-12129676D01*
X5046829Y-12148724D01*
X5170638Y-12329676D02*
X5151590Y-12320152D01*
X5142067Y-12301105D01*
X5142067Y-12129676D01*
X5275400Y-12329676D02*
X5256352Y-12320152D01*
X5246829Y-12301105D01*
X5246829Y-12129676D01*
X5503971Y-12329676D02*
X5503971Y-12129676D01*
X5570638Y-12272533D01*
X5637305Y-12129676D01*
X5637305Y-12329676D01*
X5818257Y-12329676D02*
X5818257Y-12224914D01*
X5808733Y-12205867D01*
X5789686Y-12196343D01*
X5751590Y-12196343D01*
X5732543Y-12205867D01*
X5818257Y-12320152D02*
X5799209Y-12329676D01*
X5751590Y-12329676D01*
X5732543Y-12320152D01*
X5723019Y-12301105D01*
X5723019Y-12282057D01*
X5732543Y-12263009D01*
X5751590Y-12253486D01*
X5799209Y-12253486D01*
X5818257Y-12243962D01*
X5913495Y-12196343D02*
X5913495Y-12396343D01*
X5913495Y-12205867D02*
X5932543Y-12196343D01*
X5970638Y-12196343D01*
X5989686Y-12205867D01*
X5999209Y-12215390D01*
X6008733Y-12234438D01*
X6008733Y-12291581D01*
X5999209Y-12310628D01*
X5989686Y-12320152D01*
X5970638Y-12329676D01*
X5932543Y-12329676D01*
X5913495Y-12320152D01*
X6094448Y-12310628D02*
X6103971Y-12320152D01*
X6094448Y-12329676D01*
X6084924Y-12320152D01*
X6094448Y-12310628D01*
X6094448Y-12329676D01*
X6094448Y-12205867D02*
X6103971Y-12215390D01*
X6094448Y-12224914D01*
X6084924Y-12215390D01*
X6094448Y-12205867D01*
X6094448Y-12224914D01*
D12*
X4315400Y-12584200D02*
X4465400Y-12734200D01*
X4465400Y-12584200D02*
X4315400Y-12734200D01*
D11*
X4827781Y-12749676D02*
X4713495Y-12749676D01*
X4770638Y-12749676D02*
X4770638Y-12549676D01*
X4751590Y-12578248D01*
X4732543Y-12597295D01*
X4713495Y-12606819D01*
X4913495Y-12730628D02*
X4923019Y-12740152D01*
X4913495Y-12749676D01*
X4903971Y-12740152D01*
X4913495Y-12730628D01*
X4913495Y-12749676D01*
X5103971Y-12549676D02*
X5008733Y-12549676D01*
X4999210Y-12644914D01*
X5008733Y-12635390D01*
X5027781Y-12625867D01*
X5075400Y-12625867D01*
X5094448Y-12635390D01*
X5103971Y-12644914D01*
X5113495Y-12663962D01*
X5113495Y-12711581D01*
X5103971Y-12730628D01*
X5094448Y-12740152D01*
X5075400Y-12749676D01*
X5027781Y-12749676D01*
X5008733Y-12740152D01*
X4999210Y-12730628D01*
X5237305Y-12549676D02*
X5256352Y-12549676D01*
X5275400Y-12559200D01*
X5284924Y-12568724D01*
X5294448Y-12587771D01*
X5303971Y-12625867D01*
X5303971Y-12673486D01*
X5294448Y-12711581D01*
X5284924Y-12730628D01*
X5275400Y-12740152D01*
X5256352Y-12749676D01*
X5237305Y-12749676D01*
X5218257Y-12740152D01*
X5208733Y-12730628D01*
X5199210Y-12711581D01*
X5189686Y-12673486D01*
X5189686Y-12625867D01*
X5199210Y-12587771D01*
X5208733Y-12568724D01*
X5218257Y-12559200D01*
X5237305Y-12549676D01*
X5427781Y-12549676D02*
X5446829Y-12549676D01*
X5465876Y-12559200D01*
X5475400Y-12568724D01*
X5484924Y-12587771D01*
X5494448Y-12625867D01*
X5494448Y-12673486D01*
X5484924Y-12711581D01*
X5475400Y-12730628D01*
X5465876Y-12740152D01*
X5446829Y-12749676D01*
X5427781Y-12749676D01*
X5408733Y-12740152D01*
X5399210Y-12730628D01*
X5389686Y-12711581D01*
X5380162Y-12673486D01*
X5380162Y-12625867D01*
X5389686Y-12587771D01*
X5399210Y-12568724D01*
X5408733Y-12559200D01*
X5427781Y-12549676D01*
X5580162Y-12749676D02*
X5580162Y-12616343D01*
X5580162Y-12635390D02*
X5589686Y-12625867D01*
X5608733Y-12616343D01*
X5637305Y-12616343D01*
X5656352Y-12625867D01*
X5665876Y-12644914D01*
X5665876Y-12749676D01*
X5665876Y-12644914D02*
X5675400Y-12625867D01*
X5694448Y-12616343D01*
X5723019Y-12616343D01*
X5742067Y-12625867D01*
X5751590Y-12644914D01*
X5751590Y-12749676D01*
X5846828Y-12749676D02*
X5846828Y-12616343D01*
X5846828Y-12635390D02*
X5856352Y-12625867D01*
X5875400Y-12616343D01*
X5903971Y-12616343D01*
X5923019Y-12625867D01*
X5932543Y-12644914D01*
X5932543Y-12749676D01*
X5932543Y-12644914D02*
X5942067Y-12625867D01*
X5961114Y-12616343D01*
X5989686Y-12616343D01*
X6008733Y-12625867D01*
X6018257Y-12644914D01*
X6018257Y-12749676D01*
X6408733Y-12540152D02*
X6237305Y-12797295D01*
X6665876Y-12549676D02*
X6684924Y-12549676D01*
X6703971Y-12559200D01*
X6713495Y-12568724D01*
X6723019Y-12587771D01*
X6732543Y-12625867D01*
X6732543Y-12673486D01*
X6723019Y-12711581D01*
X6713495Y-12730628D01*
X6703971Y-12740152D01*
X6684924Y-12749676D01*
X6665876Y-12749676D01*
X6646828Y-12740152D01*
X6637305Y-12730628D01*
X6627781Y-12711581D01*
X6618257Y-12673486D01*
X6618257Y-12625867D01*
X6627781Y-12587771D01*
X6637305Y-12568724D01*
X6646828Y-12559200D01*
X6665876Y-12549676D01*
X6818257Y-12730628D02*
X6827781Y-12740152D01*
X6818257Y-12749676D01*
X6808733Y-12740152D01*
X6818257Y-12730628D01*
X6818257Y-12749676D01*
X6951590Y-12549676D02*
X6970638Y-12549676D01*
X6989686Y-12559200D01*
X6999209Y-12568724D01*
X7008733Y-12587771D01*
X7018257Y-12625867D01*
X7018257Y-12673486D01*
X7008733Y-12711581D01*
X6999209Y-12730628D01*
X6989686Y-12740152D01*
X6970638Y-12749676D01*
X6951590Y-12749676D01*
X6932543Y-12740152D01*
X6923019Y-12730628D01*
X6913495Y-12711581D01*
X6903971Y-12673486D01*
X6903971Y-12625867D01*
X6913495Y-12587771D01*
X6923019Y-12568724D01*
X6932543Y-12559200D01*
X6951590Y-12549676D01*
X7199209Y-12549676D02*
X7103971Y-12549676D01*
X7094448Y-12644914D01*
X7103971Y-12635390D01*
X7123019Y-12625867D01*
X7170638Y-12625867D01*
X7189686Y-12635390D01*
X7199209Y-12644914D01*
X7208733Y-12663962D01*
X7208733Y-12711581D01*
X7199209Y-12730628D01*
X7189686Y-12740152D01*
X7170638Y-12749676D01*
X7123019Y-12749676D01*
X7103971Y-12740152D01*
X7094448Y-12730628D01*
X7303971Y-12749676D02*
X7342067Y-12749676D01*
X7361114Y-12740152D01*
X7370638Y-12730628D01*
X7389686Y-12702057D01*
X7399209Y-12663962D01*
X7399209Y-12587771D01*
X7389686Y-12568724D01*
X7380162Y-12559200D01*
X7361114Y-12549676D01*
X7323019Y-12549676D01*
X7303971Y-12559200D01*
X7294448Y-12568724D01*
X7284924Y-12587771D01*
X7284924Y-12635390D01*
X7294448Y-12654438D01*
X7303971Y-12663962D01*
X7323019Y-12673486D01*
X7361114Y-12673486D01*
X7380162Y-12663962D01*
X7389686Y-12654438D01*
X7399209Y-12635390D01*
X7589686Y-12749676D02*
X7475400Y-12749676D01*
X7532543Y-12749676D02*
X7532543Y-12549676D01*
X7513495Y-12578248D01*
X7494448Y-12597295D01*
X7475400Y-12606819D01*
X7665876Y-12549676D02*
X7665876Y-12587771D01*
X7742067Y-12549676D02*
X7742067Y-12587771D01*
X8037305Y-12825867D02*
X8027781Y-12816343D01*
X8008733Y-12787771D01*
X7999209Y-12768724D01*
X7989686Y-12740152D01*
X7980162Y-12692533D01*
X7980162Y-12654438D01*
X7989686Y-12606819D01*
X7999209Y-12578248D01*
X8008733Y-12559200D01*
X8027781Y-12530628D01*
X8037305Y-12521105D01*
X8103971Y-12568724D02*
X8113495Y-12559200D01*
X8132543Y-12549676D01*
X8180162Y-12549676D01*
X8199209Y-12559200D01*
X8208733Y-12568724D01*
X8218257Y-12587771D01*
X8218257Y-12606819D01*
X8208733Y-12635390D01*
X8094448Y-12749676D01*
X8218257Y-12749676D01*
X8456352Y-12749676D02*
X8456352Y-12549676D01*
X8542067Y-12749676D02*
X8542067Y-12644914D01*
X8532543Y-12625867D01*
X8513495Y-12616343D01*
X8484924Y-12616343D01*
X8465876Y-12625867D01*
X8456352Y-12635390D01*
X8665876Y-12749676D02*
X8646829Y-12740152D01*
X8637305Y-12730628D01*
X8627781Y-12711581D01*
X8627781Y-12654438D01*
X8637305Y-12635390D01*
X8646829Y-12625867D01*
X8665876Y-12616343D01*
X8694448Y-12616343D01*
X8713495Y-12625867D01*
X8723019Y-12635390D01*
X8732543Y-12654438D01*
X8732543Y-12711581D01*
X8723019Y-12730628D01*
X8713495Y-12740152D01*
X8694448Y-12749676D01*
X8665876Y-12749676D01*
X8846829Y-12749676D02*
X8827781Y-12740152D01*
X8818257Y-12721105D01*
X8818257Y-12549676D01*
X8999210Y-12740152D02*
X8980162Y-12749676D01*
X8942067Y-12749676D01*
X8923019Y-12740152D01*
X8913495Y-12721105D01*
X8913495Y-12644914D01*
X8923019Y-12625867D01*
X8942067Y-12616343D01*
X8980162Y-12616343D01*
X8999210Y-12625867D01*
X9008733Y-12644914D01*
X9008733Y-12663962D01*
X8913495Y-12683009D01*
X9084924Y-12740152D02*
X9103971Y-12749676D01*
X9142067Y-12749676D01*
X9161114Y-12740152D01*
X9170638Y-12721105D01*
X9170638Y-12711581D01*
X9161114Y-12692533D01*
X9142067Y-12683009D01*
X9113495Y-12683009D01*
X9094448Y-12673486D01*
X9084924Y-12654438D01*
X9084924Y-12644914D01*
X9094448Y-12625867D01*
X9113495Y-12616343D01*
X9142067Y-12616343D01*
X9161114Y-12625867D01*
X9237305Y-12825867D02*
X9246829Y-12816343D01*
X9265876Y-12787771D01*
X9275400Y-12768724D01*
X9284924Y-12740152D01*
X9294448Y-12692533D01*
X9294448Y-12654438D01*
X9284924Y-12606819D01*
X9275400Y-12578248D01*
X9265876Y-12559200D01*
X9246829Y-12530628D01*
X9237305Y-12521105D01*
X9599210Y-12825867D02*
X9589686Y-12816343D01*
X9570638Y-12787771D01*
X9561114Y-12768724D01*
X9551590Y-12740152D01*
X9542067Y-12692533D01*
X9542067Y-12654438D01*
X9551590Y-12606819D01*
X9561114Y-12578248D01*
X9570638Y-12559200D01*
X9589686Y-12530628D01*
X9599210Y-12521105D01*
X9675400Y-12616343D02*
X9675400Y-12749676D01*
X9675400Y-12635390D02*
X9684924Y-12625867D01*
X9703971Y-12616343D01*
X9732543Y-12616343D01*
X9751590Y-12625867D01*
X9761114Y-12644914D01*
X9761114Y-12749676D01*
X9884924Y-12749676D02*
X9865876Y-12740152D01*
X9856352Y-12730628D01*
X9846829Y-12711581D01*
X9846829Y-12654438D01*
X9856352Y-12635390D01*
X9865876Y-12625867D01*
X9884924Y-12616343D01*
X9913495Y-12616343D01*
X9932543Y-12625867D01*
X9942067Y-12635390D01*
X9951590Y-12654438D01*
X9951590Y-12711581D01*
X9942067Y-12730628D01*
X9932543Y-12740152D01*
X9913495Y-12749676D01*
X9884924Y-12749676D01*
X10008733Y-12616343D02*
X10084924Y-12616343D01*
X10037305Y-12549676D02*
X10037305Y-12721105D01*
X10046829Y-12740152D01*
X10065876Y-12749676D01*
X10084924Y-12749676D01*
X10303971Y-12616343D02*
X10303971Y-12816343D01*
X10303971Y-12625867D02*
X10323019Y-12616343D01*
X10361114Y-12616343D01*
X10380162Y-12625867D01*
X10389686Y-12635390D01*
X10399210Y-12654438D01*
X10399210Y-12711581D01*
X10389686Y-12730628D01*
X10380162Y-12740152D01*
X10361114Y-12749676D01*
X10323019Y-12749676D01*
X10303971Y-12740152D01*
X10513495Y-12749676D02*
X10494448Y-12740152D01*
X10484924Y-12721105D01*
X10484924Y-12549676D01*
X10675400Y-12749676D02*
X10675400Y-12644914D01*
X10665876Y-12625867D01*
X10646829Y-12616343D01*
X10608733Y-12616343D01*
X10589686Y-12625867D01*
X10675400Y-12740152D02*
X10656352Y-12749676D01*
X10608733Y-12749676D01*
X10589686Y-12740152D01*
X10580162Y-12721105D01*
X10580162Y-12702057D01*
X10589686Y-12683009D01*
X10608733Y-12673486D01*
X10656352Y-12673486D01*
X10675400Y-12663962D01*
X10742067Y-12616343D02*
X10818257Y-12616343D01*
X10770638Y-12549676D02*
X10770638Y-12721105D01*
X10780162Y-12740152D01*
X10799210Y-12749676D01*
X10818257Y-12749676D01*
X10961114Y-12740152D02*
X10942067Y-12749676D01*
X10903971Y-12749676D01*
X10884924Y-12740152D01*
X10875400Y-12721105D01*
X10875400Y-12644914D01*
X10884924Y-12625867D01*
X10903971Y-12616343D01*
X10942067Y-12616343D01*
X10961114Y-12625867D01*
X10970638Y-12644914D01*
X10970638Y-12663962D01*
X10875400Y-12683009D01*
X11142067Y-12749676D02*
X11142067Y-12549676D01*
X11142067Y-12740152D02*
X11123019Y-12749676D01*
X11084924Y-12749676D01*
X11065876Y-12740152D01*
X11056352Y-12730628D01*
X11046829Y-12711581D01*
X11046829Y-12654438D01*
X11056352Y-12635390D01*
X11065876Y-12625867D01*
X11084924Y-12616343D01*
X11123019Y-12616343D01*
X11142067Y-12625867D01*
X11218257Y-12825867D02*
X11227781Y-12816343D01*
X11246828Y-12787771D01*
X11256352Y-12768724D01*
X11265876Y-12740152D01*
X11275400Y-12692533D01*
X11275400Y-12654438D01*
X11265876Y-12606819D01*
X11256352Y-12578248D01*
X11246828Y-12559200D01*
X11227781Y-12530628D01*
X11218257Y-12521105D01*
D13*
X4465400Y-12929200D02*
G75*
G03*
X4465400Y-12929200I-90000J0D01*
G01*
D11*
X4827781Y-13019676D02*
X4713495Y-13019676D01*
X4770638Y-13019676D02*
X4770638Y-12819676D01*
X4751590Y-12848248D01*
X4732543Y-12867295D01*
X4713495Y-12876819D01*
X4913495Y-13000628D02*
X4923019Y-13010152D01*
X4913495Y-13019676D01*
X4903971Y-13010152D01*
X4913495Y-13000628D01*
X4913495Y-13019676D01*
X5037305Y-12905390D02*
X5018257Y-12895867D01*
X5008733Y-12886343D01*
X4999210Y-12867295D01*
X4999210Y-12857771D01*
X5008733Y-12838724D01*
X5018257Y-12829200D01*
X5037305Y-12819676D01*
X5075400Y-12819676D01*
X5094448Y-12829200D01*
X5103971Y-12838724D01*
X5113495Y-12857771D01*
X5113495Y-12867295D01*
X5103971Y-12886343D01*
X5094448Y-12895867D01*
X5075400Y-12905390D01*
X5037305Y-12905390D01*
X5018257Y-12914914D01*
X5008733Y-12924438D01*
X4999210Y-12943486D01*
X4999210Y-12981581D01*
X5008733Y-13000628D01*
X5018257Y-13010152D01*
X5037305Y-13019676D01*
X5075400Y-13019676D01*
X5094448Y-13010152D01*
X5103971Y-13000628D01*
X5113495Y-12981581D01*
X5113495Y-12943486D01*
X5103971Y-12924438D01*
X5094448Y-12914914D01*
X5075400Y-12905390D01*
X5237305Y-12819676D02*
X5256352Y-12819676D01*
X5275400Y-12829200D01*
X5284924Y-12838724D01*
X5294448Y-12857771D01*
X5303971Y-12895867D01*
X5303971Y-12943486D01*
X5294448Y-12981581D01*
X5284924Y-13000628D01*
X5275400Y-13010152D01*
X5256352Y-13019676D01*
X5237305Y-13019676D01*
X5218257Y-13010152D01*
X5208733Y-13000628D01*
X5199210Y-12981581D01*
X5189686Y-12943486D01*
X5189686Y-12895867D01*
X5199210Y-12857771D01*
X5208733Y-12838724D01*
X5218257Y-12829200D01*
X5237305Y-12819676D01*
X5427781Y-12819676D02*
X5446829Y-12819676D01*
X5465876Y-12829200D01*
X5475400Y-12838724D01*
X5484924Y-12857771D01*
X5494448Y-12895867D01*
X5494448Y-12943486D01*
X5484924Y-12981581D01*
X5475400Y-13000628D01*
X5465876Y-13010152D01*
X5446829Y-13019676D01*
X5427781Y-13019676D01*
X5408733Y-13010152D01*
X5399210Y-13000628D01*
X5389686Y-12981581D01*
X5380162Y-12943486D01*
X5380162Y-12895867D01*
X5389686Y-12857771D01*
X5399210Y-12838724D01*
X5408733Y-12829200D01*
X5427781Y-12819676D01*
X5580162Y-13019676D02*
X5580162Y-12886343D01*
X5580162Y-12905390D02*
X5589686Y-12895867D01*
X5608733Y-12886343D01*
X5637305Y-12886343D01*
X5656352Y-12895867D01*
X5665876Y-12914914D01*
X5665876Y-13019676D01*
X5665876Y-12914914D02*
X5675400Y-12895867D01*
X5694448Y-12886343D01*
X5723019Y-12886343D01*
X5742067Y-12895867D01*
X5751590Y-12914914D01*
X5751590Y-13019676D01*
X5846828Y-13019676D02*
X5846828Y-12886343D01*
X5846828Y-12905390D02*
X5856352Y-12895867D01*
X5875400Y-12886343D01*
X5903971Y-12886343D01*
X5923019Y-12895867D01*
X5932543Y-12914914D01*
X5932543Y-13019676D01*
X5932543Y-12914914D02*
X5942067Y-12895867D01*
X5961114Y-12886343D01*
X5989686Y-12886343D01*
X6008733Y-12895867D01*
X6018257Y-12914914D01*
X6018257Y-13019676D01*
X6408733Y-12810152D02*
X6237305Y-13067295D01*
X6665876Y-12819676D02*
X6684924Y-12819676D01*
X6703971Y-12829200D01*
X6713495Y-12838724D01*
X6723019Y-12857771D01*
X6732543Y-12895867D01*
X6732543Y-12943486D01*
X6723019Y-12981581D01*
X6713495Y-13000628D01*
X6703971Y-13010152D01*
X6684924Y-13019676D01*
X6665876Y-13019676D01*
X6646828Y-13010152D01*
X6637305Y-13000628D01*
X6627781Y-12981581D01*
X6618257Y-12943486D01*
X6618257Y-12895867D01*
X6627781Y-12857771D01*
X6637305Y-12838724D01*
X6646828Y-12829200D01*
X6665876Y-12819676D01*
X6818257Y-13000628D02*
X6827781Y-13010152D01*
X6818257Y-13019676D01*
X6808733Y-13010152D01*
X6818257Y-13000628D01*
X6818257Y-13019676D01*
X6951590Y-12819676D02*
X6970638Y-12819676D01*
X6989686Y-12829200D01*
X6999209Y-12838724D01*
X7008733Y-12857771D01*
X7018257Y-12895867D01*
X7018257Y-12943486D01*
X7008733Y-12981581D01*
X6999209Y-13000628D01*
X6989686Y-13010152D01*
X6970638Y-13019676D01*
X6951590Y-13019676D01*
X6932543Y-13010152D01*
X6923019Y-13000628D01*
X6913495Y-12981581D01*
X6903971Y-12943486D01*
X6903971Y-12895867D01*
X6913495Y-12857771D01*
X6923019Y-12838724D01*
X6932543Y-12829200D01*
X6951590Y-12819676D01*
X7084924Y-12819676D02*
X7218257Y-12819676D01*
X7132543Y-13019676D01*
X7332543Y-12819676D02*
X7351590Y-12819676D01*
X7370638Y-12829200D01*
X7380162Y-12838724D01*
X7389686Y-12857771D01*
X7399209Y-12895867D01*
X7399209Y-12943486D01*
X7389686Y-12981581D01*
X7380162Y-13000628D01*
X7370638Y-13010152D01*
X7351590Y-13019676D01*
X7332543Y-13019676D01*
X7313495Y-13010152D01*
X7303971Y-13000628D01*
X7294448Y-12981581D01*
X7284924Y-12943486D01*
X7284924Y-12895867D01*
X7294448Y-12857771D01*
X7303971Y-12838724D01*
X7313495Y-12829200D01*
X7332543Y-12819676D01*
X7494448Y-13019676D02*
X7532543Y-13019676D01*
X7551590Y-13010152D01*
X7561114Y-13000628D01*
X7580162Y-12972057D01*
X7589686Y-12933962D01*
X7589686Y-12857771D01*
X7580162Y-12838724D01*
X7570638Y-12829200D01*
X7551590Y-12819676D01*
X7513495Y-12819676D01*
X7494448Y-12829200D01*
X7484924Y-12838724D01*
X7475400Y-12857771D01*
X7475400Y-12905390D01*
X7484924Y-12924438D01*
X7494448Y-12933962D01*
X7513495Y-12943486D01*
X7551590Y-12943486D01*
X7570638Y-12933962D01*
X7580162Y-12924438D01*
X7589686Y-12905390D01*
X7665876Y-12819676D02*
X7665876Y-12857771D01*
X7742067Y-12819676D02*
X7742067Y-12857771D01*
X8037305Y-13095867D02*
X8027781Y-13086343D01*
X8008733Y-13057771D01*
X7999209Y-13038724D01*
X7989686Y-13010152D01*
X7980162Y-12962533D01*
X7980162Y-12924438D01*
X7989686Y-12876819D01*
X7999209Y-12848248D01*
X8008733Y-12829200D01*
X8027781Y-12800628D01*
X8037305Y-12791105D01*
X8103971Y-12838724D02*
X8113495Y-12829200D01*
X8132543Y-12819676D01*
X8180162Y-12819676D01*
X8199209Y-12829200D01*
X8208733Y-12838724D01*
X8218257Y-12857771D01*
X8218257Y-12876819D01*
X8208733Y-12905390D01*
X8094448Y-13019676D01*
X8218257Y-13019676D01*
X8456352Y-13019676D02*
X8456352Y-12819676D01*
X8542067Y-13019676D02*
X8542067Y-12914914D01*
X8532543Y-12895867D01*
X8513495Y-12886343D01*
X8484924Y-12886343D01*
X8465876Y-12895867D01*
X8456352Y-12905390D01*
X8665876Y-13019676D02*
X8646829Y-13010152D01*
X8637305Y-13000628D01*
X8627781Y-12981581D01*
X8627781Y-12924438D01*
X8637305Y-12905390D01*
X8646829Y-12895867D01*
X8665876Y-12886343D01*
X8694448Y-12886343D01*
X8713495Y-12895867D01*
X8723019Y-12905390D01*
X8732543Y-12924438D01*
X8732543Y-12981581D01*
X8723019Y-13000628D01*
X8713495Y-13010152D01*
X8694448Y-13019676D01*
X8665876Y-13019676D01*
X8846829Y-13019676D02*
X8827781Y-13010152D01*
X8818257Y-12991105D01*
X8818257Y-12819676D01*
X8999210Y-13010152D02*
X8980162Y-13019676D01*
X8942067Y-13019676D01*
X8923019Y-13010152D01*
X8913495Y-12991105D01*
X8913495Y-12914914D01*
X8923019Y-12895867D01*
X8942067Y-12886343D01*
X8980162Y-12886343D01*
X8999210Y-12895867D01*
X9008733Y-12914914D01*
X9008733Y-12933962D01*
X8913495Y-12953009D01*
X9084924Y-13010152D02*
X9103971Y-13019676D01*
X9142067Y-13019676D01*
X9161114Y-13010152D01*
X9170638Y-12991105D01*
X9170638Y-12981581D01*
X9161114Y-12962533D01*
X9142067Y-12953009D01*
X9113495Y-12953009D01*
X9094448Y-12943486D01*
X9084924Y-12924438D01*
X9084924Y-12914914D01*
X9094448Y-12895867D01*
X9113495Y-12886343D01*
X9142067Y-12886343D01*
X9161114Y-12895867D01*
X9237305Y-13095867D02*
X9246829Y-13086343D01*
X9265876Y-13057771D01*
X9275400Y-13038724D01*
X9284924Y-13010152D01*
X9294448Y-12962533D01*
X9294448Y-12924438D01*
X9284924Y-12876819D01*
X9275400Y-12848248D01*
X9265876Y-12829200D01*
X9246829Y-12800628D01*
X9237305Y-12791105D01*
X9599210Y-13095867D02*
X9589686Y-13086343D01*
X9570638Y-13057771D01*
X9561114Y-13038724D01*
X9551590Y-13010152D01*
X9542067Y-12962533D01*
X9542067Y-12924438D01*
X9551590Y-12876819D01*
X9561114Y-12848248D01*
X9570638Y-12829200D01*
X9589686Y-12800628D01*
X9599210Y-12791105D01*
X9675400Y-12886343D02*
X9675400Y-13019676D01*
X9675400Y-12905390D02*
X9684924Y-12895867D01*
X9703971Y-12886343D01*
X9732543Y-12886343D01*
X9751590Y-12895867D01*
X9761114Y-12914914D01*
X9761114Y-13019676D01*
X9884924Y-13019676D02*
X9865876Y-13010152D01*
X9856352Y-13000628D01*
X9846829Y-12981581D01*
X9846829Y-12924438D01*
X9856352Y-12905390D01*
X9865876Y-12895867D01*
X9884924Y-12886343D01*
X9913495Y-12886343D01*
X9932543Y-12895867D01*
X9942067Y-12905390D01*
X9951590Y-12924438D01*
X9951590Y-12981581D01*
X9942067Y-13000628D01*
X9932543Y-13010152D01*
X9913495Y-13019676D01*
X9884924Y-13019676D01*
X10008733Y-12886343D02*
X10084924Y-12886343D01*
X10037305Y-12819676D02*
X10037305Y-12991105D01*
X10046829Y-13010152D01*
X10065876Y-13019676D01*
X10084924Y-13019676D01*
X10303971Y-12886343D02*
X10303971Y-13086343D01*
X10303971Y-12895867D02*
X10323019Y-12886343D01*
X10361114Y-12886343D01*
X10380162Y-12895867D01*
X10389686Y-12905390D01*
X10399210Y-12924438D01*
X10399210Y-12981581D01*
X10389686Y-13000628D01*
X10380162Y-13010152D01*
X10361114Y-13019676D01*
X10323019Y-13019676D01*
X10303971Y-13010152D01*
X10513495Y-13019676D02*
X10494448Y-13010152D01*
X10484924Y-12991105D01*
X10484924Y-12819676D01*
X10675400Y-13019676D02*
X10675400Y-12914914D01*
X10665876Y-12895867D01*
X10646829Y-12886343D01*
X10608733Y-12886343D01*
X10589686Y-12895867D01*
X10675400Y-13010152D02*
X10656352Y-13019676D01*
X10608733Y-13019676D01*
X10589686Y-13010152D01*
X10580162Y-12991105D01*
X10580162Y-12972057D01*
X10589686Y-12953009D01*
X10608733Y-12943486D01*
X10656352Y-12943486D01*
X10675400Y-12933962D01*
X10742067Y-12886343D02*
X10818257Y-12886343D01*
X10770638Y-12819676D02*
X10770638Y-12991105D01*
X10780162Y-13010152D01*
X10799210Y-13019676D01*
X10818257Y-13019676D01*
X10961114Y-13010152D02*
X10942067Y-13019676D01*
X10903971Y-13019676D01*
X10884924Y-13010152D01*
X10875400Y-12991105D01*
X10875400Y-12914914D01*
X10884924Y-12895867D01*
X10903971Y-12886343D01*
X10942067Y-12886343D01*
X10961114Y-12895867D01*
X10970638Y-12914914D01*
X10970638Y-12933962D01*
X10875400Y-12953009D01*
X11142067Y-13019676D02*
X11142067Y-12819676D01*
X11142067Y-13010152D02*
X11123019Y-13019676D01*
X11084924Y-13019676D01*
X11065876Y-13010152D01*
X11056352Y-13000628D01*
X11046829Y-12981581D01*
X11046829Y-12924438D01*
X11056352Y-12905390D01*
X11065876Y-12895867D01*
X11084924Y-12886343D01*
X11123019Y-12886343D01*
X11142067Y-12895867D01*
X11218257Y-13095867D02*
X11227781Y-13086343D01*
X11246828Y-13057771D01*
X11256352Y-13038724D01*
X11265876Y-13010152D01*
X11275400Y-12962533D01*
X11275400Y-12924438D01*
X11265876Y-12876819D01*
X11256352Y-12848248D01*
X11246828Y-12829200D01*
X11227781Y-12800628D01*
X11218257Y-12791105D01*
M02*
