%TF.GenerationSoftware,KiCad,Pcbnew,(6.0.8-1)-1*%
%TF.CreationDate,2022-10-09T21:55:28-07:00*%
%TF.ProjectId,PCB,5043422e-6b69-4636-9164-5f7063625858,rev?*%
%TF.SameCoordinates,Original*%
%TF.FileFunction,Copper,L1,Top*%
%TF.FilePolarity,Positive*%
%FSLAX46Y46*%
G04 Gerber Fmt 4.6, Leading zero omitted, Abs format (unit mm)*
G04 Created by KiCad (PCBNEW (6.0.8-1)-1) date 2022-10-09 21:55:28*
%MOMM*%
%LPD*%
G01*
G04 APERTURE LIST*
%TA.AperFunction,ComponentPad*%
%ADD10R,1.700000X1.700000*%
%TD*%
%TA.AperFunction,ComponentPad*%
%ADD11O,1.700000X1.700000*%
%TD*%
%TA.AperFunction,ComponentPad*%
%ADD12R,1.600000X1.600000*%
%TD*%
%TA.AperFunction,ComponentPad*%
%ADD13O,1.600000X1.600000*%
%TD*%
%TA.AperFunction,ComponentPad*%
%ADD14C,1.600000*%
%TD*%
%TA.AperFunction,ComponentPad*%
%ADD15R,1.524000X1.524000*%
%TD*%
%TA.AperFunction,ComponentPad*%
%ADD16C,1.524000*%
%TD*%
%TA.AperFunction,ViaPad*%
%ADD17C,0.700000*%
%TD*%
%TA.AperFunction,Conductor*%
%ADD18C,0.300000*%
%TD*%
%TA.AperFunction,Conductor*%
%ADD19C,0.250000*%
%TD*%
%TA.AperFunction,Conductor*%
%ADD20C,0.500000*%
%TD*%
G04 APERTURE END LIST*
D10*
X91440000Y-68580000D03*
D11*
X88900000Y-68580000D03*
D12*
X60960000Y-115560000D03*
D13*
X63500000Y-115560000D03*
X66040000Y-115560000D03*
X68580000Y-115560000D03*
X71120000Y-115560000D03*
X73660000Y-115560000D03*
X76200000Y-115560000D03*
X78740000Y-115560000D03*
X81280000Y-115560000D03*
X83820000Y-115560000D03*
X83820000Y-107940000D03*
X81280000Y-107940000D03*
X78740000Y-107940000D03*
X76200000Y-107940000D03*
X73660000Y-107940000D03*
X71120000Y-107940000D03*
X68580000Y-107940000D03*
X66040000Y-107940000D03*
X63500000Y-107940000D03*
X60960000Y-107940000D03*
D14*
X67310000Y-86360000D03*
D13*
X77470000Y-86360000D03*
D12*
X60960000Y-76200000D03*
D13*
X63500000Y-76200000D03*
X66040000Y-76200000D03*
X68580000Y-76200000D03*
X71120000Y-76200000D03*
X73660000Y-76200000D03*
X76200000Y-76200000D03*
X78740000Y-76200000D03*
X81280000Y-76200000D03*
X83820000Y-76200000D03*
X83820000Y-68580000D03*
X81280000Y-68580000D03*
X78740000Y-68580000D03*
X76200000Y-68580000D03*
X73660000Y-68580000D03*
X71120000Y-68580000D03*
X68580000Y-68580000D03*
X66040000Y-68580000D03*
X63500000Y-68580000D03*
X60960000Y-68580000D03*
D14*
X57800000Y-68580000D03*
X57800000Y-73580000D03*
D10*
X80640000Y-83185000D03*
D11*
X83180000Y-83185000D03*
D14*
X60960000Y-88225000D03*
X60960000Y-83225000D03*
X59095000Y-105156000D03*
X64095000Y-105156000D03*
X77470000Y-83185000D03*
D13*
X67310000Y-83185000D03*
D15*
X121285000Y-113055000D03*
D16*
X121285000Y-110515000D03*
X121285000Y-107975000D03*
X121285000Y-105435000D03*
X121285000Y-102895000D03*
X121285000Y-100355000D03*
X121285000Y-97815000D03*
X121285000Y-95275000D03*
X121285000Y-92735000D03*
X121285000Y-90195000D03*
X121285000Y-87655000D03*
X121285000Y-85115000D03*
X121285000Y-82575000D03*
X121285000Y-80035000D03*
X121285000Y-77495000D03*
X95885000Y-77495000D03*
X95885000Y-80035000D03*
X95885000Y-82575000D03*
X95885000Y-85115000D03*
X95885000Y-87655000D03*
X95885000Y-90195000D03*
X95885000Y-92735000D03*
X95885000Y-95275000D03*
X95885000Y-97815000D03*
X95885000Y-100355000D03*
X95885000Y-102895000D03*
X95885000Y-105435000D03*
X95885000Y-107975000D03*
X95885000Y-110515000D03*
X95885000Y-113055000D03*
D14*
X86995000Y-77470000D03*
D13*
X86995000Y-87630000D03*
D12*
X60965000Y-99050000D03*
D13*
X63505000Y-99050000D03*
X66045000Y-99050000D03*
X68585000Y-99050000D03*
X71125000Y-99050000D03*
X73665000Y-99050000D03*
X76205000Y-99050000D03*
X78745000Y-99050000D03*
X81285000Y-99050000D03*
X83825000Y-99050000D03*
X83825000Y-91430000D03*
X81285000Y-91430000D03*
X78745000Y-91430000D03*
X76205000Y-91430000D03*
X73665000Y-91430000D03*
X71125000Y-91430000D03*
X68585000Y-91430000D03*
X66045000Y-91430000D03*
X63505000Y-91430000D03*
X60965000Y-91430000D03*
D14*
X64135000Y-88225000D03*
X64135000Y-83225000D03*
D10*
X53340000Y-116840000D03*
D11*
X50800000Y-116840000D03*
X53340000Y-114300000D03*
X50800000Y-114300000D03*
X53340000Y-111760000D03*
X50800000Y-111760000D03*
X53340000Y-109220000D03*
X50800000Y-109220000D03*
X53340000Y-106680000D03*
X50800000Y-106680000D03*
X53340000Y-104140000D03*
X50800000Y-104140000D03*
X53340000Y-101600000D03*
X50800000Y-101600000D03*
X53340000Y-99060000D03*
X50800000Y-99060000D03*
X53340000Y-96520000D03*
X50800000Y-96520000D03*
X53340000Y-93980000D03*
X50800000Y-93980000D03*
X53340000Y-91440000D03*
X50800000Y-91440000D03*
X53340000Y-88900000D03*
X50800000Y-88900000D03*
X53340000Y-86360000D03*
X50800000Y-86360000D03*
X53340000Y-83820000D03*
X50800000Y-83820000D03*
X53340000Y-81280000D03*
X50800000Y-81280000D03*
X53340000Y-78740000D03*
X50800000Y-78740000D03*
X53340000Y-76200000D03*
X50800000Y-76200000D03*
X53340000Y-73660000D03*
X50800000Y-73660000D03*
X53340000Y-71120000D03*
X50800000Y-71120000D03*
X53340000Y-68580000D03*
X50800000Y-68580000D03*
D17*
X97536000Y-83820000D03*
X90740500Y-93980000D03*
X100584000Y-93980000D03*
X90740500Y-91440000D03*
X100584000Y-91440000D03*
X114300000Y-105664000D03*
X100584000Y-88900000D03*
X90740500Y-88900000D03*
X109220000Y-100076000D03*
X113284000Y-100076000D03*
X106172000Y-97536000D03*
X110744000Y-97536000D03*
X90740500Y-96520000D03*
X99695000Y-96520000D03*
X98552000Y-99060000D03*
X90805000Y-99060000D03*
X97155000Y-101600000D03*
X93345000Y-101600000D03*
X57404000Y-88392000D03*
X65024000Y-74967500D03*
X83820000Y-93726000D03*
X89535000Y-95250000D03*
D18*
X122428000Y-88900000D02*
X123444000Y-89916000D01*
X120904000Y-88900000D02*
X122428000Y-88900000D01*
X123444000Y-110896000D02*
X121285000Y-113055000D01*
X97536000Y-83820000D02*
X115824000Y-83820000D01*
X115824000Y-83820000D02*
X120904000Y-88900000D01*
X123444000Y-89916000D02*
X123444000Y-110896000D01*
X80259000Y-89916000D02*
X86676500Y-89916000D01*
X120784788Y-110515000D02*
X121285000Y-110515000D01*
X100584000Y-93980000D02*
X104249788Y-93980000D01*
X78745000Y-91430000D02*
X80259000Y-89916000D01*
X86676500Y-89916000D02*
X90740500Y-93980000D01*
X104249788Y-93980000D02*
X120784788Y-110515000D01*
X78227000Y-89408000D02*
X87718550Y-89408000D01*
X76205000Y-91430000D02*
X78227000Y-89408000D01*
X87718550Y-89408000D02*
X88708500Y-89408000D01*
X118951894Y-107975000D02*
X121285000Y-107975000D01*
X102416894Y-91440000D02*
X118951894Y-107975000D01*
X100584000Y-91440000D02*
X102416894Y-91440000D01*
X88708500Y-89408000D02*
X90740500Y-91440000D01*
X110744000Y-109220000D02*
X114300000Y-105664000D01*
X85100000Y-109220000D02*
X110744000Y-109220000D01*
X83820000Y-107940000D02*
X85100000Y-109220000D01*
X76195000Y-88900000D02*
X88900000Y-88900000D01*
X88900000Y-88900000D02*
X90740500Y-88900000D01*
X100584000Y-88900000D02*
X114579000Y-102895000D01*
X114579000Y-102895000D02*
X121285000Y-102895000D01*
X73665000Y-91430000D02*
X76195000Y-88900000D01*
X113563000Y-100355000D02*
X121285000Y-100355000D01*
X82550000Y-108585000D02*
X82550000Y-107315000D01*
X78740000Y-107940000D02*
X80020000Y-109220000D01*
X82550000Y-107315000D02*
X83185000Y-106680000D01*
X102616000Y-106680000D02*
X109220000Y-100076000D01*
X113284000Y-100076000D02*
X113563000Y-100355000D01*
X81915000Y-109220000D02*
X82550000Y-108585000D01*
X80020000Y-109220000D02*
X81915000Y-109220000D01*
X83185000Y-106680000D02*
X102616000Y-106680000D01*
X121285000Y-97815000D02*
X111023000Y-97815000D01*
X93702394Y-106045000D02*
X95607394Y-104140000D01*
X99568000Y-104140000D02*
X106172000Y-97536000D01*
X81280000Y-107877893D02*
X83112893Y-106045000D01*
X81280000Y-107940000D02*
X81280000Y-107877893D01*
X111023000Y-97815000D02*
X110744000Y-97536000D01*
X83112893Y-106045000D02*
X93702394Y-106045000D01*
X95607394Y-104140000D02*
X99568000Y-104140000D01*
X99695000Y-96520000D02*
X99695000Y-88265000D01*
X118643000Y-95275000D02*
X121285000Y-95275000D01*
X100076000Y-87884000D02*
X111252000Y-87884000D01*
X111252000Y-87884000D02*
X118643000Y-95275000D01*
X74515000Y-104545000D02*
X82715500Y-104545000D01*
X71120000Y-107940000D02*
X74515000Y-104545000D01*
X82715500Y-104545000D02*
X90740500Y-96520000D01*
X99695000Y-88265000D02*
X100076000Y-87884000D01*
X98552000Y-87884000D02*
X99060000Y-87376000D01*
X99060000Y-87376000D02*
X115926000Y-87376000D01*
X73660000Y-107940000D02*
X76555000Y-105045000D01*
X98552000Y-99060000D02*
X98552000Y-87884000D01*
X88907606Y-99060000D02*
X90805000Y-99060000D01*
X82922606Y-105045000D02*
X88903803Y-99063803D01*
X115926000Y-87376000D02*
X121285000Y-92735000D01*
X76555000Y-105045000D02*
X82922606Y-105045000D01*
X88903803Y-99063803D02*
X88907606Y-99060000D01*
X97155000Y-101600000D02*
X97536000Y-101219000D01*
X83129712Y-105545000D02*
X87074712Y-101600000D01*
X97536000Y-101219000D02*
X97536000Y-87376000D01*
X76200000Y-107940000D02*
X78595000Y-105545000D01*
X97536000Y-87376000D02*
X98044000Y-86868000D01*
X87074712Y-101600000D02*
X93345000Y-101600000D01*
X78595000Y-105545000D02*
X83129712Y-105545000D01*
X98044000Y-86868000D02*
X117958000Y-86868000D01*
X117958000Y-86868000D02*
X121285000Y-90195000D01*
X83185000Y-70485000D02*
X104115000Y-70485000D01*
X104115000Y-70485000D02*
X121285000Y-87655000D01*
X81280000Y-68580000D02*
X83185000Y-70485000D01*
D19*
X122372000Y-82124749D02*
X122372000Y-84028000D01*
X121735251Y-81488000D02*
X122372000Y-82124749D01*
X116496858Y-81488000D02*
X121735251Y-81488000D01*
X91440000Y-68580000D02*
X103588858Y-68580000D01*
X103588858Y-68580000D02*
X116496858Y-81488000D01*
X122372000Y-84028000D02*
X121285000Y-85115000D01*
D18*
X104322106Y-69985000D02*
X116912106Y-82575000D01*
X85225000Y-69985000D02*
X104322106Y-69985000D01*
X83820000Y-68580000D02*
X85225000Y-69985000D01*
X116912106Y-82575000D02*
X121285000Y-82575000D01*
D20*
X60960000Y-88225000D02*
X64135000Y-88225000D01*
X119714208Y-114634208D02*
X122254208Y-114634208D01*
X60793000Y-88392000D02*
X60960000Y-88225000D01*
X93980000Y-116840000D02*
X99060000Y-111760000D01*
X57404000Y-88392000D02*
X60793000Y-88392000D01*
X124044000Y-80254000D02*
X121285000Y-77495000D01*
X60960000Y-88225000D02*
X60960000Y-91425000D01*
X99060000Y-111760000D02*
X119380000Y-111760000D01*
X53340000Y-116840000D02*
X93980000Y-116840000D01*
X122254208Y-114634208D02*
X124044000Y-112844415D01*
X119380000Y-114300000D02*
X119714208Y-114634208D01*
X60960000Y-91425000D02*
X60965000Y-91430000D01*
X119380000Y-111760000D02*
X119380000Y-114300000D01*
X50800000Y-116840000D02*
X53340000Y-116840000D01*
X124044000Y-112844415D02*
X124044000Y-80254000D01*
X60960000Y-74168000D02*
X60960000Y-68580000D01*
X86995000Y-77470000D02*
X86995000Y-76327000D01*
X84836000Y-74168000D02*
X60960000Y-74168000D01*
X60960000Y-74168000D02*
X60960000Y-76200000D01*
X59095000Y-106075000D02*
X60960000Y-107940000D01*
X59095000Y-105156000D02*
X59095000Y-106075000D01*
X57912000Y-68580000D02*
X60960000Y-68580000D01*
X86995000Y-76327000D02*
X84836000Y-74168000D01*
D18*
X81145000Y-70985000D02*
X92575000Y-70985000D01*
X93980000Y-72390000D02*
X93980000Y-80670000D01*
X78740000Y-68580000D02*
X81145000Y-70985000D01*
X92575000Y-70985000D02*
X93980000Y-72390000D01*
X93980000Y-80670000D02*
X95885000Y-82575000D01*
X85090000Y-85725000D02*
X86995000Y-87630000D01*
X85090000Y-75565000D02*
X85090000Y-85725000D01*
X83820000Y-93726000D02*
X82675000Y-94871000D01*
X63500000Y-107940000D02*
X67460000Y-103980000D01*
X84455000Y-74930000D02*
X85090000Y-75565000D01*
X67460000Y-103980000D02*
X78900000Y-103980000D01*
X65024000Y-74967500D02*
X65061500Y-74930000D01*
X65061500Y-74930000D02*
X84455000Y-74930000D01*
X80805000Y-103980000D02*
X82550000Y-102235000D01*
X82675000Y-94871000D02*
X82675000Y-102110000D01*
X78900000Y-103980000D02*
X80805000Y-103980000D01*
X82675000Y-102110000D02*
X82550000Y-102235000D01*
X93480000Y-87790000D02*
X95885000Y-90195000D01*
X79105000Y-71485000D02*
X92367894Y-71485000D01*
X93480000Y-72597106D02*
X93480000Y-87790000D01*
X76200000Y-68580000D02*
X79105000Y-71485000D01*
X92367894Y-71485000D02*
X93480000Y-72597106D01*
X73660000Y-68580000D02*
X77065000Y-71985000D01*
X77065000Y-71985000D02*
X92160788Y-71985000D01*
X92980000Y-89830000D02*
X95885000Y-92735000D01*
X92160788Y-71985000D02*
X92980000Y-72804212D01*
X92980000Y-72804212D02*
X92980000Y-89830000D01*
X81285000Y-91430000D02*
X82819000Y-92964000D01*
X87249000Y-92964000D02*
X89535000Y-95250000D01*
X82819000Y-92964000D02*
X87249000Y-92964000D01*
X75025000Y-72485000D02*
X91953682Y-72485000D01*
X92480000Y-73011318D02*
X92480000Y-94410000D01*
X91953682Y-72485000D02*
X92480000Y-73011318D01*
X92480000Y-94410000D02*
X95885000Y-97815000D01*
X71120000Y-68580000D02*
X75025000Y-72485000D01*
X91980000Y-74200000D02*
X91980000Y-96450000D01*
X91980000Y-96450000D02*
X95885000Y-100355000D01*
X90765000Y-72985000D02*
X91980000Y-74200000D01*
X68580000Y-68580000D02*
X72985000Y-72985000D01*
X72985000Y-72985000D02*
X90765000Y-72985000D01*
X70945000Y-73485000D02*
X90557894Y-73485000D01*
X91440000Y-98450000D02*
X95885000Y-102895000D01*
X91440000Y-74367106D02*
X91440000Y-98450000D01*
X66040000Y-68580000D02*
X70945000Y-73485000D01*
X90557894Y-73485000D02*
X91440000Y-74367106D01*
X69850000Y-108502894D02*
X71522106Y-110175000D01*
X71522106Y-110175000D02*
X95545000Y-110175000D01*
X67300000Y-106680000D02*
X69215000Y-106680000D01*
X66040000Y-107940000D02*
X67300000Y-106680000D01*
X69850000Y-107315000D02*
X69850000Y-108502894D01*
X95545000Y-110175000D02*
X95885000Y-110515000D01*
X69215000Y-106680000D02*
X69850000Y-107315000D01*
X93505000Y-110675000D02*
X92525000Y-110675000D01*
X95885000Y-113055000D02*
X93505000Y-110675000D01*
X71315000Y-110675000D02*
X92525000Y-110675000D01*
X68580000Y-107940000D02*
X71315000Y-110675000D01*
D19*
X64330000Y-113850000D02*
X66040000Y-115560000D01*
X55430000Y-114300000D02*
X55880000Y-113850000D01*
X55880000Y-113850000D02*
X64330000Y-113850000D01*
X53340000Y-114300000D02*
X55430000Y-114300000D01*
X54792118Y-115574278D02*
X56066396Y-114300000D01*
X52074278Y-115574278D02*
X54792118Y-115574278D01*
X62230000Y-114300000D02*
X62240000Y-114300000D01*
X50800000Y-114300000D02*
X52074278Y-115574278D01*
X62240000Y-114300000D02*
X63500000Y-115560000D01*
X56066396Y-114300000D02*
X62230000Y-114300000D01*
X54530000Y-112950000D02*
X53340000Y-111760000D01*
X61040000Y-112950000D02*
X68510000Y-112950000D01*
X68510000Y-112950000D02*
X71120000Y-115560000D01*
X61040000Y-112950000D02*
X54530000Y-112950000D01*
X54101701Y-113400000D02*
X53636701Y-112935000D01*
X51975000Y-112935000D02*
X50800000Y-111760000D01*
X56145000Y-113400000D02*
X66420000Y-113400000D01*
X56145000Y-113400000D02*
X54101701Y-113400000D01*
X53636701Y-112935000D02*
X51975000Y-112935000D01*
X66420000Y-113400000D02*
X68580000Y-115560000D01*
X72690000Y-112050000D02*
X76200000Y-115560000D01*
X56516396Y-109220000D02*
X53340000Y-109220000D01*
X70140000Y-112050000D02*
X72690000Y-112050000D01*
X59346396Y-112050000D02*
X56516396Y-109220000D01*
X70140000Y-112050000D02*
X59346396Y-112050000D01*
X62335000Y-112500000D02*
X59160000Y-112500000D01*
X57055000Y-110395000D02*
X51975000Y-110395000D01*
X51975000Y-110395000D02*
X50800000Y-109220000D01*
X70600000Y-112500000D02*
X73660000Y-115560000D01*
X59160000Y-112500000D02*
X57055000Y-110395000D01*
X62335000Y-112500000D02*
X70600000Y-112500000D01*
X76870000Y-111150000D02*
X81280000Y-115560000D01*
X53340000Y-106680000D02*
X56515000Y-103505000D01*
X56515000Y-103505000D02*
X76830000Y-103505000D01*
X56066396Y-108320000D02*
X56889188Y-108320000D01*
X59719188Y-111150000D02*
X73635000Y-111150000D01*
X73635000Y-111150000D02*
X76870000Y-111150000D01*
X56889188Y-108320000D02*
X59719188Y-111150000D01*
X54426396Y-106680000D02*
X56066396Y-108320000D01*
X53340000Y-106680000D02*
X54426396Y-106680000D01*
X76830000Y-103505000D02*
X81285000Y-99050000D01*
X74780000Y-111600000D02*
X78740000Y-115560000D01*
X55880000Y-108770000D02*
X56702792Y-108770000D01*
X72865000Y-111600000D02*
X74780000Y-111600000D01*
X59532792Y-111600000D02*
X72865000Y-111600000D01*
X52165000Y-108045000D02*
X55155000Y-108045000D01*
X50800000Y-106680000D02*
X52165000Y-108045000D01*
X56702792Y-108770000D02*
X59532792Y-111600000D01*
X55155000Y-108045000D02*
X55880000Y-108770000D01*
D18*
X53340000Y-104140000D02*
X55208249Y-104140000D01*
X74765000Y-103030000D02*
X78745000Y-99050000D01*
X55208249Y-104140000D02*
X56318249Y-103030000D01*
X56318249Y-103030000D02*
X74765000Y-103030000D01*
D19*
X56121498Y-102555000D02*
X72700000Y-102555000D01*
X55711497Y-102965000D02*
X56121498Y-102555000D01*
X50800000Y-104140000D02*
X51975000Y-102965000D01*
X51975000Y-102965000D02*
X55711497Y-102965000D01*
X72700000Y-102555000D02*
X76205000Y-99050000D01*
D18*
X70635000Y-102080000D02*
X56515000Y-102080000D01*
X73665000Y-99050000D02*
X70635000Y-102080000D01*
X56035000Y-101600000D02*
X53340000Y-101600000D01*
X56515000Y-102080000D02*
X56035000Y-101600000D01*
X68595000Y-101580000D02*
X71125000Y-99050000D01*
X55245000Y-100965000D02*
X56107107Y-100965000D01*
X56722107Y-101580000D02*
X68595000Y-101580000D01*
X52140000Y-100260000D02*
X54540000Y-100260000D01*
X54540000Y-100260000D02*
X55245000Y-100965000D01*
X56107107Y-100965000D02*
X56722107Y-101580000D01*
X50800000Y-101600000D02*
X52140000Y-100260000D01*
X56929214Y-101080000D02*
X66555000Y-101080000D01*
X54909214Y-99060000D02*
X56929214Y-101080000D01*
X53340000Y-99060000D02*
X54909214Y-99060000D01*
X66555000Y-101080000D02*
X68585000Y-99050000D01*
D19*
X50800000Y-99060000D02*
X52140000Y-97720000D01*
X57125966Y-100605000D02*
X64490000Y-100605000D01*
X52140000Y-97720000D02*
X54240966Y-97720000D01*
X64490000Y-100605000D02*
X66045000Y-99050000D01*
X54240966Y-97720000D02*
X57125966Y-100605000D01*
D18*
X58435000Y-96520000D02*
X60965000Y-99050000D01*
X53340000Y-96520000D02*
X58435000Y-96520000D01*
X50800000Y-96520000D02*
X52038923Y-95281077D01*
X52038923Y-95281077D02*
X55141077Y-95281077D01*
X60475000Y-96020000D02*
X63505000Y-99050000D01*
X55880000Y-96020000D02*
X60475000Y-96020000D01*
X55141077Y-95281077D02*
X55880000Y-96020000D01*
X68575000Y-93980000D02*
X71125000Y-91430000D01*
X53340000Y-93980000D02*
X68575000Y-93980000D01*
X50800000Y-93980000D02*
X52000000Y-92780000D01*
X66535000Y-93480000D02*
X68585000Y-91430000D01*
X55740000Y-93480000D02*
X66535000Y-93480000D01*
X52000000Y-92780000D02*
X55040000Y-92780000D01*
X55040000Y-92780000D02*
X55740000Y-93480000D01*
X54610000Y-91440000D02*
X56150000Y-92980000D01*
X56150000Y-92980000D02*
X64495000Y-92980000D01*
X53340000Y-91440000D02*
X54610000Y-91440000D01*
X64495000Y-92980000D02*
X66045000Y-91430000D01*
X50800000Y-91440000D02*
X52070000Y-90170000D01*
X54610000Y-90170000D02*
X58420000Y-86360000D01*
X52070000Y-90170000D02*
X54610000Y-90170000D01*
X58420000Y-86360000D02*
X67310000Y-86360000D01*
X52038923Y-87661077D02*
X54578923Y-87661077D01*
X59127106Y-81280000D02*
X76200000Y-81280000D01*
X50800000Y-88900000D02*
X52038923Y-87661077D01*
X76200000Y-81280000D02*
X81280000Y-76200000D01*
X55880000Y-84527106D02*
X59127106Y-81280000D01*
X54578923Y-87661077D02*
X55880000Y-86360000D01*
X55880000Y-86360000D02*
X55880000Y-84527106D01*
X52038923Y-85121077D02*
X54578923Y-85121077D01*
X58920000Y-80780000D02*
X74160000Y-80780000D01*
X74160000Y-80780000D02*
X78740000Y-76200000D01*
X54578923Y-85121077D02*
X58920000Y-80780000D01*
X50800000Y-86360000D02*
X52038923Y-85121077D01*
X72120000Y-80280000D02*
X76200000Y-76200000D01*
X50800000Y-83820000D02*
X52038923Y-82581077D01*
X58712894Y-80280000D02*
X72120000Y-80280000D01*
X56411817Y-82581077D02*
X58712894Y-80280000D01*
X52038923Y-82581077D02*
X56411817Y-82581077D01*
X52038923Y-80041077D02*
X58244710Y-80041077D01*
X58505787Y-79780000D02*
X70080000Y-79780000D01*
X58244710Y-80041077D02*
X58505787Y-79780000D01*
X70080000Y-79780000D02*
X73660000Y-76200000D01*
X50800000Y-81280000D02*
X52038923Y-80041077D01*
X55722846Y-79280000D02*
X68040000Y-79280000D01*
X68040000Y-79280000D02*
X71120000Y-76200000D01*
X52038923Y-77501077D02*
X53943923Y-77501077D01*
X50800000Y-78740000D02*
X52038923Y-77501077D01*
X53943923Y-77501077D02*
X55722846Y-79280000D01*
X52070000Y-74930000D02*
X54610000Y-74930000D01*
X50800000Y-76200000D02*
X52070000Y-74930000D01*
X54610000Y-74930000D02*
X55245000Y-75565000D01*
X55245000Y-78095048D02*
X55929952Y-78780000D01*
X55245000Y-75565000D02*
X55245000Y-78095048D01*
X66000000Y-78780000D02*
X68580000Y-76200000D01*
X55929952Y-78780000D02*
X66000000Y-78780000D01*
X63960000Y-78280000D02*
X66040000Y-76200000D01*
X54006077Y-72421077D02*
X55745000Y-74160000D01*
X52038923Y-72421077D02*
X54006077Y-72421077D01*
X50800000Y-73660000D02*
X52038923Y-72421077D01*
X56137058Y-78280000D02*
X63960000Y-78280000D01*
X55745000Y-74160000D02*
X55745000Y-77887942D01*
X55745000Y-77887942D02*
X56137058Y-78280000D01*
X52070000Y-69850000D02*
X54610000Y-69850000D01*
X50800000Y-71120000D02*
X52070000Y-69850000D01*
X56245000Y-71485000D02*
X56245000Y-77680836D01*
X61920000Y-77780000D02*
X63500000Y-76200000D01*
X54610000Y-69850000D02*
X56245000Y-71485000D01*
X56344164Y-77780000D02*
X61920000Y-77780000D01*
X56245000Y-77680836D02*
X56344164Y-77780000D01*
X77470000Y-83185000D02*
X80640000Y-83185000D01*
X77470000Y-86360000D02*
X77470000Y-83185000D01*
M02*
