%TF.GenerationSoftware,KiCad,Pcbnew,(6.0.8-1)-1*%
%TF.CreationDate,2022-10-09T21:52:32-07:00*%
%TF.ProjectId,PCB,5043422e-6b69-4636-9164-5f7063625858,rev?*%
%TF.SameCoordinates,Original*%
%TF.FileFunction,Drillmap*%
%TF.FilePolarity,Positive*%
%FSLAX45Y45*%
G04 Gerber Fmt 4.5, Leading zero omitted, Abs format (unit mm)*
G04 Created by KiCad (PCBNEW (6.0.8-1)-1) date 2022-10-09 21:52:32*
%MOMM*%
%LPD*%
G01*
G04 APERTURE LIST*
%ADD10C,0.100000*%
%ADD11C,0.200000*%
G04 APERTURE END LIST*
D10*
X4470400Y-6502400D02*
X12623800Y-6502400D01*
X12623800Y-6502400D02*
X12623800Y-12014200D01*
X12623800Y-12014200D02*
X4470400Y-12014200D01*
X4470400Y-12014200D02*
X4470400Y-6502400D01*
D11*
X4723019Y-12329676D02*
X4723019Y-12129676D01*
X4770638Y-12129676D01*
X4799210Y-12139200D01*
X4818257Y-12158248D01*
X4827781Y-12177295D01*
X4837305Y-12215390D01*
X4837305Y-12243962D01*
X4827781Y-12282057D01*
X4818257Y-12301105D01*
X4799210Y-12320152D01*
X4770638Y-12329676D01*
X4723019Y-12329676D01*
X4923019Y-12329676D02*
X4923019Y-12196343D01*
X4923019Y-12234438D02*
X4932543Y-12215390D01*
X4942067Y-12205867D01*
X4961114Y-12196343D01*
X4980162Y-12196343D01*
X5046829Y-12329676D02*
X5046829Y-12196343D01*
X5046829Y-12129676D02*
X5037305Y-12139200D01*
X5046829Y-12148724D01*
X5056352Y-12139200D01*
X5046829Y-12129676D01*
X5046829Y-12148724D01*
X5170638Y-12329676D02*
X5151590Y-12320152D01*
X5142067Y-12301105D01*
X5142067Y-12129676D01*
X5275400Y-12329676D02*
X5256352Y-12320152D01*
X5246829Y-12301105D01*
X5246829Y-12129676D01*
X5503971Y-12329676D02*
X5503971Y-12129676D01*
X5570638Y-12272533D01*
X5637305Y-12129676D01*
X5637305Y-12329676D01*
X5818257Y-12329676D02*
X5818257Y-12224914D01*
X5808733Y-12205867D01*
X5789686Y-12196343D01*
X5751590Y-12196343D01*
X5732543Y-12205867D01*
X5818257Y-12320152D02*
X5799209Y-12329676D01*
X5751590Y-12329676D01*
X5732543Y-12320152D01*
X5723019Y-12301105D01*
X5723019Y-12282057D01*
X5732543Y-12263009D01*
X5751590Y-12253486D01*
X5799209Y-12253486D01*
X5818257Y-12243962D01*
X5913495Y-12196343D02*
X5913495Y-12396343D01*
X5913495Y-12205867D02*
X5932543Y-12196343D01*
X5970638Y-12196343D01*
X5989686Y-12205867D01*
X5999209Y-12215390D01*
X6008733Y-12234438D01*
X6008733Y-12291581D01*
X5999209Y-12310628D01*
X5989686Y-12320152D01*
X5970638Y-12329676D01*
X5932543Y-12329676D01*
X5913495Y-12320152D01*
X6094448Y-12310628D02*
X6103971Y-12320152D01*
X6094448Y-12329676D01*
X6084924Y-12320152D01*
X6094448Y-12310628D01*
X6094448Y-12329676D01*
X6094448Y-12205867D02*
X6103971Y-12215390D01*
X6094448Y-12224914D01*
X6084924Y-12215390D01*
X6094448Y-12205867D01*
X6094448Y-12224914D01*
M02*
