M48
; DRILL file {KiCad (6.0.8-1)-1} date Sunday, October 09, 2022 at 09:52:34 PM
; FORMAT={-:-/ absolute / metric / decimal}
; #@! TF.CreationDate,2022-10-09T21:52:34-07:00
; #@! TF.GenerationSoftware,Kicad,Pcbnew,(6.0.8-1)-1
; #@! TF.FileFunction,Plated,1,2,PTH
FMAT,2
METRIC
; #@! TA.AperFunction,Plated,PTH,ViaDrill
T1C0.300
; #@! TA.AperFunction,Plated,PTH,ComponentDrill
T2C0.762
; #@! TA.AperFunction,Plated,PTH,ComponentDrill
T3C0.800
; #@! TA.AperFunction,Plated,PTH,ComponentDrill
T4C1.000
%
G90
G05
T1
X57.404Y-88.392
X65.024Y-74.968
X83.82Y-93.726
X89.535Y-95.25
X90.74Y-88.9
X90.74Y-91.44
X90.74Y-93.98
X90.74Y-96.52
X90.805Y-99.06
X93.345Y-101.6
X97.155Y-101.6
X97.536Y-83.82
X98.552Y-99.06
X99.695Y-96.52
X100.584Y-88.9
X100.584Y-91.44
X100.584Y-93.98
X106.172Y-97.536
X109.22Y-100.076
X110.744Y-97.536
X113.284Y-100.076
X114.3Y-105.664
T2
X95.885Y-77.495
X95.885Y-80.035
X95.885Y-82.575
X95.885Y-85.115
X95.885Y-87.655
X95.885Y-90.195
X95.885Y-92.735
X95.885Y-95.275
X95.885Y-97.815
X95.885Y-100.355
X95.885Y-102.895
X95.885Y-105.435
X95.885Y-107.975
X95.885Y-110.515
X95.885Y-113.055
X121.285Y-77.495
X121.285Y-80.035
X121.285Y-82.575
X121.285Y-85.115
X121.285Y-87.655
X121.285Y-90.195
X121.285Y-92.735
X121.285Y-95.275
X121.285Y-97.815
X121.285Y-100.355
X121.285Y-102.895
X121.285Y-105.435
X121.285Y-107.975
X121.285Y-110.515
X121.285Y-113.055
T3
X57.8Y-68.58
X57.8Y-73.58
X59.095Y-105.156
X60.96Y-68.58
X60.96Y-76.2
X60.96Y-83.225
X60.96Y-88.225
X60.96Y-107.94
X60.96Y-115.56
X60.965Y-91.43
X60.965Y-99.05
X63.5Y-68.58
X63.5Y-76.2
X63.5Y-107.94
X63.5Y-115.56
X63.505Y-91.43
X63.505Y-99.05
X64.095Y-105.156
X64.135Y-83.225
X64.135Y-88.225
X66.04Y-68.58
X66.04Y-76.2
X66.04Y-107.94
X66.04Y-115.56
X66.045Y-91.43
X66.045Y-99.05
X67.31Y-83.185
X67.31Y-86.36
X68.58Y-68.58
X68.58Y-76.2
X68.58Y-107.94
X68.58Y-115.56
X68.585Y-91.43
X68.585Y-99.05
X71.12Y-68.58
X71.12Y-76.2
X71.12Y-107.94
X71.12Y-115.56
X71.125Y-91.43
X71.125Y-99.05
X73.66Y-68.58
X73.66Y-76.2
X73.66Y-107.94
X73.66Y-115.56
X73.665Y-91.43
X73.665Y-99.05
X76.2Y-68.58
X76.2Y-76.2
X76.2Y-107.94
X76.2Y-115.56
X76.205Y-91.43
X76.205Y-99.05
X77.47Y-83.185
X77.47Y-86.36
X78.74Y-68.58
X78.74Y-76.2
X78.74Y-107.94
X78.74Y-115.56
X78.745Y-91.43
X78.745Y-99.05
X81.28Y-68.58
X81.28Y-76.2
X81.28Y-107.94
X81.28Y-115.56
X81.285Y-91.43
X81.285Y-99.05
X83.82Y-68.58
X83.82Y-76.2
X83.82Y-107.94
X83.82Y-115.56
X83.825Y-91.43
X83.825Y-99.05
X86.995Y-77.47
X86.995Y-87.63
T4
X50.8Y-68.58
X50.8Y-71.12
X50.8Y-73.66
X50.8Y-76.2
X50.8Y-78.74
X50.8Y-81.28
X50.8Y-83.82
X50.8Y-86.36
X50.8Y-88.9
X50.8Y-91.44
X50.8Y-93.98
X50.8Y-96.52
X50.8Y-99.06
X50.8Y-101.6
X50.8Y-104.14
X50.8Y-106.68
X50.8Y-109.22
X50.8Y-111.76
X50.8Y-114.3
X50.8Y-116.84
X53.34Y-68.58
X53.34Y-71.12
X53.34Y-73.66
X53.34Y-76.2
X53.34Y-78.74
X53.34Y-81.28
X53.34Y-83.82
X53.34Y-86.36
X53.34Y-88.9
X53.34Y-91.44
X53.34Y-93.98
X53.34Y-96.52
X53.34Y-99.06
X53.34Y-101.6
X53.34Y-104.14
X53.34Y-106.68
X53.34Y-109.22
X53.34Y-111.76
X53.34Y-114.3
X53.34Y-116.84
X80.64Y-83.185
X83.18Y-83.185
X88.9Y-68.58
X91.44Y-68.58
T0
M30
